<svg width="4" height="8" viewBox="0 0 4 8" fill="none" xmlns="http://www.w3.org/2000/svg">
<path d="M0.480007 0.855908C0.433142 0.90239 0.395945 0.95769 0.370561 1.01862C0.345177 1.07955 0.332108 1.1449 0.332108 1.21091C0.332108 1.27691 0.345177 1.34227 0.370561 1.4032C0.395945 1.46413 0.433142 1.51943 0.480007 1.56591L2.77001 3.85591C2.81687 3.90239 2.85407 3.95769 2.87945 4.01862C2.90484 4.07955 2.91791 4.1449 2.91791 4.21091C2.91791 4.27691 2.90484 4.34227 2.87945 4.4032C2.85407 4.46413 2.81687 4.51943 2.77001 4.56591L0.480007 6.85591C0.433142 6.90239 0.395945 6.95769 0.370561 7.01862C0.345177 7.07955 0.332108 7.1449 0.332108 7.21091C0.332108 7.27691 0.345177 7.34227 0.370561 7.4032C0.395945 7.46413 0.433142 7.51943 0.480007 7.56591C0.573688 7.65903 0.700414 7.7113 0.832507 7.7113C0.9646 7.7113 1.09133 7.65903 1.18501 7.56591L3.48001 5.27091C3.76091 4.98966 3.91869 4.60841 3.91869 4.21091C3.91869 3.81341 3.76091 3.43216 3.48001 3.15091L1.18501 0.855908C1.09133 0.762783 0.9646 0.710511 0.832507 0.710511C0.700414 0.710511 0.573688 0.762783 0.480007 0.855908Z" fill="#787878"/>
</svg>
