<svg width="34" height="34" viewBox="0 0 34 34" fill="none" xmlns="http://www.w3.org/2000/svg">
<g clip-path="url(#clip0_3_17747)">
<rect y="34" width="34" height="34" rx="4" transform="rotate(-90 0 34)" fill="white"/>
<path d="M12.6933 7.49419C12.5606 7.62589 12.4552 7.78257 12.3832 7.95521C12.3113 8.12784 12.2743 8.31301 12.2743 8.50003C12.2743 8.68704 12.3113 8.87221 12.3832 9.04484C12.4552 9.21748 12.5606 9.37416 12.6933 9.50586L19.1817 15.9942C19.3145 16.1259 19.4198 16.2826 19.4918 16.4552C19.5637 16.6278 19.6007 16.813 19.6007 17C19.6007 17.187 19.5637 17.3722 19.4918 17.5448C19.4198 17.7175 19.3145 17.8742 19.1817 18.0059L12.6933 24.4942C12.5606 24.6259 12.4552 24.7826 12.3832 24.9552C12.3113 25.1278 12.2743 25.313 12.2743 25.5C12.2743 25.687 12.3113 25.8722 12.3832 26.0448C12.4552 26.2175 12.5606 26.3742 12.6933 26.5059C12.9588 26.7697 13.3178 26.9178 13.6921 26.9178C14.0664 26.9178 14.4254 26.7697 14.6908 26.5059L21.1933 20.0034C21.9892 19.2065 22.4363 18.1263 22.4363 17C22.4363 15.8738 21.9892 14.7936 21.1933 13.9967L14.6908 7.49419C14.4254 7.23034 14.0664 7.08223 13.6921 7.08223C13.3178 7.08223 12.9588 7.23034 12.6933 7.49419Z" fill="#1F2B32"/>
</g>
<defs>
<clipPath id="clip0_3_17747">
<rect y="34" width="34" height="34" rx="4" transform="rotate(-90 0 34)" fill="white"/>
</clipPath>
</defs>
</svg>
