<svg width="19" height="19" viewBox="0 0 19 19" fill="none" xmlns="http://www.w3.org/2000/svg">
<g clip-path="url(#clip0_52_1703)">
<path d="M7.45808 4.28247C7.38615 4.35381 7.32906 4.43868 7.2901 4.5322C7.25114 4.62571 7.23108 4.72602 7.23108 4.82733C7.23108 4.92863 7.25114 5.02894 7.2901 5.12245C7.32906 5.21597 7.38615 5.30084 7.45808 5.37218L10.9728 8.8869C11.0447 8.95824 11.1018 9.04311 11.1408 9.13663C11.1797 9.23015 11.1998 9.33045 11.1998 9.43176C11.1998 9.53306 11.1797 9.63337 11.1408 9.72688C11.1018 9.8204 11.0447 9.90527 10.9728 9.97661L7.45808 13.4913C7.38615 13.5627 7.32906 13.6475 7.2901 13.7411C7.25114 13.8346 7.23108 13.9349 7.23108 14.0362C7.23108 14.1375 7.25114 14.2378 7.2901 14.3313C7.32906 14.4248 7.38615 14.5097 7.45808 14.581C7.60186 14.724 7.79636 14.8042 7.9991 14.8042C8.20183 14.8042 8.39633 14.724 8.54012 14.581L12.0625 11.0587C12.4936 10.627 12.7358 10.0418 12.7358 9.43176C12.7358 8.82167 12.4936 8.23652 12.0625 7.80486L8.54012 4.28247C8.39633 4.13954 8.20183 4.05931 7.9991 4.05931C7.79636 4.05931 7.60186 4.13954 7.45808 4.28247Z" fill="#787878"/>
</g>
<defs>
<clipPath id="clip0_52_1703">
<rect width="18.4177" height="18.4177" fill="white" transform="matrix(0 -1 1 0 0.582031 18.6406)"/>
</clipPath>
</defs>
</svg>
