<svg width="19" height="19" viewBox="0 0 19 19" fill="none" xmlns="http://www.w3.org/2000/svg">
<g clip-path="url(#clip0_2462_8123)">
<path d="M11.542 4.64184C11.6139 4.71318 11.671 4.79806 11.71 4.89157C11.7489 4.98509 11.769 5.08539 11.769 5.1867C11.769 5.28801 11.7489 5.38831 11.71 5.48183C11.671 5.57534 11.6139 5.66022 11.542 5.73156L8.02726 9.24627C7.95533 9.31761 7.89824 9.40249 7.85928 9.496C7.82032 9.58952 7.80026 9.68982 7.80026 9.79113C7.80026 9.89244 7.82032 9.99274 7.85928 10.0863C7.89824 10.1798 7.95533 10.2646 8.02726 10.336L11.542 13.8507C11.6139 13.922 11.671 14.0069 11.71 14.1004C11.7489 14.194 11.769 14.2943 11.769 14.3956C11.769 14.4969 11.7489 14.5972 11.71 14.6907C11.671 14.7842 11.6139 14.8691 11.542 14.9404C11.3982 15.0833 11.2037 15.1636 11.001 15.1636C10.7982 15.1636 10.6037 15.0833 10.4599 14.9404L6.93755 11.418C6.50642 10.9864 6.26426 10.4012 6.26426 9.79113C6.26426 9.18104 6.50642 8.5959 6.93755 8.16423L10.4599 4.64184C10.6037 4.49891 10.7982 4.41869 11.001 4.41869C11.2037 4.41869 11.3982 4.49891 11.542 4.64184Z" fill="#787878"/>
</g>
<defs>
<clipPath id="clip0_2462_8123">
<rect width="18.4177" height="18.4177" fill="white" transform="matrix(0 -1 -1 0 18.418 19)"/>
</clipPath>
</defs>
</svg>
