<svg width="10" height="11" viewBox="0 0 10 11" fill="none" xmlns="http://www.w3.org/2000/svg">
<g clip-path="url(#clip0_20_16197)">
<path d="M3.73336 2.70416C3.6943 2.7429 3.66331 2.78898 3.64215 2.83976C3.621 2.89053 3.61011 2.94499 3.61011 3C3.61011 3.055 3.621 3.10946 3.64215 3.16024C3.66331 3.21101 3.6943 3.25709 3.73336 3.29583L5.64169 5.20416C5.68074 5.2429 5.71174 5.28898 5.73289 5.33976C5.75405 5.39053 5.76494 5.44499 5.76494 5.5C5.76494 5.555 5.75405 5.60946 5.73289 5.66024C5.71174 5.71101 5.68074 5.75709 5.64169 5.79583L3.73336 7.70416C3.6943 7.7429 3.66331 7.78898 3.64215 7.83975C3.621 7.89053 3.61011 7.94499 3.61011 8C3.61011 8.055 3.621 8.10946 3.64215 8.16024C3.66331 8.21101 3.6943 8.25709 3.73336 8.29583C3.81142 8.37343 3.91703 8.41699 4.02711 8.41699C4.13718 8.41699 4.24279 8.37343 4.32086 8.29583L6.23336 6.38333C6.46744 6.14895 6.59892 5.83125 6.59892 5.5C6.59892 5.16874 6.46744 4.85104 6.23336 4.61666L4.32086 2.70416C4.24279 2.62656 4.13718 2.583 4.02711 2.583C3.91703 2.583 3.81142 2.62656 3.73336 2.70416Z" fill="#1F2B32"/>
</g>
<defs>
<clipPath id="clip0_20_16197">
<rect y="10.5" width="10" height="10" rx="4" transform="rotate(-90 0 10.5)" fill="white"/>
</clipPath>
</defs>
</svg>
