<svg width="20" height="20" viewBox="0 0 20 20" fill="none" xmlns="http://www.w3.org/2000/svg">
<g clip-path="url(#clip0_954_4802)">
<path d="M18.75 8.64582H1.25003C0.559679 8.64582 3.05176e-05 9.20547 3.05176e-05 9.89582C3.05176e-05 10.5862 0.559679 11.1458 1.25003 11.1458H18.75C19.4404 11.1458 20 10.5862 20 9.89582C20 9.20547 19.4404 8.64582 18.75 8.64582Z" fill="white"/>
<path d="M1.25003 5.3125H18.75C19.4404 5.3125 20 4.75285 20 4.0625C20 3.37215 19.4404 2.8125 18.75 2.8125H1.25003C0.559679 2.8125 3.05176e-05 3.37215 3.05176e-05 4.0625C3.05176e-05 4.75285 0.559679 5.3125 1.25003 5.3125Z" fill="white"/>
<path d="M18.75 14.4791H1.25003C0.559679 14.4791 3.05176e-05 15.0388 3.05176e-05 15.7291C3.05176e-05 16.4195 0.559679 16.9791 1.25003 16.9791H18.75C19.4404 16.9791 20 16.4195 20 15.7291C20 15.0388 19.4404 14.4791 18.75 14.4791Z" fill="white"/>
</g>
<defs>
<clipPath id="clip0_954_4802">
<rect width="20" height="20" fill="white"/>
</clipPath>
</defs>
</svg>
