<svg width="30" height="30" viewBox="0 0 30 30" fill="none" xmlns="http://www.w3.org/2000/svg">
<g clip-path="url(#clip0_72_7275)">
<path d="M10.1614 18.8438C9.92186 18.6042 9.69686 18.3417 9.49374 18.0646C9.1552 17.6 9.25728 16.9479 9.72291 16.6094C10.1875 16.2709 10.8385 16.3729 11.1781 16.8375C11.3125 17.0229 11.4635 17.2011 11.6333 17.3698C12.4698 18.2063 13.5812 18.6667 14.7635 18.6667C15.9458 18.6667 17.0583 18.2063 17.8937 17.3698L23.6229 11.6406C25.3489 9.91461 25.3489 7.10523 23.6229 5.37919C21.8969 3.65315 19.0875 3.65315 17.3614 5.37919L16.2594 6.48127C15.8521 6.88857 15.1937 6.88857 14.7864 6.48127C14.3792 6.07398 14.3792 5.41565 14.7864 5.00836L15.8885 3.90627C18.4271 1.36669 22.5573 1.36669 25.0958 3.90627C27.6344 6.44482 27.6344 10.575 25.0958 13.1136L19.3667 18.8427C18.1375 20.0729 16.5021 20.75 14.7635 20.75C13.025 20.75 11.3896 20.0729 10.1614 18.8438ZM8.51353 27C10.2531 27 11.8875 26.3229 13.1167 25.0927L14.2187 23.9907C14.626 23.5844 14.626 22.925 14.2187 22.5177C13.8125 22.1104 13.1531 22.1115 12.7458 22.5177L11.6427 23.6198C10.8062 24.4563 9.69478 24.9167 8.51249 24.9167C7.3302 24.9167 6.21874 24.4563 5.38228 23.6198C4.54582 22.7834 4.0854 21.6719 4.0854 20.4896C4.0854 19.3073 4.54582 18.1948 5.38228 17.3594L11.1114 11.6302C11.9479 10.7938 13.0594 10.3334 14.2417 10.3334C15.4239 10.3334 16.5364 10.7938 17.3719 11.6302C17.5385 11.7979 17.6906 11.9761 17.826 12.1615C18.1635 12.6271 18.8146 12.7313 19.2812 12.3917C19.7469 12.0531 19.85 11.4021 19.5114 10.9365C19.3135 10.6636 19.0896 10.4021 18.8458 10.1584C17.6156 8.92711 15.9802 8.25002 14.2417 8.25002C12.5031 8.25002 10.8677 8.92711 9.63853 10.1573L3.9104 15.8865C2.6802 17.1156 2.00311 18.7511 2.00311 20.4896C2.00311 22.2281 2.6802 23.8636 3.9104 25.0927C5.13957 26.3229 6.77395 27 8.51353 27Z" fill="black"/>
</g>
<defs>
<clipPath id="clip0_72_7275">
<rect width="25" height="25" fill="white" transform="translate(2 2)"/>
</clipPath>
</defs>
</svg>
