<svg width="20" height="21" viewBox="0 0 20 21" fill="none" xmlns="http://www.w3.org/2000/svg">
<path d="M15.5917 7.96665C15.5142 7.88855 15.422 7.82655 15.3205 7.78424C15.2189 7.74194 15.11 7.72015 15 7.72015C14.89 7.72015 14.7811 7.74194 14.6795 7.78424C14.578 7.82655 14.4858 7.88855 14.4083 7.96665L10.5917 11.7833C10.5142 11.8614 10.422 11.9234 10.3205 11.9657C10.2189 12.008 10.11 12.0298 10 12.0298C9.89001 12.0298 9.78109 12.008 9.67954 11.9657C9.57799 11.9234 9.48582 11.8614 9.40835 11.7833L8.2146 10.5896C8.13713 10.5115 8.04496 10.4495 7.94342 10.4072C7.84187 10.3649 7.73294 10.3431 7.62293 10.3431C7.51292 10.3431 7.404 10.3649 7.30245 10.4072C7.2009 10.4495 7.10874 10.5115 7.03127 10.5896C6.87606 10.7457 6.78894 10.9569 6.78894 11.1771C6.78894 11.3972 6.87606 11.6084 7.03127 11.7646L8.23335 12.9667C8.7021 13.4348 9.33751 13.6978 10 13.6978C10.6625 13.6978 11.2979 13.4348 11.7667 12.9667L15.5917 9.14165C15.7469 8.98552 15.834 8.77431 15.834 8.55415C15.834 8.334 15.7469 8.12279 15.5917 7.96665Z" fill="#1F2B32"/>
</svg>
