<svg width="8" height="6" viewBox="0 0 8 6" fill="none" xmlns="http://www.w3.org/2000/svg">
<path d="M7.47256 0.973566C7.41058 0.91108 7.33685 0.861484 7.25561 0.827638C7.17437 0.793793 7.08723 0.776367 6.99923 0.776367C6.91122 0.776367 6.82408 0.793793 6.74284 0.827638C6.6616 0.861484 6.58787 0.91108 6.52589 0.973566L3.47256 4.0269C3.41058 4.08939 3.33685 4.13898 3.25561 4.17283C3.17437 4.20667 3.08723 4.2241 2.99923 4.2241C2.91122 4.2241 2.82408 4.20667 2.74284 4.17283C2.6616 4.13898 2.58787 4.08939 2.52589 4.0269L1.47256 2.97357C1.41058 2.91108 1.33685 2.86148 1.25561 2.82764C1.17437 2.79379 1.08723 2.77637 0.999226 2.77637C0.911218 2.77637 0.824081 2.79379 0.742842 2.82764C0.661602 2.86148 0.587868 2.91108 0.525893 2.97357C0.401726 3.09847 0.332031 3.26744 0.332031 3.44357C0.332031 3.61969 0.401726 3.78866 0.525893 3.91357L1.58589 4.97357C1.96089 5.3481 2.46922 5.55847 2.99923 5.55847C3.52923 5.55847 4.03756 5.3481 4.41256 4.97357L7.47256 1.91357C7.59673 1.78866 7.66642 1.61969 7.66642 1.44357C7.66642 1.26744 7.59673 1.09847 7.47256 0.973566Z" fill="#1f2b32"/>
</svg>
