<svg width="25" height="25" viewBox="0 0 25 25" fill="none" xmlns="http://www.w3.org/2000/svg">
<rect x="0.5" y="0.446289" width="24" height="24" rx="7" fill="#F57F00"/>
<path d="M19.21 9.40627C19.117 9.31254 19.0064 9.23815 18.8846 9.18738C18.7627 9.13661 18.632 9.11047 18.5 9.11047C18.368 9.11047 18.2373 9.13661 18.1154 9.18738C17.9935 9.23815 17.8829 9.31254 17.79 9.40627L13.21 13.9863C13.117 14.08 13.0064 14.1544 12.8846 14.2052C12.7627 14.2559 12.632 14.2821 12.5 14.2821C12.368 14.2821 12.2373 14.2559 12.1154 14.2052C11.9936 14.1544 11.883 14.08 11.79 13.9863L10.3575 12.5538C10.2645 12.4601 10.1539 12.3857 10.0321 12.3349C9.91021 12.2841 9.7795 12.258 9.64749 12.258C9.51548 12.258 9.38477 12.2841 9.26291 12.3349C9.14105 12.3857 9.03045 12.4601 8.93749 12.5538C8.75124 12.7412 8.6467 12.9946 8.6467 13.2588C8.6467 13.523 8.75124 13.7764 8.93749 13.9638L10.38 15.4063C10.9425 15.9681 11.705 16.2836 12.5 16.2836C13.295 16.2836 14.0575 15.9681 14.62 15.4063L19.21 10.8163C19.3962 10.6289 19.5008 10.3755 19.5008 10.1113C19.5008 9.84709 19.3962 9.59363 19.21 9.40627Z" fill="white"/>
</svg>
