<svg width="11" height="8" viewBox="0 0 11 8" fill="none" xmlns="http://www.w3.org/2000/svg">
<path d="M10.71 0.959983C10.6171 0.866254 10.5065 0.79186 10.3846 0.741091C10.2627 0.690323 10.132 0.664185 10 0.664185C9.868 0.664185 9.7373 0.690323 9.61544 0.741091C9.49358 0.79186 9.38298 0.866254 9.29002 0.959983L4.71002 5.53998C4.61706 5.63371 4.50645 5.70811 4.3846 5.75887C4.26274 5.80964 4.13203 5.83578 4.00002 5.83578C3.86801 5.83578 3.7373 5.80964 3.61544 5.75887C3.49358 5.70811 3.38298 5.63371 3.29002 5.53998L1.85752 4.1075C1.76456 4.01377 1.65396 3.93938 1.5321 3.88861C1.41024 3.83784 1.27953 3.8117 1.14752 3.8117C1.01551 3.8117 0.884803 3.83784 0.762944 3.88861C0.641085 3.93938 0.530484 4.01377 0.437521 4.1075C0.25127 4.29486 0.146729 4.54831 0.146729 4.8125C0.146729 5.07668 0.25127 5.33014 0.437521 5.5175L1.88002 6.95998C2.44252 7.52178 3.20502 7.83734 4.00002 7.83734C4.79502 7.83734 5.55751 7.52178 6.12002 6.95998L10.71 2.36998C10.8963 2.18262 11.0008 1.92917 11.0008 1.66498C11.0008 1.4008 10.8963 1.14735 10.71 0.959983Z" fill="white"/>
</svg>
