<svg width="12" height="8" viewBox="0 0 12 8" fill="none" xmlns="http://www.w3.org/2000/svg">
<path d="M11.21 0.406394C11.1171 0.312666 11.0065 0.238271 10.8846 0.187502C10.7627 0.136734 10.632 0.110596 10.5 0.110596C10.368 0.110596 10.2373 0.136734 10.1154 0.187502C9.99358 0.238271 9.88298 0.312666 9.79002 0.406394L5.21002 4.98639C5.11706 5.08012 5.00645 5.15452 4.8846 5.20529C4.76274 5.25605 4.63203 5.28219 4.50002 5.28219C4.36801 5.28219 4.2373 5.25605 4.11544 5.20529C3.99358 5.15452 3.88298 5.08012 3.79002 4.98639L2.35752 3.55391C2.26456 3.46018 2.15396 3.38579 2.0321 3.33502C1.91024 3.28425 1.77953 3.25811 1.64752 3.25811C1.51551 3.25811 1.3848 3.28425 1.26294 3.33502C1.14108 3.38579 1.03048 3.46018 0.937521 3.55391C0.75127 3.74127 0.646729 3.99472 0.646729 4.25891C0.646729 4.5231 0.75127 4.77655 0.937521 4.96391L2.38002 6.40639C2.94252 6.9682 3.70502 7.28375 4.50002 7.28375C5.29502 7.28375 6.05751 6.9682 6.62002 6.40639L11.21 1.81639C11.3963 1.62903 11.5008 1.37558 11.5008 1.11139C11.5008 0.847208 11.3963 0.593756 11.21 0.406394Z" fill="white"/>
</svg>
