<svg width="20" height="20" viewBox="0 0 20 20" fill="none" xmlns="http://www.w3.org/2000/svg">
<path d="M15.5917 7.46671C15.5142 7.38861 15.422 7.32661 15.3205 7.2843C15.2189 7.242 15.11 7.22021 15 7.22021C14.89 7.22021 14.7811 7.242 14.6795 7.2843C14.578 7.32661 14.4858 7.38861 14.4083 7.46671L10.5917 11.2834C10.5142 11.3615 10.422 11.4235 10.3205 11.4658C10.2189 11.5081 10.11 11.5299 9.99999 11.5299C9.88998 11.5299 9.78106 11.5081 9.67951 11.4658C9.57796 11.4235 9.48579 11.3615 9.40832 11.2834L8.21457 10.0896C8.1371 10.0115 8.04493 9.94954 7.94338 9.90723C7.84184 9.86493 7.73291 9.84314 7.6229 9.84314C7.51289 9.84314 7.40397 9.86493 7.30242 9.90723C7.20087 9.94954 7.10871 10.0115 7.03124 10.0896C6.87603 10.2458 6.78891 10.457 6.78891 10.6771C6.78891 10.8973 6.87603 11.1085 7.03124 11.2646L8.23332 12.4667C8.70207 12.9349 9.33748 13.1978 9.99999 13.1978C10.6625 13.1978 11.2979 12.9349 11.7666 12.4667L15.5917 8.64171C15.7469 8.48558 15.834 8.27437 15.834 8.05421C15.834 7.83406 15.7469 7.62285 15.5917 7.46671Z" fill="#2AA036"/>
</svg>
