<svg width="22" height="22" viewBox="0 0 22 22" fill="none" xmlns="http://www.w3.org/2000/svg">
<path d="M17.1512 4.85338C17.066 4.76746 16.9646 4.69926 16.8529 4.65272C16.7412 4.60618 16.6213 4.58221 16.5003 4.58221C16.3793 4.58221 16.2595 4.60618 16.1478 4.65272C16.0361 4.69926 15.9347 4.76746 15.8494 4.85338L11.6508 9.05199C11.5656 9.13791 11.4642 9.20611 11.3525 9.25265C11.2408 9.29919 11.121 9.32315 11 9.32315C10.8789 9.32315 10.7591 9.29919 10.6474 9.25265C10.5357 9.20611 10.4343 9.13791 10.3491 9.05199L6.15048 4.85338C6.06526 4.76746 5.96387 4.69926 5.85216 4.65272C5.74045 4.60618 5.62063 4.58221 5.49961 4.58221C5.37859 4.58221 5.25877 4.60618 5.14705 4.65272C5.03534 4.69926 4.93395 4.76746 4.84873 4.85338C4.67799 5.02514 4.58215 5.25749 4.58215 5.49967C4.58215 5.74186 4.67799 5.9742 4.84873 6.14596L9.05651 10.3537C9.57216 10.8688 10.2712 11.158 11 11.158C11.7288 11.158 12.4278 10.8688 12.9434 10.3537L17.1512 6.14596C17.3219 5.9742 17.4178 5.74186 17.4178 5.49967C17.4178 5.25749 17.3219 5.02514 17.1512 4.85338Z" fill="white"/>
<path d="M17.1512 17.1467C17.066 17.2326 16.9646 17.3008 16.8529 17.3473C16.7412 17.3939 16.6213 17.4178 16.5003 17.4178C16.3793 17.4178 16.2595 17.3939 16.1478 17.3473C16.0361 17.3008 15.9347 17.2326 15.8494 17.1467L11.6508 12.948C11.5656 12.8621 11.4642 12.7939 11.3525 12.7474C11.2408 12.7008 11.121 12.6769 11 12.6769C10.8789 12.6769 10.7591 12.7008 10.6474 12.7474C10.5357 12.7939 10.4343 12.8621 10.3491 12.948L6.15048 17.1467C6.06526 17.2326 5.96387 17.3008 5.85216 17.3473C5.74045 17.3939 5.62063 17.4178 5.49961 17.4178C5.37859 17.4178 5.25877 17.3939 5.14705 17.3473C5.03534 17.3008 4.93395 17.2326 4.84873 17.1467C4.67799 16.9749 4.58215 16.7425 4.58215 16.5004C4.58215 16.2582 4.67799 16.0258 4.84873 15.8541L9.05651 11.6463C9.57216 11.1313 10.2712 10.842 11 10.842C11.7288 10.842 12.4278 11.1313 12.9434 11.6463L17.1512 15.8541C17.3219 16.0258 17.4178 16.2582 17.4178 16.5004C17.4178 16.7425 17.3219 16.9749 17.1512 17.1467Z" fill="white"/>
<path d="M4.85332 4.8488C4.7674 4.93402 4.6992 5.03541 4.65266 5.14712C4.60611 5.25883 4.58215 5.37865 4.58215 5.49967C4.58215 5.62069 4.60611 5.74051 4.65266 5.85222C4.6992 5.96393 4.7674 6.06532 4.85332 6.15055L9.05193 10.3492C9.13785 10.4344 9.20605 10.5358 9.25259 10.6475C9.29913 10.7592 9.32309 10.879 9.32309 11C9.32309 11.121 9.29913 11.2409 9.25259 11.3526C9.20605 11.4643 9.13785 11.5657 9.05193 11.6509L4.85332 15.8495C4.7674 15.9347 4.6992 16.0361 4.65266 16.1478C4.60611 16.2595 4.58215 16.3793 4.58215 16.5004C4.58215 16.6214 4.60611 16.7412 4.65266 16.8529C4.6992 16.9647 4.7674 17.066 4.85332 17.1513C5.02508 17.322 5.25742 17.4178 5.49961 17.4178C5.74179 17.4178 5.97414 17.322 6.1459 17.1513L10.3537 12.9435C10.8687 12.4278 11.158 11.7288 11.158 11C11.158 10.2712 10.8687 9.57223 10.3537 9.05657L6.1459 4.8488C5.97414 4.67805 5.74179 4.58221 5.49961 4.58221C5.25742 4.58221 5.02508 4.67805 4.85332 4.8488Z" fill="white"/>
<path d="M17.1467 4.84877C17.2326 4.934 17.3008 5.03539 17.3474 5.1471C17.3939 5.25881 17.4178 5.37865 17.4178 5.49967C17.4178 5.62069 17.3939 5.74049 17.3474 5.8522C17.3008 5.96391 17.2326 6.0653 17.1467 6.15052L12.9481 10.3491C12.8622 10.4344 12.794 10.5357 12.7474 10.6475C12.7009 10.7592 12.6769 10.879 12.6769 11C12.6769 11.121 12.7009 11.2408 12.7474 11.3526C12.794 11.4643 12.8622 11.5657 12.9481 11.6509L17.1467 15.8495C17.2326 15.9347 17.3008 16.0361 17.3474 16.1478C17.3939 16.2595 17.4178 16.3793 17.4178 16.5004C17.4178 16.6214 17.3939 16.7412 17.3474 16.8529C17.3008 16.9646 17.2326 17.066 17.1467 17.1512C16.975 17.322 16.7425 17.4178 16.5003 17.4178C16.2581 17.4178 16.0259 17.322 15.8541 17.1512L11.6464 12.9435C11.1313 12.4278 10.8421 11.7288 10.8421 11C10.8421 10.2712 11.1313 9.57221 11.6464 9.05655L15.8541 4.84877C16.0259 4.67803 16.2581 4.58221 16.5003 4.58221C16.7425 4.58221 16.975 4.67803 17.1467 4.84877Z" fill="white"/>
</svg>
