<svg width="41" height="40" viewBox="0 0 41 40" fill="none" xmlns="http://www.w3.org/2000/svg">
<path fill-rule="evenodd" clip-rule="evenodd" d="M12.1333 24.4641C13.2003 24.4641 14.0653 23.5991 14.0653 22.532C14.0653 21.465 13.2003 20.6 12.1333 20.6C11.0663 20.6 10.2013 21.465 10.2013 22.532C10.2013 23.5991 11.0663 24.4641 12.1333 24.4641ZM12.1333 25.8441C13.9625 25.8441 15.4454 24.3612 15.4454 22.532C15.4454 20.7028 13.9625 19.22 12.1333 19.22C10.3041 19.22 8.82126 20.7028 8.82126 22.532C8.82126 24.3612 10.3041 25.8441 12.1333 25.8441Z" fill="#1F2B32"/>
<path fill-rule="evenodd" clip-rule="evenodd" d="M28.1415 24.4641C29.2085 24.4641 30.0735 23.5991 30.0735 22.532C30.0735 21.465 29.2085 20.6 28.1415 20.6C27.0745 20.6 26.2095 21.465 26.2095 22.532C26.2095 23.5991 27.0745 24.4641 28.1415 24.4641ZM28.1415 25.8441C29.9707 25.8441 31.4536 24.3612 31.4536 22.532C31.4536 20.7028 29.9707 19.22 28.1415 19.22C26.3123 19.22 24.8295 20.7028 24.8295 22.532C24.8295 24.3612 26.3123 25.8441 28.1415 25.8441Z" fill="#1F2B32"/>
<path fill-rule="evenodd" clip-rule="evenodd" d="M12.5906 9.97378C12.4808 9.97378 12.3755 10.0174 12.2979 10.095L10.2018 12.1911C10.1319 12.261 10.0564 12.325 9.97598 12.3824L6.6486 14.7591C6.5398 14.8368 6.47523 14.9623 6.47523 15.096V21.428C6.47523 21.6566 6.66059 21.842 6.88924 21.842H9.64928C10.0304 21.842 10.3393 22.1509 10.3393 22.532C10.3393 22.9131 10.0304 23.222 9.64928 23.222H6.88924C5.89843 23.222 5.09521 22.4188 5.09521 21.428V15.096C5.09521 14.5166 5.37502 13.9729 5.84648 13.6361L9.17386 11.2594C9.19242 11.2462 9.20985 11.2314 9.22597 11.2153L11.322 9.11921C11.6585 8.78276 12.1148 8.59375 12.5906 8.59375H23.2847C23.7445 8.59375 24.1869 8.77036 24.5203 9.08711L29.596 13.9091L33.5897 15.0185C34.3662 15.2341 34.9036 15.9411 34.9036 16.747V21.428C34.9036 22.4188 34.1004 23.222 33.1096 23.222H31.1776C30.7965 23.222 30.4876 22.9131 30.4876 22.532C30.4876 22.1509 30.7965 21.842 31.1776 21.842H33.1096C33.3382 21.842 33.5236 21.6566 33.5236 21.428V16.747C33.5236 16.5611 33.3996 16.3979 33.2204 16.3481L29.1515 15.2179H24.0015C23.0107 15.2179 22.2074 14.4147 22.2074 13.4238V11.7678C22.2074 11.3867 22.5164 11.0778 22.8975 11.0778C23.2785 11.0778 23.5875 11.3867 23.5875 11.7678V13.4238C23.5875 13.6525 23.7728 13.8379 24.0015 13.8379H27.5174L23.5698 10.0876C23.4929 10.0145 23.3908 9.97378 23.2847 9.97378H12.5906ZM12.5473 14.5279C12.5473 14.1468 12.8562 13.8379 13.2373 13.8379H18.4814C18.8625 13.8379 19.1714 14.1468 19.1714 14.5279C19.1714 14.9089 18.8625 15.2179 18.4814 15.2179H13.2373C12.8562 15.2179 12.5473 14.9089 12.5473 14.5279ZM13.9273 22.532C13.9273 22.1509 14.2363 21.842 14.6173 21.842H25.3815C25.7626 21.842 26.0715 22.1509 26.0715 22.532C26.0715 22.9131 25.7626 23.222 25.3815 23.222H14.6173C14.2363 23.222 13.9273 22.9131 13.9273 22.532Z" fill="#1F2B32"/>
</svg>
