<svg width="41" height="40" viewBox="0 0 41 40" fill="none" xmlns="http://www.w3.org/2000/svg">
<g clip-path="url(#clip0_51_6123)">
<path fill-rule="evenodd" clip-rule="evenodd" d="M0.375 9.53125C0.375 9.09978 0.724778 8.75 1.15625 8.75H8.65625C9.08772 8.75 9.4375 9.09978 9.4375 9.53125C9.4375 9.96272 9.08772 10.3125 8.65625 10.3125H1.15625C0.724778 10.3125 0.375 9.96272 0.375 9.53125Z" fill="black"/>
<path fill-rule="evenodd" clip-rule="evenodd" d="M0.375 13.2812C0.375 12.8498 0.724778 12.5 1.15625 12.5H8.65625C9.08772 12.5 9.4375 12.8498 9.4375 13.2812C9.4375 13.7127 9.08772 14.0625 8.65625 14.0625H1.15625C0.724778 14.0625 0.375 13.7127 0.375 13.2812Z" fill="black"/>
<path fill-rule="evenodd" clip-rule="evenodd" d="M0.375 17.0312C0.375 16.5998 0.724778 16.25 1.15625 16.25H8.65625C9.08772 16.25 9.4375 16.5998 9.4375 17.0312C9.4375 17.4627 9.08772 17.8125 8.65625 17.8125H1.15625C0.724778 17.8125 0.375 17.4627 0.375 17.0312Z" fill="black"/>
<path fill-rule="evenodd" clip-rule="evenodd" d="M4.90625 6.5625C4.64737 6.5625 4.4375 6.77237 4.4375 7.03125V9.53125H2.875V7.03125C2.875 5.90942 3.78442 5 4.90625 5H26.1562C27.2781 5 28.1875 5.90942 28.1875 7.03125V7.1875H35.0195C35.8321 7.1875 36.5664 7.67174 36.8865 8.4186L39.2733 13.9877C39.3816 14.2405 39.4375 14.5127 39.4375 14.7878V22.0312C39.4375 23.1531 38.5281 24.0625 37.4062 24.0625H34.9062V22.5H37.4062C37.6651 22.5 37.875 22.2901 37.875 22.0312V16.5625H32.4062C31.2844 16.5625 30.375 15.6531 30.375 14.5312V8.75H28.1875V22.5H29.9062V24.0625H13.6562V22.5H26.625V7.03125C26.625 6.77237 26.4151 6.5625 26.1562 6.5625H4.90625ZM31.9375 8.75V14.5312C31.9375 14.7901 32.1474 15 32.4062 15H37.875V14.7878C37.875 14.7243 37.8621 14.6615 37.8371 14.6032L35.4504 9.0341C35.3765 8.86175 35.207 8.75 35.0195 8.75H31.9375ZM4.4375 17.3438V22.0312C4.4375 22.2901 4.64737 22.5 4.90625 22.5H8.65625V24.0625H4.90625C3.78442 24.0625 2.875 23.1531 2.875 22.0312V17.3438H4.4375Z" fill="black"/>
<path fill-rule="evenodd" clip-rule="evenodd" d="M11.1562 25.4688C12.3644 25.4688 13.3438 24.4894 13.3438 23.2812C13.3438 22.0731 12.3644 21.0938 11.1562 21.0938C9.94813 21.0938 8.96875 22.0731 8.96875 23.2812C8.96875 24.4894 9.94813 25.4688 11.1562 25.4688ZM11.1562 27.0312C13.2273 27.0312 14.9062 25.3523 14.9062 23.2812C14.9062 21.2102 13.2273 19.5312 11.1562 19.5312C9.08518 19.5312 7.40625 21.2102 7.40625 23.2812C7.40625 25.3523 9.08518 27.0312 11.1562 27.0312Z" fill="black"/>
<path fill-rule="evenodd" clip-rule="evenodd" d="M32.4062 25.4688C33.6144 25.4688 34.5938 24.4894 34.5938 23.2812C34.5938 22.0731 33.6144 21.0938 32.4062 21.0938C31.1981 21.0938 30.2188 22.0731 30.2188 23.2812C30.2188 24.4894 31.1981 25.4688 32.4062 25.4688ZM32.4062 27.0312C34.4773 27.0312 36.1562 25.3523 36.1562 23.2812C36.1562 21.2102 34.4773 19.5312 32.4062 19.5312C30.3352 19.5312 28.6562 21.2102 28.6562 23.2812C28.6562 25.3523 30.3352 27.0312 32.4062 27.0312Z" fill="black"/>
</g>
<defs>
<clipPath id="clip0_51_6123">
<rect width="40" height="40" fill="white" transform="translate(0.375)"/>
</clipPath>
</defs>
</svg>
