<svg width="41" height="40" viewBox="0 0 41 40" fill="none" xmlns="http://www.w3.org/2000/svg">
<path fill-rule="evenodd" clip-rule="evenodd" d="M6.5 9.84375C6.5 9.41228 6.84978 9.0625 7.28125 9.0625H15.7188C16.1502 9.0625 16.5 9.41228 16.5 9.84375C16.5 10.2752 16.1502 10.625 15.7188 10.625H7.28125C6.84978 10.625 6.5 10.2752 6.5 9.84375Z" fill="black"/>
<path fill-rule="evenodd" clip-rule="evenodd" d="M6.65625 5.9375C6.65625 5.50603 7.00603 5.15625 7.4375 5.15625H23.6875C24.8093 5.15625 25.7188 6.06567 25.7188 7.1875V7.34375H29.1465C29.9314 7.34375 30.6461 7.79604 30.9822 8.50545L33.4193 13.6506L35.2909 16.0568C35.5682 16.4134 35.7188 16.8522 35.7188 17.3039V21.875C35.7188 22.9968 34.8093 23.9062 33.6875 23.9062H31.1875C30.756 23.9062 30.4062 23.5565 30.4062 23.125C30.4062 22.6935 30.756 22.3438 31.1875 22.3438H33.6875C33.9464 22.3438 34.1562 22.1339 34.1562 21.875V17.3039C34.1562 17.1996 34.1215 17.0984 34.0575 17.0161L32.3679 14.8438H26.1875C25.0657 14.8438 24.1562 13.9343 24.1562 12.8125V7.1875C24.1562 6.92862 23.9464 6.71875 23.6875 6.71875H7.4375C7.00603 6.71875 6.65625 6.36897 6.65625 5.9375ZM31.5155 13.2812L29.5701 9.17433C29.4925 9.01062 29.3276 8.90625 29.1465 8.90625H25.7188V12.8125C25.7188 13.0714 25.9286 13.2812 26.1875 13.2812H31.5155ZM7.28125 23.125C7.28125 22.6935 7.63103 22.3438 8.0625 22.3438H11.8125C12.244 22.3438 12.5938 22.6935 12.5938 23.125C12.5938 23.5565 12.244 23.9062 11.8125 23.9062H8.0625C7.63103 23.9062 7.28125 23.5565 7.28125 23.125ZM17.9062 23.125C17.9062 22.6935 18.256 22.3438 18.6875 22.3438H24.3125C24.744 22.3438 25.0938 22.6935 25.0938 23.125C25.0938 23.5565 24.744 23.9062 24.3125 23.9062H18.6875C18.256 23.9062 17.9062 23.5565 17.9062 23.125Z" fill="black"/>
<path fill-rule="evenodd" clip-rule="evenodd" d="M15.25 25.3125C16.4581 25.3125 17.4375 24.3331 17.4375 23.125C17.4375 21.9169 16.4581 20.9375 15.25 20.9375C14.0419 20.9375 13.0625 21.9169 13.0625 23.125C13.0625 24.3331 14.0419 25.3125 15.25 25.3125ZM15.25 26.875C17.3211 26.875 19 25.1961 19 23.125C19 21.0539 17.3211 19.375 15.25 19.375C13.1789 19.375 11.5 21.0539 11.5 23.125C11.5 25.1961 13.1789 26.875 15.25 26.875Z" fill="black"/>
<path fill-rule="evenodd" clip-rule="evenodd" d="M27.75 25.3125C28.9581 25.3125 29.9375 24.3331 29.9375 23.125C29.9375 21.9169 28.9581 20.9375 27.75 20.9375C26.5419 20.9375 25.5625 21.9169 25.5625 23.125C25.5625 24.3331 26.5419 25.3125 27.75 25.3125ZM27.75 26.875C29.8211 26.875 31.5 25.1961 31.5 23.125C31.5 21.0539 29.8211 19.375 27.75 19.375C25.6789 19.375 24 21.0539 24 23.125C24 25.1961 25.6789 26.875 27.75 26.875Z" fill="black"/>
<path fill-rule="evenodd" clip-rule="evenodd" d="M4.625 14.2188C4.625 13.7873 4.97478 13.4375 5.40625 13.4375H13.8438C14.2752 13.4375 14.625 13.7873 14.625 14.2188C14.625 14.6502 14.2752 15 13.8438 15H5.40625C4.97478 15 4.625 14.6502 4.625 14.2188Z" fill="black"/>
<path fill-rule="evenodd" clip-rule="evenodd" d="M6.5 17.9688C6.5 17.5373 6.84978 17.1875 7.28125 17.1875H11.9688C12.4002 17.1875 12.75 17.5373 12.75 17.9688C12.75 18.4002 12.4002 18.75 11.9688 18.75H7.28125C6.84978 18.75 6.5 18.4002 6.5 17.9688Z" fill="black"/>
</svg>
