<svg width="59" height="55" viewBox="0 0 59 55" fill="none" xmlns="http://www.w3.org/2000/svg">
<g clip-path="url(#clip0_41_13284)">
<path d="M47.8453 21.6921L46.0016 23.5358L47.0156 25.9327C47.4766 26.9468 46.9234 28.1452 45.9094 28.6062L43.5125 29.6202V32.2015C43.5125 33.3077 42.5906 34.2296 41.4844 34.2296H38.9031L37.889 36.6265C37.4281 37.6405 36.2297 38.1936 35.2156 37.7327H35.0312L32.7265 36.8108L30.8828 38.6546C30.6984 38.839 30.4219 39.0233 30.1453 39.1155H28.8547C28.5781 39.0233 28.2094 38.839 28.025 38.6546L26.1812 36.8108L23.8765 37.7327L23.6922 37.8249C22.6781 38.2858 21.4797 37.7327 21.0187 36.7187L20.0047 34.3218H17.5156C16.4094 34.3218 15.4875 33.3999 15.4875 32.2937V29.7124L13.0906 28.6983C12.0765 28.2374 11.5234 27.039 11.9844 26.0249L12.9984 23.628L11.1547 21.7843C10.325 20.9546 10.325 19.664 11.1547 18.9265L12.9984 17.0827L11.9844 14.5015C11.5234 13.4874 12.0765 12.289 13.0906 11.828L15.4875 10.814V8.23272C15.4875 7.12647 16.4094 6.20459 17.5156 6.20459H20.0969L21.1109 3.80772C21.5719 2.79365 22.7703 2.24053 23.7844 2.70146L26.1812 3.71553L28.025 1.87178C28.8547 1.04209 30.1453 1.04209 30.8828 1.87178L32.7265 3.71553L35.1234 2.70146C36.1375 2.24053 37.3359 2.79365 37.7969 3.80772L38.8109 6.20459H41.4844C42.5906 6.20459 43.5125 7.12647 43.5125 8.23272V10.9062L45.9094 11.9202C46.9234 12.3812 47.4766 13.5796 47.0156 14.5937L46.0016 16.9905L47.8453 18.8343C48.675 19.5718 48.675 20.8624 47.8453 21.6921Z" stroke="black" stroke-miterlimit="10" stroke-linecap="round" stroke-linejoin="round"/>
<path d="M28.8547 39.1155L21.2031 53.7733L19.5437 45.753L11.1547 48.5187L18.6219 34.3218H20.0968L21.1109 36.7187C21.5718 37.7327 22.7703 38.2858 23.7843 37.8249L23.9687 37.7327L26.2734 36.8108L28.1172 38.6546C28.3015 38.839 28.5781 39.0233 28.8547 39.1155Z" stroke="black" stroke-miterlimit="10" stroke-linecap="round" stroke-linejoin="round"/>
<path d="M48.0297 48.4264L39.6406 45.6607L37.9813 53.6811L30.1453 39.0232C30.4219 38.9311 30.6063 38.7467 30.8828 38.5623L32.7266 36.7186L35.0313 37.6404L35.2156 37.7326C36.2297 38.1936 37.4281 37.6404 37.8891 36.6264L38.9031 34.2295H40.5625L48.0297 48.4264Z" stroke="black" stroke-miterlimit="10" stroke-linecap="round" stroke-linejoin="round"/>
<path d="M52.5469 15.1466L56.6031 12.9341" stroke="black" stroke-miterlimit="10" stroke-linecap="round" stroke-linejoin="round"/>
<path d="M52.5469 19.9404H58.3547" stroke="black" stroke-miterlimit="10" stroke-linecap="round" stroke-linejoin="round"/>
<path d="M52.5469 24.8262L56.6031 27.0387" stroke="black" stroke-miterlimit="10" stroke-linecap="round" stroke-linejoin="round"/>
<path d="M6.4531 24.8262L2.39685 27.0387" stroke="black" stroke-miterlimit="10" stroke-linecap="round" stroke-linejoin="round"/>
<path d="M6.45311 19.9404H0.737488" stroke="black" stroke-miterlimit="10" stroke-linecap="round" stroke-linejoin="round"/>
<path d="M6.4531 15.1466L2.39685 12.9341" stroke="black" stroke-miterlimit="10" stroke-linecap="round" stroke-linejoin="round"/>
<path d="M23.9688 20.8623L27.1953 24.0889L35.0312 16.2529" stroke="black" stroke-miterlimit="10" stroke-linecap="round" stroke-linejoin="round"/>
<path d="M29.5 32.2017C36.1188 32.2017 41.4844 26.8361 41.4844 20.2173C41.4844 13.5985 36.1188 8.23291 29.5 8.23291C22.8812 8.23291 17.5156 13.5985 17.5156 20.2173C17.5156 26.8361 22.8812 32.2017 29.5 32.2017Z" stroke="black" stroke-miterlimit="10" stroke-linecap="round" stroke-linejoin="round"/>
</g>
<defs>
<clipPath id="clip0_41_13284">
<rect width="59" height="55" fill="white"/>
</clipPath>
</defs>
</svg>
