<svg width="13" height="15" viewBox="0 0 13 15" fill="none" xmlns="http://www.w3.org/2000/svg">
<g clip-path="url(#clip0_20_16193)">
<path d="M10.2917 14.4997H2.70833C1.21496 14.4997 0 13.1913 0 11.583V6.17203C0 5.20078 0.446333 4.29661 1.19383 3.75411L4.98496 0.998445C5.90525 0.329945 7.09475 0.329945 8.01504 0.998445L11.8067 3.75411C12.5537 4.29661 13 5.2002 13 6.17203V11.583C13 13.1913 11.785 14.4997 10.2917 14.4997ZM6.5 1.66461C6.18367 1.66461 5.86733 1.76495 5.59108 1.9662L1.79942 4.72128C1.35092 5.04678 1.08333 5.5887 1.08333 6.17145V11.5824C1.08333 12.5473 1.81242 13.3324 2.70833 13.3324H10.2917C11.1876 13.3324 11.9167 12.5473 11.9167 11.5824V6.17203C11.9167 5.58928 11.6491 5.04678 11.2011 4.72186L7.40892 1.9662C7.13267 1.76495 6.81633 1.66461 6.5 1.66461Z" fill="black"/>
</g>
<defs>
<clipPath id="clip0_20_16193">
<rect width="13" height="15" fill="white"/>
</clipPath>
</defs>
</svg>
