<svg width="207" height="52" viewBox="0 0 207 52" fill="none" xmlns="http://www.w3.org/2000/svg">
<path d="M7.925 18.15C9.69167 18.15 11.275 18.5417 12.675 19.325C14.075 20.0917 15.1667 21.1667 15.95 22.55C16.75 23.9333 17.15 25.5 17.15 27.25C17.15 29 16.75 30.5667 15.95 31.95C15.1667 33.3333 14.075 34.4167 12.675 35.2C11.275 35.9667 9.69167 36.35 7.925 36.35C6.30833 36.35 4.85 36.0667 3.55 35.5C2.26667 34.9333 1.2 34.1167 0.35 33.05L3.475 30.2C4.64167 31.5667 6.04167 32.25 7.675 32.25C8.725 32.25 9.61667 31.9667 10.35 31.4C11.1 30.8167 11.6167 30.0167 11.9 29H5.575V25.35H11.85C11.5667 24.3833 11.0583 23.625 10.325 23.075C9.59167 22.525 8.70833 22.25 7.675 22.25C6.04167 22.25 4.64167 22.9333 3.475 24.3L0.35 21.45C1.2 20.3833 2.26667 19.5667 3.55 19C4.85 18.4333 6.30833 18.15 7.925 18.15Z" fill="#F57F00"/>
<path d="M30.3193 18.5C31.9027 18.5 33.2777 18.7667 34.4443 19.3C35.611 19.8167 36.511 20.5667 37.1443 21.55C37.7777 22.5167 38.0943 23.6583 38.0943 24.975C38.0943 26.2917 37.7777 27.4333 37.1443 28.4C36.511 29.3667 35.611 30.1167 34.4443 30.65C33.2777 31.1667 31.9027 31.425 30.3193 31.425H27.2693V36H22.3193V18.5H30.3193ZM30.0193 27.525C31.036 27.525 31.8027 27.3083 32.3193 26.875C32.836 26.425 33.0943 25.7917 33.0943 24.975C33.0943 24.1583 32.836 23.525 32.3193 23.075C31.8027 22.625 31.036 22.4 30.0193 22.4H27.2693V27.525H30.0193ZM55.6369 22.425H47.7119V36H42.8369V18.5H55.6619L55.6369 22.425ZM67.4623 36.35C65.6123 36.35 63.9456 35.9583 62.4623 35.175C60.9956 34.3917 59.8373 33.3083 58.9873 31.925C58.154 30.5417 57.7373 28.9833 57.7373 27.25C57.7373 25.5167 58.154 23.9583 58.9873 22.575C59.8373 21.1917 60.9956 20.1083 62.4623 19.325C63.9456 18.5417 65.6123 18.15 67.4623 18.15C69.3123 18.15 70.9706 18.5417 72.4373 19.325C73.9206 20.1083 75.079 21.1917 75.9123 22.575C76.7623 23.9583 77.1873 25.5167 77.1873 27.25C77.1873 28.9833 76.7623 30.5417 75.9123 31.925C75.079 33.3083 73.9206 34.3917 72.4373 35.175C70.9706 35.9583 69.3123 36.35 67.4623 36.35ZM67.4623 32.25C68.3456 32.25 69.1456 32.0417 69.8623 31.625C70.579 31.2083 71.1456 30.625 71.5623 29.875C71.979 29.1083 72.1873 28.2333 72.1873 27.25C72.1873 26.2667 71.979 25.4 71.5623 24.65C71.1456 23.8833 70.579 23.2917 69.8623 22.875C69.1456 22.4583 68.3456 22.25 67.4623 22.25C66.579 22.25 65.779 22.4583 65.0623 22.875C64.3456 23.2917 63.779 23.8833 63.3623 24.65C62.9456 25.4 62.7373 26.2667 62.7373 27.25C62.7373 28.2333 62.9456 29.1083 63.3623 29.875C63.779 30.625 64.3456 31.2083 65.0623 31.625C65.779 32.0417 66.579 32.25 67.4623 32.25ZM98.109 36L98.084 26.725L93.584 34.275H91.384L86.884 26.925V36H82.334V18.5H86.409L92.559 28.6L98.559 18.5H102.634L102.684 36H98.109ZM122.956 32.175V36H108.906V18.5H122.631V22.325H113.806V25.275H121.581V28.975H113.806V32.175H122.956ZM128.276 18.5H142.901V22.325H133.151V25.15H137.676C139.793 25.15 141.418 25.6 142.551 26.5C143.685 27.4 144.251 28.6917 144.251 30.375C144.251 32.1417 143.618 33.525 142.351 34.525C141.085 35.5083 139.31 36 137.026 36H128.276V18.5ZM136.701 32.45C137.535 32.45 138.168 32.2833 138.601 31.95C139.035 31.6167 139.251 31.1417 139.251 30.525C139.251 29.2917 138.401 28.675 136.701 28.675H133.151V32.45H136.701ZM163.357 32.175V36H149.307V18.5H163.032V22.325H154.207V25.275H161.982V28.975H154.207V32.175H163.357ZM185.002 18.5V36H180.127V22.425H175.102L175.002 25.275C174.918 27.775 174.71 29.8083 174.377 31.375C174.06 32.9417 173.51 34.1583 172.727 35.025C171.943 35.875 170.835 36.3 169.402 36.3C168.735 36.3 167.985 36.2 167.152 36L167.427 31.95C167.643 32 167.868 32.025 168.102 32.025C168.752 32.025 169.252 31.7667 169.602 31.25C169.952 30.7333 170.202 30.0167 170.352 29.1C170.502 28.1667 170.602 26.9583 170.652 25.475L170.902 18.5H185.002ZM200.17 24.075C202.32 24.075 203.978 24.5583 205.145 25.525C206.312 26.475 206.895 27.8917 206.895 29.775C206.895 31.7917 206.245 33.3333 204.945 34.4C203.645 35.4667 201.837 36 199.52 36H191.245V18.5H196.12V24.075H200.17ZM199.195 32.45C200.028 32.45 200.687 32.225 201.17 31.775C201.67 31.325 201.92 30.6917 201.92 29.875C201.92 28.3583 201.012 27.6 199.195 27.6H196.12V32.45H199.195Z" fill="black"/>
</svg>
