<svg width="33" height="30" viewBox="0 0 33 30" fill="none" xmlns="http://www.w3.org/2000/svg">
<g clip-path="url(#clip0_52_1664)">
<path fill-rule="evenodd" clip-rule="evenodd" d="M30.6324 12.6182H22.5563C22.3852 12.6182 22.2461 12.5066 22.2461 12.3689C22.2461 12.2312 22.3852 12.1192 22.5563 12.1192H30.3222V8.28017H22.5563C22.3852 8.28017 22.2461 8.16865 22.2461 8.03092C22.2461 7.89318 22.3852 7.78125 22.5563 7.78125H30.6324C30.8035 7.78125 30.9421 7.89318 30.9421 8.03092V12.3689C30.9421 12.5066 30.8035 12.6182 30.6324 12.6182Z" fill="#1F2B32"/>
<path fill-rule="evenodd" clip-rule="evenodd" d="M30.5414 11.1981H22.5563C22.3852 11.1981 22.2461 11.0862 22.2461 10.9485C22.2461 10.8107 22.3852 10.6992 22.5563 10.6992H30.5414C30.7125 10.6992 30.8511 10.8107 30.8511 10.9485C30.8511 11.0862 30.7125 11.1981 30.5414 11.1981Z" fill="#1F2B32"/>
<path fill-rule="evenodd" clip-rule="evenodd" d="M30.5414 9.69855H22.5563C22.3852 9.69855 22.2461 9.58662 22.2461 9.44889C22.2461 9.31115 22.3852 9.19922 22.5563 9.19922H30.5414C30.7125 9.19922 30.8511 9.31115 30.8511 9.44889C30.8511 9.58662 30.7125 9.69855 30.5414 9.69855Z" fill="#1F2B32"/>
<path fill-rule="evenodd" clip-rule="evenodd" d="M7.38378 6.65742V12.3892C7.38378 12.5107 7.27226 12.6094 7.13452 12.6094C6.99679 12.6094 6.88486 12.5107 6.88486 12.3892V6.87761H3.04579L3.04579 12.3892C3.04579 12.5107 2.93428 12.6094 2.79654 12.6094C2.65881 12.6094 2.54688 12.5107 2.54688 12.3892L2.54688 6.65742C2.54688 6.53596 2.65881 6.43761 2.79654 6.43761H7.13452C7.27226 6.43761 7.38378 6.53596 7.38378 6.65742Z" fill="#1F2B32"/>
<path fill-rule="evenodd" clip-rule="evenodd" d="M4.02626 6.65951L4.02626 12.3267C4.02626 12.4482 3.91433 12.5469 3.7766 12.5469C3.63886 12.5469 3.52734 12.4482 3.52734 12.3267L3.52734 6.65951C3.52734 6.53804 3.63886 6.4397 3.7766 6.4397C3.91433 6.4397 4.02626 6.53804 4.02626 6.65951Z" fill="#1F2B32"/>
<path fill-rule="evenodd" clip-rule="evenodd" d="M6.3548 6.65951L6.3548 12.3267C6.3548 12.4482 6.24287 12.5469 6.10514 12.5469C5.9674 12.5469 5.85547 12.4482 5.85547 12.3267L5.85547 6.65951C5.85547 6.53804 5.9674 6.4397 6.10514 6.4397C6.24287 6.4397 6.3548 6.53804 6.3548 6.65951Z" fill="#1F2B32"/>
<path fill-rule="evenodd" clip-rule="evenodd" d="M5.21027 6.65951L5.21027 12.3267C5.21027 12.4482 5.09834 12.5469 4.96061 12.5469C4.82287 12.5469 4.71094 12.4482 4.71094 12.3267L4.71094 6.65951C4.71094 6.53804 4.82287 6.4397 4.96061 6.4397C5.09834 6.4397 5.21027 6.53804 5.21027 6.65951Z" fill="#1F2B32"/>
<path fill-rule="evenodd" clip-rule="evenodd" d="M17.2383 22.6608H14.8636C14.6561 22.6608 14.4881 22.4921 14.4881 22.2846V19.5519C14.4881 19.3438 14.6561 19.1758 14.8636 19.1758H17.2383C17.4458 19.1758 17.6138 19.3438 17.6138 19.5519V22.2846C17.6138 22.4921 17.4458 22.6608 17.2383 22.6608ZM15.2397 21.9085H16.8622V19.9274H15.2397V21.9085Z" fill="#1F2B32"/>
<path fill-rule="evenodd" clip-rule="evenodd" d="M16.0324 25.0781C15.8249 25.0781 15.6562 24.91 15.6562 24.7019V22.2902C15.6562 22.0827 15.8249 21.9141 16.0324 21.9141C16.2399 21.9141 16.4085 22.0827 16.4085 22.2902V24.7019C16.4085 24.91 16.2399 25.0781 16.0324 25.0781Z" fill="#1F2B32"/>
<path fill-rule="evenodd" clip-rule="evenodd" d="M20.7716 26.8238C20.5641 26.8238 20.3954 26.6558 20.3954 26.4483C20.3954 25.8904 18.6959 25.0798 16.0328 25.0798C13.3698 25.0798 11.6696 25.8904 11.6696 26.4483C11.6696 26.6558 11.5016 26.8238 11.2941 26.8238C11.0866 26.8238 10.918 26.6558 10.918 26.4483C10.918 25.9988 11.2013 25.3588 12.5523 24.8616C13.4876 24.5175 14.7239 24.3281 16.0328 24.3281C17.3418 24.3281 18.578 24.5175 19.5134 24.8616C20.8643 25.3594 21.1477 25.9988 21.1477 26.4483C21.1477 26.6558 20.9791 26.8238 20.7716 26.8238Z" fill="#1F2B32"/>
<path fill-rule="evenodd" clip-rule="evenodd" d="M11.3037 29.0242C10.4881 29.0242 9.82422 28.3609 9.82422 27.5453C9.82422 26.7297 10.4881 26.0664 11.3037 26.0664C12.1193 26.0664 12.7826 26.7297 12.7826 27.5453C12.7826 28.3609 12.1193 29.0242 11.3037 29.0242ZM11.3037 26.8181C10.9025 26.8181 10.5765 27.1441 10.5765 27.5453C10.5765 27.9459 10.9025 28.2725 11.3037 28.2725C11.7043 28.2725 12.0303 27.9459 12.0303 27.5453C12.0303 27.1441 11.7043 26.8181 11.3037 26.8181Z" fill="#1F2B32"/>
<path fill-rule="evenodd" clip-rule="evenodd" d="M20.7718 29.0242C19.9562 29.0242 19.293 28.3609 19.293 27.5453C19.293 26.7297 19.9562 26.0664 20.7718 26.0664C21.5874 26.0664 22.2507 26.7297 22.2507 27.5453C22.2507 28.3609 21.5874 29.0242 20.7718 29.0242ZM20.7718 26.8181C20.3712 26.8181 20.0446 27.1441 20.0446 27.5453C20.0446 27.9459 20.3712 28.2725 20.7718 28.2725C21.173 28.2725 21.499 27.9459 21.499 27.5453C21.499 27.1441 21.173 26.8181 20.7718 26.8181Z" fill="#1F2B32"/>
<path fill-rule="evenodd" clip-rule="evenodd" d="M16.0334 29.0242C15.2178 29.0242 14.5546 28.3609 14.5546 27.5453C14.5546 26.7297 15.2178 26.0664 16.0334 26.0664C16.849 26.0664 17.5123 26.7297 17.5123 27.5453C17.5123 28.3609 16.849 29.0242 16.0334 29.0242ZM16.0334 26.8181C15.6322 26.8181 15.3062 27.1441 15.3062 27.5453C15.3062 27.9459 15.6322 28.2725 16.0334 28.2725C16.434 28.2725 16.7606 27.9459 16.7606 27.5453C16.7606 27.1441 16.434 26.8181 16.0334 26.8181Z" fill="#1F2B32"/>
<path fill-rule="evenodd" clip-rule="evenodd" d="M16.0324 26.6025C15.8249 26.6025 15.6562 26.4345 15.6562 26.227V24.7036C15.6562 24.4961 15.8249 24.3281 16.0324 24.3281C16.2399 24.3281 16.4085 24.4961 16.4085 24.7036V26.227C16.4085 26.4345 16.2399 26.6025 16.0324 26.6025Z" fill="#1F2B32"/>
<path fill-rule="evenodd" clip-rule="evenodd" d="M19.7849 17.4125H12.3279C11.4208 17.4125 10.6836 16.6746 10.6836 15.7681V6.06297C10.6836 5.15584 11.4208 4.41797 12.3279 4.41797H19.7849C20.6914 4.41797 21.4293 5.15584 21.4293 6.06297V15.7681C21.4293 16.6746 20.6914 17.4125 19.7849 17.4125ZM12.3279 5.17026C11.8358 5.17026 11.4352 5.57085 11.4352 6.06297V15.7681C11.4352 16.2602 11.8358 16.6602 12.3279 16.6602H19.7849C20.277 16.6602 20.677 16.2602 20.677 15.7681V6.06297C20.677 5.57085 20.277 5.17026 19.7849 5.17026H12.3279Z" fill="#1F2B32"/>
<path fill-rule="evenodd" clip-rule="evenodd" d="M21.9838 19.9397H10.1191C9.54922 19.9397 9.08594 19.4764 9.08594 18.9065V15.9902C9.08594 15.4203 9.54922 14.957 10.1191 14.957H11.0544C11.2619 14.957 11.4305 15.1257 11.4305 15.3332V15.7708C11.4305 16.2629 11.8311 16.6635 12.3232 16.6635H19.7796C20.2717 16.6635 20.6723 16.2629 20.6723 15.7708V15.3332C20.6723 15.1257 20.8409 14.957 21.0484 14.957H21.9838C22.5536 14.957 23.0169 15.4203 23.0169 15.9902V18.9065C23.0169 19.4764 22.5536 19.9397 21.9838 19.9397ZM10.1191 15.7087C9.9636 15.7087 9.83759 15.8353 9.83759 15.9902V18.9065C9.83759 19.062 9.9636 19.188 10.1191 19.188H21.9838C22.1392 19.188 22.2652 19.062 22.2652 18.9065V15.9902C22.2652 15.8347 22.1392 15.7087 21.9838 15.7087H21.4239V15.7708C21.4239 16.6779 20.6867 17.4158 19.7796 17.4158H12.3232C11.4161 17.4158 10.6789 16.6779 10.6789 15.7708V15.7087H10.1191Z" fill="#1F2B32"/>
<path fill-rule="evenodd" clip-rule="evenodd" d="M31.1092 16.498H22.6311C22.4236 16.498 22.2549 16.3294 22.2549 16.1219V15.9865C22.2549 15.8316 22.1289 15.705 21.9734 15.705H21.0381C20.8306 15.705 20.662 15.537 20.662 15.3295V12.8488C20.662 12.6413 20.8306 12.4727 21.0381 12.4727H31.1092C31.6459 12.4727 32.0822 12.909 32.0822 13.4456V15.5251C32.0822 16.0617 31.6459 16.498 31.1092 16.498ZM22.9784 15.7464H31.1092C31.229 15.7464 31.3299 15.6448 31.3299 15.5251V13.4456C31.3299 13.3259 31.229 13.2249 31.1092 13.2249H21.4142V14.9533H21.9734C22.4605 14.9533 22.8699 15.2919 22.9784 15.7464ZM9.45113 16.498H0.972947C0.436322 16.498 0 16.0617 0 15.5251V13.445C0 12.909 0.436322 12.4727 0.972947 12.4727H11.0441C11.2516 12.4727 11.4202 12.6407 11.4202 12.8488V15.3295C11.4202 15.537 11.2516 15.705 11.0441 15.705H10.1087C9.95328 15.705 9.82727 15.8316 9.82727 15.9865V16.1219C9.82727 16.3294 9.65926 16.498 9.45113 16.498ZM0.972947 13.2243C0.85321 13.2243 0.752279 13.3259 0.752279 13.445V15.5251C0.752279 15.6448 0.85321 15.7457 0.972947 15.7457H9.10383C9.21228 15.2919 9.62165 14.9533 10.1087 14.9533H10.6686V13.2243H0.972947Z" fill="#1F2B32"/>
<path fill-rule="evenodd" clip-rule="evenodd" d="M31.1296 29.0315H28.9618C28.7543 29.0315 28.5863 28.8635 28.5863 28.656V18.6662H22.6514C22.4439 18.6662 22.2753 18.4976 22.2753 18.2901V16.1222C22.2753 15.9147 22.4439 15.7461 22.6514 15.7461H31.1296C31.3371 15.7461 31.5058 15.9147 31.5058 16.1222V28.656C31.5058 28.8635 31.3371 29.0315 31.1296 29.0315ZM29.3379 28.2798H30.7535V16.4984H23.0269V17.9139H28.9618C29.1693 17.9139 29.3379 18.0826 29.3379 18.2901V28.2798ZM3.16114 29.0315H0.993327C0.785823 29.0315 0.617188 28.8635 0.617188 28.656V16.1222C0.617188 15.9147 0.785823 15.7461 0.993327 15.7461H9.47151C9.67964 15.7461 9.84765 15.9147 9.84765 16.1222V18.2901C9.84765 18.4976 9.67964 18.6662 9.47151 18.6662H3.53728V28.656C3.53728 28.8635 3.36865 29.0315 3.16114 29.0315ZM1.36947 28.2798H2.785V18.2901C2.785 18.0826 2.95364 17.9139 3.16114 17.9139H9.096V16.4984H1.36947V28.2798Z" fill="#1F2B32"/>
</g>
<defs>
<clipPath id="clip0_52_1664">
<rect width="32.231" height="28.5475" fill="white" transform="translate(0 0.617188)"/>
</clipPath>
</defs>
</svg>
