<svg width="28" height="27" viewBox="0 0 28 27" fill="none" xmlns="http://www.w3.org/2000/svg">
<g clip-path="url(#clip0_52_1744)">
<path d="M15.9645 12.9369V11.6088H17.4321C17.903 11.6088 18.3678 11.5014 18.7911 11.2948C19.2144 11.0882 19.585 10.7879 19.8748 10.4166C20.1646 10.0453 20.3659 9.61278 20.4635 9.152C20.5611 8.69122 20.5523 8.21425 20.438 7.75735L19.1099 2.44495C18.943 1.77425 18.5563 1.17876 18.0115 0.753488C17.4667 0.328219 16.7951 0.0976745 16.104 0.0986358H11.3981C10.7074 0.0981692 10.0363 0.328941 9.49195 0.754171C8.94759 1.1794 8.56122 1.77461 8.39444 2.44495L7.06635 7.75735C6.95197 8.21425 6.94324 8.69122 7.04082 9.152C7.13841 9.61278 7.33974 10.0453 7.62953 10.4166C7.91931 10.7879 8.28992 11.0882 8.71319 11.2948C9.13646 11.5014 9.60125 11.6088 10.0723 11.6088H11.5376V12.9369H7.55332C6.96648 12.9376 6.40389 13.1711 5.98893 13.586C5.57398 14.001 5.34055 14.5636 5.33984 15.1504V15.5931C5.33984 16.0628 5.52641 16.5132 5.85849 16.8453C6.19058 17.1774 6.64098 17.3639 7.11062 17.3639H7.66399C8.10669 18.2746 9.90049 18.8448 11.9803 19.0489V20.0201C11.9807 20.1749 12.0219 20.3268 12.0996 20.4606C12.1773 20.5944 12.2888 20.7054 12.423 20.7825V21.8742C10.3799 22.3467 8.41679 23.1151 6.59577 24.155C6.33688 24.302 6.13449 24.5313 6.02069 24.8065C5.9069 25.0816 5.88821 25.3869 5.96759 25.6739C6.02405 25.881 6.12951 26.0716 6.27509 26.2294C6.42066 26.3873 6.60206 26.5078 6.80399 26.5808C7.00592 26.6538 7.22245 26.6772 7.43531 26.6489C7.64817 26.6207 7.85111 26.5417 8.027 26.4185C8.53743 26.0599 10.3622 24.8899 12.423 24.8899V25.3326C12.423 25.6848 12.5629 26.0226 12.8119 26.2717C13.061 26.5207 13.3988 26.6607 13.751 26.6607C14.1033 26.6607 14.4411 26.5207 14.6901 26.2717C14.9392 26.0226 15.0791 25.6848 15.0791 25.3326V24.8899C17.1399 24.8899 18.9647 26.0599 19.4746 26.4181C19.6232 26.5211 19.791 26.593 19.9681 26.6294C20.1451 26.6659 20.3277 26.6662 20.5049 26.6302C20.682 26.5943 20.8501 26.5228 20.9989 26.4202C21.1477 26.3176 21.2743 26.186 21.3709 26.0332C21.4675 25.8804 21.5322 25.7097 21.5611 25.5312C21.5901 25.3528 21.5826 25.1703 21.5391 24.9949C21.4957 24.8194 21.4172 24.6545 21.3083 24.5102C21.1995 24.3658 21.0626 24.245 20.9059 24.155C19.085 23.1151 17.1221 22.3467 15.0791 21.8742V20.7825C15.2133 20.7054 15.3248 20.5944 15.4025 20.4606C15.4802 20.3268 15.5214 20.1749 15.5218 20.0201V19.0489C17.6025 18.8448 19.3954 18.2746 19.8381 17.3639H20.3915C20.8611 17.3639 21.3115 17.1774 21.6436 16.8453C21.9757 16.5132 22.1622 16.0628 22.1622 15.5931V15.1504C22.1615 14.5636 21.9281 14.001 21.5132 13.586C21.0982 13.1711 20.5356 12.9376 19.9488 12.9369H15.9645ZM8.32493 9.87213C8.11704 9.60745 7.97266 9.29859 7.90289 8.96933C7.83313 8.64008 7.83984 8.2992 7.92253 7.97295L9.25061 2.66054C9.36995 2.18142 9.64624 1.75603 10.0354 1.45219C10.4246 1.14834 10.9044 0.983537 11.3981 0.984036H16.104C16.5977 0.983537 17.0774 1.14834 17.4666 1.45219C17.8559 1.75603 18.1321 2.18142 18.2515 2.66054L19.5796 7.97295C19.6612 8.2993 19.6673 8.63997 19.5976 8.96906C19.5278 9.29815 19.3839 9.60701 19.1769 9.87216C18.9699 10.1373 18.7051 10.3518 18.4028 10.4993C18.1004 10.6468 17.7685 10.7235 17.4321 10.7234H10.07C9.73342 10.7245 9.40104 10.6483 9.0985 10.5007C8.79595 10.3531 8.53131 10.1381 8.32493 9.87213ZM12.423 11.6088H15.0791V12.9369H12.423V11.6088ZM13.3084 20.9056H14.1937V21.791H13.3084V20.9056ZM20.6792 25.4437C20.6561 25.5408 20.6 25.6269 20.5205 25.6874C20.441 25.7479 20.343 25.7789 20.2432 25.7753C20.1504 25.7759 20.0599 25.7474 19.9842 25.6938C18.5495 24.6633 16.8441 24.076 15.0791 24.0045C15.0791 23.887 15.0325 23.7744 14.9495 23.6914C14.8664 23.6084 14.7538 23.5618 14.6364 23.5618C14.519 23.5618 14.4064 23.6084 14.3234 23.6914C14.2404 23.7744 14.1937 23.887 14.1937 24.0045V25.3326C14.1937 25.45 14.1471 25.5626 14.0641 25.6456C13.9811 25.7286 13.8685 25.7753 13.751 25.7753C13.6336 25.7753 13.521 25.7286 13.438 25.6456C13.355 25.5626 13.3084 25.45 13.3084 25.3326V24.0045C13.3084 23.887 13.2617 23.7744 13.1787 23.6914C13.0957 23.6084 12.9831 23.5618 12.8657 23.5618C12.7482 23.5618 12.6356 23.6084 12.5526 23.6914C12.4696 23.7744 12.423 23.887 12.423 24.0045C10.6578 24.076 8.95225 24.6635 7.51746 25.6942C7.44187 25.7476 7.35145 25.7759 7.25893 25.7753C7.15912 25.7789 7.06113 25.7479 6.98163 25.6874C6.90214 25.6269 6.84603 25.5408 6.82287 25.4437C6.79369 25.3446 6.79941 25.2386 6.83905 25.1433C6.8787 25.0479 6.94988 24.9691 7.04068 24.92C8.87136 23.8794 10.8494 23.1229 12.9073 22.6764H14.5953C16.653 23.1222 18.6309 23.8788 20.461 24.92C20.5519 24.969 20.6232 25.0478 20.663 25.1431C20.7027 25.2385 20.7084 25.3446 20.6792 25.4437ZM14.6364 20.0201H12.8657V19.1117C13.1596 19.1255 13.4549 19.1347 13.751 19.1347C14.0472 19.1347 14.3425 19.1255 14.6364 19.1117V20.0201ZM13.751 18.2493C11.3494 18.2493 9.63398 17.7929 8.87432 17.3639H18.6278C17.8703 17.7929 16.1527 18.2493 13.751 18.2493ZM21.2769 15.1504V15.5931C21.2769 15.828 21.1836 16.0532 21.0175 16.2192C20.8515 16.3853 20.6263 16.4785 20.3915 16.4785H7.11062C6.8758 16.4785 6.6506 16.3853 6.48456 16.2192C6.31852 16.0532 6.22523 15.828 6.22523 15.5931V15.1504C6.22523 14.7982 6.36516 14.4604 6.61422 14.2113C6.86328 13.9623 7.20109 13.8223 7.55332 13.8223H19.9488C20.301 13.8223 20.6388 13.9623 20.8879 14.2113C21.1369 14.4604 21.2769 14.7982 21.2769 15.1504Z" fill="#1F2B32"/>
</g>
<defs>
<clipPath id="clip0_52_1744">
<rect width="26.5617" height="26.562" fill="white" transform="translate(0.484375 0.0947266)"/>
</clipPath>
</defs>
</svg>
