<svg width="23" height="23" viewBox="0 0 23 23" fill="none" xmlns="http://www.w3.org/2000/svg">
<g clip-path="url(#clip0_52_1734)">
<path d="M18.8392 20.429L15.8835 14.1929C15.8583 14.1416 15.8215 14.0968 15.7761 14.062C15.852 14.0097 15.9244 13.9589 15.9954 13.902L16.2954 13.6615C17.6533 12.5749 18.2992 10.8266 17.9741 9.11807L17.1882 4.98845C16.6155 1.98168 13.7139 0.00841829 10.7072 0.58104C8.47286 1.00655 6.72538 2.75409 6.29988 4.9884L5.51326 9.11803C5.18807 10.8267 5.83436 12.5751 7.1927 13.6615L7.49309 13.9019C7.56401 13.9588 7.63835 14.0096 7.71231 14.062C7.66689 14.0967 7.6302 14.1415 7.60498 14.1928L4.65154 20.429C4.51249 20.7236 4.50191 21.0628 4.62233 21.3655C4.80064 21.8096 5.23231 22.0996 5.71086 22.0967C5.87021 22.0963 6.02803 22.0655 6.17586 22.0061C6.45064 21.8966 6.67371 21.6871 6.80015 21.4197L8.10866 18.6555L10.6062 17.6269V19.892C10.6062 20.5204 11.1156 21.0298 11.744 21.0298C12.3725 21.0298 12.8819 20.5204 12.8819 19.892V17.6269L15.3794 18.6555L16.6879 21.4197C16.8212 21.6967 17.0565 21.9115 17.3445 22.019C17.482 22.0742 17.629 22.1025 17.7772 22.1024C18.4244 22.1039 18.9504 21.5804 18.9519 20.9332C18.9523 20.7588 18.9138 20.5866 18.8392 20.429ZM6.11441 21.0947C6.06274 21.1983 5.97223 21.2772 5.86257 21.3143C5.65075 21.3989 5.41043 21.2958 5.32575 21.084C5.28308 20.9772 5.28688 20.8576 5.33614 20.7537L8.29033 14.5168C8.30195 14.4868 8.30958 14.4554 8.31309 14.4235C8.51548 14.5271 8.72513 14.6158 8.94041 14.689C9.00034 14.7087 9.06178 14.7227 9.12171 14.7413L8.80539 15.4096C8.77775 15.439 8.75509 15.4727 8.73826 15.5094C8.73148 15.5324 8.72693 15.556 8.7246 15.5799L6.11441 21.0947ZM10.6062 16.8061L8.5911 17.636L9.29466 16.1496L10.6062 16.6897V16.8061ZM9.62008 15.4627L9.80972 15.0584C9.8275 15.0182 9.83816 14.9752 9.8412 14.9313C10.094 14.9862 10.3485 15.0298 10.6047 15.0622L10.6062 15.8689L9.62008 15.4627ZM12.1233 19.8916C12.1233 20.1011 11.9535 20.2709 11.744 20.2709C11.5346 20.2709 11.3648 20.1011 11.3648 19.8916V17.3125L11.744 17.1562L12.1233 17.3125V19.8916ZM12.1233 16.1815L11.744 16.3373L11.3648 16.1811V15.1267C11.4911 15.132 11.6174 15.1415 11.744 15.1415C11.8707 15.1415 11.997 15.132 12.1233 15.1267V16.1815ZM9.18088 13.9702C8.74053 13.8232 8.32968 13.5995 7.96719 13.3095L7.66604 13.0694C6.52721 12.1585 5.98555 10.6925 6.25854 9.25993L7.04516 5.1303C7.53974 2.53515 10.0445 0.832315 12.6396 1.32695C14.5676 1.69438 16.0755 3.20231 16.4429 5.1303L17.2295 9.25993C17.5024 10.6925 16.9608 12.1585 15.822 13.0694L15.5216 13.3095C15.1591 13.5995 14.7483 13.8232 14.308 13.9702C12.6433 14.5209 10.8455 14.5209 9.18088 13.9702ZM13.8684 15.4627L12.8819 15.8689V15.0622C13.1383 15.0296 13.3928 14.986 13.6454 14.9313C13.6484 14.9752 13.6591 15.0182 13.6768 15.0584L13.8684 15.4627ZM12.8819 16.8061V16.6897L14.1934 16.1496L14.897 17.636L12.8819 16.8061ZM18.1641 21.0837C18.0731 21.2986 17.8252 21.3991 17.6103 21.3082C17.6053 21.306 17.6002 21.3038 17.5952 21.3014C17.4983 21.2628 17.4197 21.189 17.3752 21.0947L14.7635 15.5807C14.7611 15.5568 14.7566 15.5332 14.7498 15.5101C14.733 15.4733 14.7103 15.4395 14.6827 15.41L14.3664 14.7421C14.4263 14.7235 14.4877 14.7095 14.5477 14.6897C14.7629 14.6166 14.9726 14.5278 15.175 14.4242C15.1784 14.4562 15.1861 14.4876 15.1977 14.5175L18.1538 20.7537C18.2028 20.8575 18.2065 20.977 18.1641 21.0837Z" fill="#1F2B32"/>
<path d="M15.475 11.3776C15.3588 11.2033 15.1233 11.1563 14.949 11.2725C13.0106 12.5696 10.4813 12.5696 8.54299 11.2725C8.36871 11.1563 8.13318 11.2033 8.01693 11.3776C7.90068 11.5519 7.94771 11.7874 8.12199 11.9037C9.19463 12.6206 10.4558 13.0034 11.746 13.0036C13.0362 13.0034 14.2973 12.6206 15.37 11.9037C15.5443 11.7874 15.5913 11.5519 15.475 11.3776Z" fill="#1F2B32"/>
</g>
<defs>
<clipPath id="clip0_52_1734">
<rect width="21.62" height="21.6202" fill="white" transform="translate(0.960938 0.474365)"/>
</clipPath>
</defs>
</svg>
