<svg width="30" height="29" viewBox="0 0 30 29" fill="none" xmlns="http://www.w3.org/2000/svg">
<g clip-path="url(#clip0_52_1721)">
<path d="M23.2539 12.1574H21.4502V11.4436C21.4498 11.2071 21.3948 10.9738 21.2894 10.762C21.184 10.5502 21.031 10.3656 20.8425 10.2227L20.0256 9.60776V6.86447C20.0248 6.62531 19.968 6.38966 19.8598 6.17638C19.7516 5.96311 19.5949 5.77814 19.4024 5.63629L18.3607 4.87041V3.22211C18.3598 2.52322 18.0818 1.85322 17.5876 1.35903C17.0934 0.86484 16.4234 0.586819 15.7245 0.585938L13.579 0.585938C12.8801 0.586819 12.2101 0.86484 11.7159 1.35903C11.2218 1.85322 10.9437 2.52322 10.9429 3.22211V4.87041L9.90117 5.63629C9.70831 5.77836 9.55147 5.96369 9.44323 6.17737C9.33499 6.39106 9.27837 6.62715 9.27793 6.86669V9.61164L8.461 10.2266C8.2725 10.3695 8.11958 10.5541 8.01417 10.7659C7.90876 10.9777 7.8537 11.211 7.8533 11.4475V12.1574H6.04962C5.64485 12.1574 5.25666 12.3181 4.97045 12.6044C4.68423 12.8906 4.52344 13.2788 4.52344 13.6836C4.52344 14.0883 4.68423 14.4765 4.97045 14.7627C5.25666 15.049 5.64485 15.2098 6.04962 15.2098H7.02083V19.2334C7.02142 19.638 7.1824 20.0258 7.46849 20.3119C7.75458 20.598 8.14243 20.759 8.54702 20.7596H10.3507V20.8983C10.3513 21.3029 10.5123 21.6908 10.7984 21.9769C11.0844 22.263 11.4723 22.424 11.8769 22.4246H13.4031V24.8387H12.9868C12.6467 24.8393 12.3164 24.9532 12.0483 25.1624C11.7801 25.3717 11.5893 25.6644 11.5062 25.9942C11.1502 26.083 10.838 26.2969 10.6268 26.5969C10.4156 26.8969 10.3195 27.2629 10.356 27.628C10.3924 27.9931 10.5591 28.3328 10.8255 28.5851C11.0919 28.8374 11.4402 28.9853 11.8067 29.0019C12.1732 29.0185 12.5334 28.9026 12.8215 28.6754C13.1096 28.4482 13.3062 28.1248 13.3755 27.7646C13.4448 27.4043 13.3821 27.0311 13.1988 26.7132C13.0155 26.3954 12.724 26.1542 12.3775 26.0336C12.4371 25.924 12.5251 25.8325 12.6324 25.7687C12.7396 25.7049 12.8621 25.6712 12.9868 25.6712H16.3167C16.4417 25.671 16.5644 25.7046 16.6718 25.7684C16.7793 25.8322 16.8675 25.9238 16.9272 26.0336C16.5813 26.1541 16.2903 26.3951 16.1074 26.7125C15.9246 27.0299 15.862 27.4025 15.9313 27.7621C16.0005 28.1218 16.1969 28.4446 16.4845 28.6714C16.7722 28.8982 17.1318 29.0139 17.4978 28.9974C17.8637 28.9808 18.2114 28.8331 18.4774 28.5813C18.7434 28.3294 18.9098 27.9903 18.9463 27.6258C18.9828 27.2613 18.8869 26.8959 18.6762 26.5963C18.4654 26.2967 18.1539 26.083 17.7985 25.9942C17.7153 25.6642 17.5243 25.3714 17.256 25.1621C16.9876 24.9528 16.657 24.839 16.3167 24.8387H15.9005V22.4246H17.4267C17.8312 22.424 18.2191 22.263 18.5052 21.9769C18.7913 21.6908 18.9523 21.3029 18.9528 20.8983V20.7596H20.7565C21.1611 20.759 21.549 20.598 21.835 20.3119C22.1211 20.0258 22.2821 19.638 22.2827 19.2334V15.2098H23.2539C23.6587 15.2098 24.0469 15.049 24.3331 14.7627C24.6193 14.4765 24.7801 14.0883 24.7801 13.6836C24.7801 13.2788 24.6193 12.8906 24.3331 12.6044C24.0469 12.3181 23.6587 12.1574 23.2539 12.1574ZM11.8769 28.1686C11.7397 28.1686 11.6056 28.1279 11.4915 28.0517C11.3774 27.9755 11.2885 27.8671 11.236 27.7404C11.1835 27.6136 11.1697 27.4741 11.1965 27.3396C11.2233 27.205 11.2893 27.0814 11.3863 26.9844C11.4834 26.8873 11.607 26.8213 11.7415 26.7945C11.8761 26.7677 12.0156 26.7815 12.1424 26.834C12.2691 26.8865 12.3775 26.9754 12.4537 27.0895C12.5299 27.2036 12.5706 27.3377 12.5706 27.4749C12.5703 27.6588 12.4971 27.8351 12.3671 27.9651C12.2371 28.0952 12.0608 28.1683 11.8769 28.1686ZM18.1204 27.4749C18.1204 27.6121 18.0797 27.7462 18.0035 27.8603C17.9272 27.9744 17.8189 28.0633 17.6921 28.1158C17.5654 28.1683 17.4259 28.1821 17.2913 28.1553C17.1567 28.1285 17.0331 28.0625 16.9361 27.9654C16.8391 27.8684 16.773 27.7448 16.7463 27.6102C16.7195 27.4757 16.7332 27.3362 16.7857 27.2094C16.8382 27.0827 16.9272 26.9743 17.0412 26.8981C17.1553 26.8219 17.2895 26.7812 17.4267 26.7812C17.6106 26.7815 17.7868 26.8547 17.9169 26.9847C18.0469 27.1147 18.1201 27.291 18.1204 27.4749ZM13.579 1.41841H15.7245C16.2027 1.419 16.6612 1.60922 16.9993 1.94735C17.3374 2.28548 17.5276 2.74392 17.5282 3.22211V4.82657L16.5781 5.31274C16.4704 5.11676 16.3121 4.95329 16.1197 4.83936C15.9273 4.72544 15.7078 4.66525 15.4842 4.66507H13.8193C13.5957 4.66525 13.3762 4.72544 13.1838 4.83936C12.9914 4.95329 12.8331 5.11676 12.7254 5.31274L11.7753 4.82657V3.22211C11.7759 2.74392 11.9661 2.28548 12.3043 1.94735C12.6424 1.60922 13.1008 1.419 13.579 1.41841ZM15.9005 5.91378C15.9005 6.02418 15.8566 6.13005 15.7786 6.20811C15.7005 6.28617 15.5946 6.33002 15.4842 6.33002H13.8193C13.7089 6.33002 13.603 6.28617 13.525 6.20811C13.4469 6.13005 13.4031 6.02418 13.4031 5.91378C13.4031 5.80339 13.4469 5.69752 13.525 5.61946C13.603 5.5414 13.7089 5.49754 13.8193 5.49754H15.4842C15.5946 5.49754 15.7005 5.5414 15.7786 5.61946C15.8566 5.69752 15.9005 5.80339 15.9005 5.91378ZM8.96325 10.8898L9.94556 10.1494C9.99729 10.1107 10.0393 10.0604 10.0682 10.0026C10.0971 9.9448 10.1121 9.88106 10.1121 9.81643V6.86392C10.1123 6.75505 10.138 6.64776 10.1872 6.55062C10.2363 6.45348 10.3075 6.36919 10.3951 6.30449L11.3996 5.56803L12.5984 6.1835C12.66 6.46131 12.8146 6.70975 13.0366 6.88776C13.2586 7.06577 13.5347 7.16269 13.8193 7.1625H15.4842C15.7688 7.16269 16.0449 7.06577 16.2669 6.88776C16.4889 6.70975 16.6435 6.46131 16.7052 6.1835L17.9078 5.56858L18.9123 6.30505C18.9999 6.36974 19.0711 6.45403 19.1202 6.55117C19.1694 6.64831 19.1951 6.7556 19.1954 6.86447V9.81698C19.1953 9.88161 19.2104 9.94536 19.2393 10.0032C19.2682 10.061 19.3101 10.1112 19.3619 10.15L20.3442 10.8903C20.4302 10.9551 20.5 11.0389 20.5482 11.1352C20.5963 11.2315 20.6215 11.3376 20.6217 11.4453V12.3266C20.3713 12.4546 20.1612 12.6491 20.0143 12.8888C19.8674 13.1285 19.7895 13.4041 19.7892 13.6852V17.1539H17.2918V11.4636C17.2918 10.7645 17.0141 10.0939 16.5197 9.59957C16.0253 9.10519 15.3548 8.82745 14.6557 8.82745C13.9565 8.82745 13.286 9.10519 12.7916 9.59957C12.2972 10.0939 12.0195 10.7645 12.0195 11.4636V17.1522H9.52212V13.6836C9.52178 13.4024 9.44388 13.1269 9.29701 12.8871C9.15013 12.6474 8.93997 12.4529 8.68965 12.325V11.4436C8.68941 11.3366 8.71387 11.2309 8.76113 11.1348C8.80839 11.0388 8.87718 10.9549 8.96214 10.8898H8.96325ZM16.4554 17.1522H12.8481V11.4636C12.8481 10.9853 13.0381 10.5265 13.3764 10.1882C13.7146 9.84996 14.1734 9.65992 14.6518 9.65992C15.1301 9.65992 15.5889 9.84996 15.9272 10.1882C16.2654 10.5265 16.4554 10.9853 16.4554 11.4636V17.1522ZM5.3559 13.6836C5.3562 13.4997 5.42938 13.3234 5.55941 13.1933C5.68945 13.0633 5.86573 12.9901 6.04962 12.9898H7.99204C8.17594 12.9901 8.35222 13.0633 8.48226 13.1933C8.61229 13.3234 8.68547 13.4997 8.68577 13.6836V14.3773H6.04962C5.86573 14.377 5.68945 14.3038 5.55941 14.1738C5.42938 14.0437 5.3562 13.8675 5.3559 13.6836ZM8.68577 15.2098V17.1522H7.8533V15.2098H8.68577ZM15.068 24.8387H14.2355V22.4246H15.068V24.8387ZM18.1204 20.8983C18.1201 21.0822 18.0469 21.2585 17.9169 21.3886C17.7868 21.5186 17.6106 21.5918 17.4267 21.5921H11.8769C11.693 21.5918 11.5167 21.5186 11.3867 21.3886C11.2566 21.2585 11.1835 21.0822 11.1832 20.8983V20.7596H18.1204V20.8983ZM21.4502 19.2334C21.4499 19.4173 21.3768 19.5936 21.2467 19.7236C21.1167 19.8536 20.9404 19.9268 20.7565 19.9271H8.54702C8.36313 19.9268 8.18685 19.8536 8.05681 19.7236C7.92678 19.5936 7.85359 19.4173 7.8533 19.2334V17.9847H21.4502V19.2334ZM21.4502 17.1522H20.6178V15.2098H21.4502V17.1522ZM23.2539 14.3773H20.6178V13.6836C20.6181 13.4997 20.6913 13.3234 20.8213 13.1933C20.9513 13.0633 21.1276 12.9901 21.3115 12.9898H23.2539C23.4379 12.9898 23.6144 13.0629 23.7445 13.193C23.8746 13.3231 23.9476 13.4996 23.9476 13.6836C23.9476 13.8675 23.8746 14.044 23.7445 14.1741C23.6144 14.3042 23.4379 14.3773 23.2539 14.3773Z" fill="#1F2B32"/>
<path d="M15.749 15.4922H14.3615C14.2512 15.4922 14.1453 15.536 14.0672 15.6141C13.9892 15.6922 13.9453 15.798 13.9453 15.9084C13.9453 16.0188 13.9892 16.1247 14.0672 16.2028C14.1453 16.2808 14.2512 16.3247 14.3615 16.3247H15.749C15.8594 16.3247 15.9653 16.2808 16.0433 16.2028C16.1214 16.1247 16.1652 16.0188 16.1652 15.9084C16.1652 15.798 16.1214 15.6922 16.0433 15.6141C15.9653 15.536 15.8594 15.4922 15.749 15.4922Z" fill="#1F2B32"/>
<path d="M15.749 13.5469H14.3615C14.2512 13.5469 14.1453 13.5907 14.0672 13.6688C13.9892 13.7468 13.9453 13.8527 13.9453 13.9631C13.9453 14.0735 13.9892 14.1794 14.0672 14.2574C14.1453 14.3355 14.2512 14.3794 14.3615 14.3794H15.749C15.8594 14.3794 15.9653 14.3355 16.0433 14.2574C16.1214 14.1794 16.1652 14.0735 16.1652 13.9631C16.1652 13.8527 16.1214 13.7468 16.0433 13.6688C15.9653 13.5907 15.8594 13.5469 15.749 13.5469Z" fill="#1F2B32"/>
<path d="M15.749 11.6055H14.3615C14.2512 11.6055 14.1453 11.6493 14.0672 11.7274C13.9892 11.8054 13.9453 11.9113 13.9453 12.0217C13.9453 12.1321 13.9892 12.238 14.0672 12.316C14.1453 12.3941 14.2512 12.4379 14.3615 12.4379H15.749C15.8594 12.4379 15.9653 12.3941 16.0433 12.316C16.1214 12.238 16.1652 12.1321 16.1652 12.0217C16.1652 11.9113 16.1214 11.8054 16.0433 11.7274C15.9653 11.6493 15.8594 11.6055 15.749 11.6055Z" fill="#1F2B32"/>
</g>
<defs>
<clipPath id="clip0_52_1721">
<rect width="28.4148" height="28.4152" fill="white" transform="translate(0.851562 0.585938)"/>
</clipPath>
</defs>
</svg>
