<svg width="33" height="29" viewBox="0 0 33 29" fill="none" xmlns="http://www.w3.org/2000/svg">
<path d="M25.1776 11.736H23.3739V11.0223C23.3735 10.7857 23.3184 10.5524 23.213 10.3406C23.1076 10.1288 22.9547 9.94424 22.7662 9.80129L21.9493 9.18637V6.44308C21.9485 6.20392 21.8917 5.96827 21.7835 5.755C21.6752 5.54172 21.5186 5.35675 21.326 5.2149L20.2843 4.44903V2.80072C20.2834 2.10184 20.0054 1.43183 19.5112 0.937641C19.0171 0.443454 18.3471 0.165432 17.6482 0.164551L15.5026 0.164551C14.8038 0.165432 14.1338 0.443454 13.6396 0.937641C13.1454 1.43183 12.8674 2.10184 12.8665 2.80072V4.44903L11.8248 5.2149C11.632 5.35698 11.4751 5.5423 11.3669 5.75599C11.2586 5.96967 11.202 6.20577 11.2016 6.4453V9.19025L10.3846 9.80518C10.1961 9.94813 10.0432 10.1327 9.93782 10.3445C9.8324 10.5563 9.77735 10.7896 9.77695 11.0261V11.736H7.97327C7.5685 11.736 7.18031 11.8968 6.89409 12.183C6.60788 12.4692 6.44708 12.8574 6.44708 13.2622C6.44708 13.6669 6.60788 14.0551 6.89409 14.3414C7.18031 14.6276 7.5685 14.7884 7.97327 14.7884H8.94448V18.812C8.94507 19.2166 9.10605 19.6045 9.39214 19.8906C9.67823 20.1766 10.0661 20.3376 10.4707 20.3382H12.2743V20.477C12.2749 20.8816 12.4359 21.2694 12.722 21.5555C13.0081 21.8416 13.3959 22.0026 13.8005 22.0032H15.3267V24.4173H14.9105C14.5703 24.4179 14.2401 24.5318 13.9719 24.741C13.7037 24.9503 13.513 25.243 13.4298 25.5728C13.0738 25.6616 12.7617 25.8755 12.5505 26.1755C12.3393 26.4755 12.2431 26.8415 12.2796 27.2066C12.3161 27.5717 12.4828 27.9114 12.7491 28.1637C13.0155 28.416 13.3638 28.5639 13.7303 28.5805C14.0968 28.5971 14.4571 28.4812 14.7451 28.254C15.0332 28.0268 15.2299 27.7035 15.2992 27.3432C15.3684 26.9829 15.3057 26.6097 15.1224 26.2919C14.9392 25.974 14.6476 25.7328 14.3011 25.6122C14.3607 25.5026 14.4488 25.4111 14.556 25.3473C14.6633 25.2835 14.7857 25.2498 14.9105 25.2498H18.2403C18.3653 25.2496 18.488 25.2832 18.5955 25.347C18.7029 25.4108 18.7911 25.5024 18.8508 25.6122C18.5049 25.7327 18.2139 25.9737 18.0311 26.2911C17.8482 26.6085 17.7857 26.9811 17.8549 27.3408C17.9242 27.7005 18.1206 28.0232 18.4082 28.25C18.6958 28.4768 19.0555 28.5925 19.4214 28.576C19.7873 28.5594 20.1351 28.4117 20.401 28.1599C20.667 27.9081 20.8335 27.5689 20.87 27.2044C20.9065 26.8399 20.8106 26.4745 20.5998 26.1749C20.3891 25.8753 20.0775 25.6616 19.7221 25.5728C19.6389 25.2428 19.448 24.95 19.1796 24.7407C18.9112 24.5314 18.5807 24.4176 18.2403 24.4173H17.8241V22.0032H19.3503C19.7549 22.0026 20.1427 21.8416 20.4288 21.5555C20.7149 21.2694 20.8759 20.8816 20.8765 20.477V20.3382H22.6802C23.0848 20.3376 23.4726 20.1766 23.7587 19.8906C24.0448 19.6045 24.2058 19.2166 24.2064 18.812V14.7884H25.1776C25.5823 14.7884 25.9705 14.6276 26.2567 14.3414C26.543 14.0551 26.7037 13.6669 26.7037 13.2622C26.7037 12.8574 26.543 12.4692 26.2567 12.183C25.9705 11.8968 25.5823 11.736 25.1776 11.736ZM13.8005 27.7473C13.6633 27.7473 13.5292 27.7066 13.4151 27.6303C13.301 27.5541 13.2121 27.4458 13.1596 27.319C13.1071 27.1922 13.0934 27.0528 13.1201 26.9182C13.1469 26.7836 13.213 26.66 13.31 26.563C13.407 26.466 13.5306 26.3999 13.6652 26.3731C13.7998 26.3464 13.9392 26.3601 14.066 26.4126C14.1928 26.4651 14.3011 26.554 14.3773 26.6681C14.4536 26.7822 14.4943 26.9163 14.4943 27.0535C14.494 27.2374 14.4208 27.4137 14.2907 27.5437C14.1607 27.6738 13.9844 27.747 13.8005 27.7473ZM20.044 27.0535C20.044 27.1907 20.0033 27.3249 19.9271 27.4389C19.8509 27.553 19.7425 27.6419 19.6158 27.6944C19.489 27.747 19.3495 27.7607 19.215 27.7339C19.0804 27.7072 18.9568 27.6411 18.8598 27.5441C18.7627 27.447 18.6967 27.3234 18.6699 27.1889C18.6431 27.0543 18.6569 26.9148 18.7094 26.788C18.7619 26.6613 18.8508 26.5529 18.9649 26.4767C19.079 26.4005 19.2131 26.3598 19.3503 26.3598C19.5342 26.3601 19.7105 26.4333 19.8405 26.5633C19.9705 26.6933 20.0437 26.8696 20.044 27.0535ZM15.5026 0.997027H17.6482C18.1264 0.997614 18.5848 1.18783 18.9229 1.52597C19.2611 1.8641 19.4513 2.32253 19.4519 2.80072V4.40518L18.5017 4.89135C18.3941 4.69538 18.2358 4.5319 18.0433 4.41798C17.8509 4.30405 17.6315 4.24386 17.4079 4.24368H15.743C15.5193 4.24386 15.2999 4.30405 15.1075 4.41798C14.9151 4.5319 14.7568 4.69538 14.6491 4.89135L13.699 4.40518V2.80072C13.6996 2.32253 13.8898 1.8641 14.2279 1.52597C14.566 1.18783 15.0245 0.997614 15.5026 0.997027ZM17.8241 5.4924C17.8241 5.60279 17.7803 5.70866 17.7022 5.78672C17.6241 5.86478 17.5183 5.90863 17.4079 5.90863H15.743C15.6326 5.90863 15.5267 5.86478 15.4486 5.78672C15.3706 5.70866 15.3267 5.60279 15.3267 5.4924C15.3267 5.382 15.3706 5.27613 15.4486 5.19807C15.5267 5.12001 15.6326 5.07616 15.743 5.07616H17.4079C17.5183 5.07616 17.6241 5.12001 17.7022 5.19807C17.7803 5.27613 17.8241 5.382 17.8241 5.4924ZM10.8869 10.4684L11.8692 9.72803C11.9209 9.68929 11.9629 9.63902 11.9918 9.58122C12.0207 9.52342 12.0357 9.45967 12.0357 9.39504V6.44253C12.036 6.33366 12.0617 6.22637 12.1108 6.12923C12.16 6.03209 12.2312 5.9478 12.3187 5.88311L13.3232 5.14664L14.522 5.76212C14.5837 6.03992 14.7383 6.28836 14.9603 6.46637C15.1823 6.64438 15.4584 6.7413 15.743 6.74111H17.4079C17.6924 6.7413 17.9685 6.64438 18.1905 6.46637C18.4126 6.28836 18.5672 6.03992 18.6288 5.76212L19.8315 5.1472L20.836 5.88366C20.9235 5.94836 20.9947 6.03264 21.0439 6.12978C21.093 6.22692 21.1188 6.33422 21.119 6.44308V9.3956C21.119 9.46022 21.134 9.52397 21.1629 9.58178C21.1918 9.63958 21.2338 9.68985 21.2855 9.72859L22.2678 10.4689C22.3538 10.5337 22.4237 10.6175 22.4718 10.7138C22.52 10.8101 22.5451 10.9163 22.5453 11.0239V11.9052C22.295 12.0332 22.0848 12.2277 21.9379 12.4674C21.7911 12.7071 21.7132 12.9827 21.7128 13.2638V16.7325H19.2154V11.0422C19.2154 10.3431 18.9377 9.67256 18.4433 9.17818C17.949 8.6838 17.2784 8.40606 16.5793 8.40606C15.8802 8.40606 15.2096 8.6838 14.7153 9.17818C14.2209 9.67256 13.9432 10.3431 13.9432 11.0422V16.7308H11.4458V13.2622C11.4454 12.981 11.3675 12.7055 11.2207 12.4658C11.0738 12.2261 10.8636 12.0315 10.6133 11.9036V11.0223C10.6131 10.9152 10.6375 10.8095 10.6848 10.7135C10.732 10.6174 10.8008 10.5335 10.8858 10.4684H10.8869ZM18.3791 16.7308H14.7717V11.0422C14.7717 10.5639 14.9618 10.1051 15.3 9.76683C15.6383 9.42857 16.0971 9.23854 16.5754 9.23854C17.0538 9.23854 17.5126 9.42857 17.8508 9.76683C18.1891 10.1051 18.3791 10.5639 18.3791 11.0422V16.7308ZM7.27955 13.2622C7.27984 13.0783 7.35302 12.902 7.48306 12.772C7.61309 12.6419 7.78937 12.5687 7.97327 12.5684H9.91569C10.0996 12.5687 10.2759 12.6419 10.4059 12.772C10.5359 12.902 10.6091 13.0783 10.6094 13.2622V13.9559H7.97327C7.78937 13.9556 7.61309 13.8824 7.48306 13.7524C7.35302 13.6224 7.27984 13.4461 7.27955 13.2622ZM10.6094 14.7884V16.7308H9.77695V14.7884H10.6094ZM16.9916 24.4173H16.1592V22.0032H16.9916V24.4173ZM20.044 20.477C20.0437 20.6609 19.9705 20.8371 19.8405 20.9672C19.7105 21.0972 19.5342 21.1704 19.3503 21.1707H13.8005C13.6166 21.1704 13.4404 21.0972 13.3103 20.9672C13.1803 20.8371 13.1071 20.6609 13.1068 20.477V20.3382H20.044V20.477ZM23.3739 18.812C23.3736 18.9959 23.3004 19.1722 23.1704 19.3022C23.0403 19.4323 22.8641 19.5054 22.6802 19.5057H10.4707C10.2868 19.5054 10.1105 19.4323 9.98046 19.3022C9.85042 19.1722 9.77724 18.9959 9.77695 18.812V17.5633H23.3739V18.812ZM23.3739 16.7308H22.5414V14.7884H23.3739V16.7308ZM25.1776 13.9559H22.5414V13.2622C22.5417 13.0783 22.6149 12.902 22.7449 12.772C22.875 12.6419 23.0512 12.5687 23.2351 12.5684H25.1776C25.3615 12.5684 25.538 12.6415 25.6681 12.7716C25.7982 12.9017 25.8713 13.0782 25.8713 13.2622C25.8713 13.4462 25.7982 13.6226 25.6681 13.7527C25.538 13.8828 25.3615 13.9559 25.1776 13.9559Z" fill="#1F2B32"/>
<path d="M10.8869 10.4684L11.8692 9.72803C11.9209 9.68929 11.9629 9.63902 11.9918 9.58122C12.0207 9.52342 12.0357 9.45967 12.0357 9.39504V6.44253C12.036 6.33366 12.0617 6.22637 12.1108 6.12923C12.16 6.03209 12.2312 5.9478 12.3187 5.88311L13.3232 5.14664L14.522 5.76212C14.5837 6.03992 14.7383 6.28836 14.9603 6.46637C15.1823 6.64438 15.4584 6.7413 15.743 6.74111H17.4079C17.6924 6.7413 17.9685 6.64438 18.1905 6.46637C18.4126 6.28836 18.5672 6.03992 18.6288 5.76212L19.8315 5.1472L20.836 5.88366C20.9235 5.94836 20.9947 6.03264 21.0439 6.12978C21.093 6.22692 21.1188 6.33422 21.119 6.44308V9.3956C21.119 9.46022 21.134 9.52397 21.1629 9.58178C21.1918 9.63958 21.2338 9.68985 21.2855 9.72859L22.2678 10.4689C22.3538 10.5337 22.4237 10.6175 22.4718 10.7138C22.52 10.8101 22.5451 10.9163 22.5453 11.0239V11.9052C22.295 12.0332 22.0848 12.2277 21.9379 12.4674C21.7911 12.7071 21.7132 12.9827 21.7128 13.2638V16.7325H19.2154V11.0422C19.2154 10.3431 18.9377 9.67256 18.4433 9.17818C17.949 8.6838 17.2784 8.40606 16.5793 8.40606C15.8802 8.40606 15.2096 8.6838 14.7153 9.17818C14.2209 9.67256 13.9432 10.3431 13.9432 11.0422V16.7308H11.4458V13.2622C11.4454 12.981 11.3675 12.7055 11.2207 12.4658C11.0738 12.2261 10.8636 12.0315 10.6133 11.9036V11.0223C10.6131 10.9152 10.6375 10.8095 10.6848 10.7135C10.732 10.6174 10.8008 10.5335 10.8858 10.4684H10.8869Z" fill="white"/>
<path d="M18.3791 16.7308H14.7717V11.0422C14.7717 10.5639 14.9618 10.1051 15.3 9.76683C15.6383 9.42857 16.0971 9.23854 16.5754 9.23854C17.0538 9.23854 17.5126 9.42857 17.8508 9.76683C18.1891 10.1051 18.3791 10.5639 18.3791 11.0422V16.7308Z" fill="white"/>
<path d="M23.3739 18.812C23.3736 18.9959 23.3004 19.1722 23.1704 19.3022C23.0403 19.4323 22.8641 19.5054 22.6802 19.5057H10.4707C10.2868 19.5054 10.1105 19.4323 9.98046 19.3022C9.85042 19.1722 9.77724 18.9959 9.77695 18.812V17.5633H23.3739V18.812Z" fill="white"/>
<path d="M7.27955 13.2622C7.27984 13.0783 7.35302 12.902 7.48306 12.772C7.61309 12.6419 7.78937 12.5687 7.97327 12.5684H9.91569C10.0996 12.5687 10.2759 12.6419 10.4059 12.772C10.5359 12.902 10.6091 13.0783 10.6094 13.2622V13.9559H7.97327C7.78937 13.9556 7.61309 13.8824 7.48306 13.7524C7.35302 13.6224 7.27984 13.4461 7.27955 13.2622Z" fill="white"/>
<path d="M25.1776 13.9559H22.5414V13.2622C22.5417 13.0783 22.6149 12.902 22.7449 12.772C22.875 12.6419 23.0512 12.5687 23.2351 12.5684H25.1776C25.3615 12.5684 25.538 12.6415 25.6681 12.7716C25.7982 12.9017 25.8713 13.0782 25.8713 13.2622C25.8713 13.4462 25.7982 13.6226 25.6681 13.7527C25.538 13.8828 25.3615 13.9559 25.1776 13.9559Z" fill="white"/>
<path d="M15.8301 15.0713H14.4427C14.3323 15.0713 14.2264 15.1151 14.1483 15.1932C14.0703 15.2713 14.0264 15.3771 14.0264 15.4875C14.0264 15.5979 14.0703 15.7038 14.1483 15.7819C14.2264 15.8599 14.3323 15.9038 14.4427 15.9038H15.8301C15.9405 15.9038 16.0464 15.8599 16.1244 15.7819C16.2025 15.7038 16.2463 15.5979 16.2463 15.4875C16.2463 15.3771 16.2025 15.2713 16.1244 15.1932C16.0464 15.1151 15.9405 15.0713 15.8301 15.0713Z" fill="#1F2B32"/>
<path d="M15.8301 13.1252H14.4427C14.3323 13.1252 14.2264 13.1691 14.1483 13.2472C14.0703 13.3252 14.0264 13.4311 14.0264 13.5415C14.0264 13.6519 14.0703 13.7577 14.1483 13.8358C14.2264 13.9139 14.3323 13.9577 14.4427 13.9577H15.8301C15.9405 13.9577 16.0464 13.9139 16.1244 13.8358C16.2025 13.7577 16.2463 13.6519 16.2463 13.5415C16.2463 13.4311 16.2025 13.3252 16.1244 13.2472C16.0464 13.1691 15.9405 13.1252 15.8301 13.1252Z" fill="#1F2B32"/>
<path d="M15.8301 11.1829H14.4427C14.3323 11.1829 14.2264 11.2267 14.1483 11.3048C14.0703 11.3828 14.0264 11.4887 14.0264 11.5991C14.0264 11.7095 14.0703 11.8154 14.1483 11.8934C14.2264 11.9715 14.3323 12.0153 14.4427 12.0153H15.8301C15.9405 12.0153 16.0464 11.9715 16.1244 11.8934C16.2025 11.8154 16.2463 11.7095 16.2463 11.5991C16.2463 11.4887 16.2025 11.3828 16.1244 11.3048C16.0464 11.2267 15.9405 11.1829 15.8301 11.1829Z" fill="#1F2B32"/>
<rect x="0.460443" y="11.6763" width="31.3101" height="1.84177" rx="0.920886" fill="white" stroke="#1F2B32" stroke-width="0.920886"/>
<rect x="5.03607" y="13.5886" width="22.1557" height="13.1113" rx="0.460443" fill="white" stroke="#1F2B32" stroke-width="0.920886"/>
<rect x="-0.460443" y="0.460443" width="1.66011" height="14.5368" rx="0.460443" transform="matrix(-1 0 0 1 2.58278 13.1282)" fill="white" stroke="#1F2B32" stroke-width="0.920886"/>
<rect x="-0.460443" y="0.460443" width="1.66011" height="14.5368" rx="0.460443" transform="matrix(-1 0 0 1 30.3821 13.1282)" fill="white" stroke="#1F2B32" stroke-width="0.920886"/>
</svg>
