<svg width="30" height="30" viewBox="0 0 30 30" fill="none" xmlns="http://www.w3.org/2000/svg">
<g clip-path="url(#clip0_52_1749)">
<path d="M5.73925 14.1695H6.28892L7.13903 18.4192C7.21631 20.4865 8.7397 22.2129 10.7813 22.5469V22.5385C10.8081 22.5462 10.8355 22.5515 10.8632 22.5543H13.1923V23.9518H9.93161C9.15982 23.9518 8.53416 24.5774 8.53416 25.3492V25.8151C8.53495 26.0431 8.62007 26.2628 8.77312 26.4318C8.39409 26.9784 8.45106 27.716 8.90953 28.1979C9.36799 28.6798 10.1019 28.7734 10.6666 28.422C11.2314 28.0706 11.4717 27.3709 11.2419 26.7467H13.7425C13.6878 26.896 13.6592 27.0536 13.6581 27.2125C13.6581 27.9843 14.2838 28.61 15.0556 28.61C15.8274 28.61 16.453 27.9843 16.453 27.2125C16.4515 27.0535 16.4225 26.8959 16.3673 26.7467H18.8678C18.8127 26.8959 18.7837 27.0535 18.7821 27.2125C18.7818 27.8121 19.1639 28.345 19.7318 28.5371C20.2997 28.7292 20.9269 28.5377 21.2906 28.061C21.6543 27.5844 21.6734 26.9288 21.3381 26.4318C21.4911 26.2628 21.5762 26.0431 21.577 25.8151V25.3492C21.577 24.5774 20.9514 23.9518 20.1796 23.9518H16.9189V22.5543H19.2479C19.2751 22.5514 19.3019 22.5461 19.3281 22.5385V22.5469C21.3713 22.2147 22.8968 20.4878 22.9745 18.4192L23.8223 14.1695H24.3719C24.6292 14.1695 24.8377 13.9609 24.8377 13.7037C24.8377 13.4464 24.6292 13.2379 24.3719 13.2379H22.5087C22.2514 13.2379 22.0428 13.4464 22.0428 13.7037C22.0428 13.9609 22.2514 14.1695 22.5087 14.1695H22.872L22.3843 16.6081C22.0542 16.2534 21.5955 16.0461 21.1112 16.0328C20.9779 16.0345 20.8455 16.0536 20.7171 16.0896C20.7125 15.8474 20.7018 15.5907 20.6892 15.3047C20.6687 14.8421 20.6454 14.3181 20.6454 13.7037C20.6461 12.6867 20.9703 11.6963 21.571 10.8757C22.1605 10.0736 22.488 9.10902 22.5087 8.11381C22.5087 6.45175 21.6264 5.93422 20.773 5.43393C20.1823 5.12838 19.6575 4.70939 19.2288 4.2009C19.1679 3.59793 18.816 3.06287 18.2865 2.76803C17.5906 1.5867 17.0218 0.660645 15.0556 0.660645C13.0894 0.660645 12.5206 1.5867 11.8247 2.76663C11.2948 3.06174 10.9429 3.59742 10.8823 4.2009C10.4538 4.70989 9.92903 5.12937 9.33816 5.43533C8.48478 5.93422 7.60252 6.45175 7.60252 8.11381C7.62323 9.10902 7.95071 10.0736 8.54021 10.8757C9.14093 11.6963 9.46508 12.6867 9.46579 13.7037C9.46579 14.3181 9.4425 14.8421 9.422 15.3047C9.40943 15.5907 9.39871 15.8474 9.39405 16.0896C9.26572 16.0536 9.13324 16.0345 8.99997 16.0328C8.51565 16.0461 8.05696 16.2534 7.72689 16.6081L7.23918 14.1695H7.60252C7.85979 14.1695 8.06834 13.9609 8.06834 13.7037C8.06834 13.4464 7.85979 13.2379 7.60252 13.2379H5.73925C5.48199 13.2379 5.27344 13.4464 5.27344 13.7037C5.27344 13.9609 5.48199 14.1695 5.73925 14.1695ZM11.7949 4.38723C11.7949 3.87269 12.212 3.45558 12.7265 3.45558H17.3847C17.8992 3.45558 18.3163 3.87269 18.3163 4.38723V6.25052C18.3163 6.76505 17.8992 7.18216 17.3847 7.18216H12.7265C12.212 7.18216 11.7949 6.76505 11.7949 6.25052V4.38723ZM16.1307 8.11381C16.4377 8.98024 17.3204 11.873 17.3782 16.4986H12.733C12.7908 11.873 13.6735 8.98024 13.9805 8.11381H16.1307ZM18.7821 17.4303C19.0394 17.4303 19.2479 17.6388 19.2479 17.8961V18.2585C18.4024 18.2174 17.5558 18.3169 16.7428 18.5529C16.1916 18.7035 15.6261 18.7956 15.0556 18.8277C14.4851 18.7956 13.9196 18.7035 13.3684 18.5529C12.5553 18.3171 11.7088 18.2177 10.8632 18.2585V17.8961C10.8632 17.6388 11.0718 17.4303 11.3291 17.4303H18.7821ZM10.3974 27.2125C10.3974 27.4698 10.1889 27.6784 9.93161 27.6784C9.67434 27.6784 9.46579 27.4698 9.46579 27.2125C9.46579 26.9553 9.67434 26.7467 9.93161 26.7467C10.1889 26.7467 10.3974 26.9553 10.3974 27.2125ZM15.5214 27.2125C15.5214 27.4698 15.3129 27.6784 15.0556 27.6784C14.7983 27.6784 14.5898 27.4698 14.5898 27.2125C14.5898 26.9553 14.7983 26.7467 15.0556 26.7467C15.3129 26.7467 15.5214 26.9553 15.5214 27.2125ZM20.1796 27.6784C19.9223 27.6784 19.7138 27.4698 19.7138 27.2125C19.7138 26.9553 19.9223 26.7467 20.1796 26.7467C20.4368 26.7467 20.6454 26.9553 20.6454 27.2125C20.6454 27.4698 20.4368 27.6784 20.1796 27.6784ZM20.6454 25.3492V25.8151H9.46579V25.3492C9.46579 25.092 9.67434 24.8834 9.93161 24.8834H20.1796C20.4368 24.8834 20.6454 25.092 20.6454 25.3492ZM15.9872 23.9518H14.124V22.5543H15.9872V23.9518ZM16.453 21.6227H11.1315C10.9506 20.8256 10.862 20.0103 10.8674 19.1929C11.6413 19.1468 12.4173 19.2375 13.1597 19.4608C13.779 19.6285 14.4147 19.7287 15.0556 19.7594C15.6965 19.7287 16.3322 19.6285 16.9515 19.4608C17.6939 19.2378 18.4699 19.1471 19.2437 19.1929C19.2489 20.0101 19.1613 20.8253 18.9824 21.6227H16.453ZM22.0428 18.3619C21.9804 19.6755 21.1874 20.8434 19.9895 21.386C20.1279 20.5405 20.1915 19.6844 20.1796 18.8277V18.6372C20.1599 18.1434 20.2898 17.6552 20.5522 17.2365C20.6943 17.0742 20.8959 16.9761 21.1112 16.9644C21.1494 16.9644 22.0428 16.9803 22.0428 18.3619ZM20.3021 6.23747C21.1238 6.7196 21.577 6.98558 21.577 8.11381C21.5531 8.93573 21.2741 9.72984 20.7786 10.3861C20.0862 11.3538 19.7139 12.5138 19.7138 13.7037C19.7138 14.3386 19.7375 14.8738 19.7603 15.3457C19.79 15.8021 19.7943 16.2598 19.7734 16.7166C19.7431 16.7557 19.7147 16.7972 19.6877 16.8396C19.4367 16.6207 19.1152 16.4996 18.7821 16.4986H18.3098C18.3322 13.6599 17.9303 10.8337 17.1173 8.11381H17.3847C18.4137 8.11381 19.2479 7.27958 19.2479 6.25052V5.53315C19.5805 5.79496 19.9329 6.03045 20.3021 6.23747ZM15.0556 1.59229C16.1363 1.59229 16.5984 1.90439 17.0353 2.52393H13.0759C13.5128 1.90439 13.9749 1.59229 15.0556 1.59229ZM9.33257 10.3861C8.83713 9.72984 8.5581 8.93573 8.53416 8.11381C8.53416 6.98558 8.9874 6.7196 9.8091 6.23747C10.1782 6.03045 10.5307 5.79496 10.8632 5.53315V6.25052C10.8632 7.27958 11.6975 8.11381 12.7265 8.11381H12.9939C12.1809 10.8337 11.7789 13.6599 11.8014 16.4986H11.3291C10.9965 16.4999 10.6755 16.621 10.4249 16.8396C10.3979 16.7972 10.3695 16.7562 10.3392 16.7166C10.3183 16.2598 10.3226 15.8021 10.3522 15.3457C10.3737 14.8738 10.3988 14.3386 10.3988 13.7037C10.3983 12.5136 10.0254 11.3536 9.33257 10.3861ZM8.99997 16.9644C9.21527 16.976 9.41682 17.0739 9.55895 17.236C9.82149 17.6549 9.95138 18.1433 9.93161 18.6372V18.8277C9.9197 19.6844 9.9833 20.5405 10.1217 21.386C8.92378 20.8434 8.13079 19.6755 8.06834 18.3619C8.06834 17.0576 8.84998 16.9691 8.99997 16.9644Z" fill="#1F2B32"/>
</g>
<defs>
<clipPath id="clip0_52_1749">
<rect width="28.4148" height="28.4152" fill="white" transform="translate(0.851562 0.656738)"/>
</clipPath>
</defs>
</svg>
