<svg width="24" height="24" viewBox="0 0 24 24" fill="none" xmlns="http://www.w3.org/2000/svg">
<g clip-path="url(#clip0_52_1729)">
<path d="M20.0531 8.29952L19.2558 8.03375C18.926 7.92381 18.5752 7.97736 18.2932 8.1806C18.0112 8.38388 17.8495 8.69976 17.8495 9.04737V11.7806C17.8495 12.3658 18.3257 12.8419 18.9108 12.8419H18.9498V13.3989C18.9498 14.0563 18.4504 14.5991 17.811 14.6682C17.6377 13.8359 16.8987 13.2087 16.0157 13.2087H12.7148V10.2745H15.0028C15.9757 10.2745 16.7934 9.54568 16.9049 8.57919L17.4199 4.11608C17.5404 3.0722 17.2085 2.02364 16.5093 1.23921C15.8102 0.454774 14.8066 0.00488281 13.7558 0.00488281H9.47317C8.42243 0.00488281 7.41877 0.454774 6.71967 1.23921C6.02052 2.02364 5.68864 3.07224 5.80907 4.11608L6.32406 8.57919C6.43556 9.54568 7.25331 10.2745 8.22616 10.2745H10.5142V13.2087H7.21329C6.33039 13.2087 5.59131 13.8359 5.41796 14.6682C4.77864 14.5991 4.27915 14.0563 4.27915 13.3989V12.8419H4.30647C4.89812 12.8419 5.37945 12.3606 5.37945 11.7689V9.04742C5.37945 8.69981 5.21775 8.38388 4.93576 8.18064C4.6538 7.97741 4.3029 7.92386 3.97313 8.0338L3.17591 8.29957C2.73891 8.44518 2.44531 8.85252 2.44531 9.31314V11.7689C2.44531 12.3606 2.92665 12.8419 3.51829 12.8419H3.54561V13.3989C3.54561 14.4601 4.37226 15.3313 5.4154 15.4039C5.58365 16.2426 6.32576 16.8764 7.21329 16.8764H10.1474V19.077H9.41389C8.1033 19.077 7.01968 20.0644 6.86592 21.3341C6.42896 21.48 6.11299 21.8926 6.11299 22.378C6.11299 22.9847 6.60656 23.4783 7.21329 23.4783C7.82001 23.4783 8.31359 22.9847 8.31359 22.378C8.31359 22.2465 8.29035 22.1205 8.24789 22.0035C8.66179 21.984 9.07358 21.9242 9.47565 21.8237L10.938 21.4581C11.3806 21.3474 11.8485 21.3474 12.291 21.4581L13.7533 21.8237C14.1554 21.9242 14.5672 21.984 14.9811 22.0035C14.9387 22.1205 14.9154 22.2465 14.9154 22.378C14.9154 22.9847 15.409 23.4783 16.0157 23.4783C16.6224 23.4783 17.116 22.9847 17.116 22.378C17.116 21.8926 16.8 21.48 16.3631 21.3341C16.2093 20.0644 15.1257 19.077 13.8151 19.077H13.0816V16.8764H16.0157C16.9032 16.8764 17.6453 16.2426 17.8136 15.4039C18.8567 15.3313 19.6834 14.4601 19.6834 13.3989V12.8419H19.7224C20.3076 12.8419 20.7837 12.3658 20.7837 11.7806V9.31314C20.7837 8.85252 20.4901 8.44518 20.0531 8.29952ZM3.17885 11.7689V9.31319C3.17885 9.16882 3.27086 9.04114 3.40785 8.99547L4.20511 8.7297C4.24036 8.71796 4.2764 8.71219 4.31207 8.71219C4.38097 8.71219 4.4486 8.73378 4.50682 8.77578C4.59521 8.8395 4.64592 8.93853 4.64592 9.04746V11.769C4.64592 11.9561 4.49362 12.1084 4.30647 12.1084H3.51829C3.33115 12.1084 3.17885 11.9561 3.17885 11.7689ZM7.05274 8.4951L6.53775 4.03204C6.44129 3.1958 6.70715 2.35575 7.26725 1.72729C7.82735 1.09887 8.6314 0.738427 9.47317 0.738427H13.7558C14.5976 0.738427 15.4016 1.09887 15.9617 1.72729C16.5218 2.35571 16.7877 3.1958 16.6912 4.03204L16.1763 8.49515C16.1075 9.09138 15.603 9.541 15.0028 9.541H12.348H10.881H8.22616C7.62599 9.54096 7.12155 9.09134 7.05274 8.4951ZM11.2477 10.2745H11.9813V13.2087H11.2477V10.2745ZM7.21329 22.7447C7.01106 22.7447 6.84652 22.5802 6.84652 22.378C6.84652 22.1757 7.01106 22.0112 7.21329 22.0112C7.41552 22.0112 7.58006 22.1757 7.58006 22.378C7.58006 22.5802 7.41552 22.7447 7.21329 22.7447ZM16.0157 22.7447C15.8135 22.7447 15.6489 22.5802 15.6489 22.378C15.6489 22.1757 15.8135 22.0112 16.0157 22.0112C16.2179 22.0112 16.3825 22.1757 16.3825 22.378C16.3825 22.5802 16.2179 22.7447 16.0157 22.7447ZM15.6121 21.2777H15.2767C14.8235 21.2777 14.3709 21.222 13.9313 21.112L12.4689 20.7464C12.1894 20.6765 11.902 20.6416 11.6145 20.6416C11.327 20.6416 11.0396 20.6765 10.7601 20.7464L9.29777 21.112C8.85815 21.2219 8.40551 21.2777 7.95233 21.2777H7.61696C7.78737 20.4416 8.52838 19.8106 9.41394 19.8106H10.5142H12.7148H13.8152C14.7007 19.8106 15.4417 20.4416 15.6121 21.2777ZM12.348 19.077H10.881V16.8764H12.348V19.077ZM16.0157 16.1429H12.7148H10.5142H7.21329C6.60661 16.1429 6.11299 15.6492 6.11299 15.0425C6.11299 14.4358 6.60661 13.9422 7.21329 13.9422H10.881H12.348H16.0157C16.6224 13.9422 17.116 14.4358 17.116 15.0425C17.116 15.6492 16.6224 16.1429 16.0157 16.1429ZM20.0502 11.7806C20.0502 11.9613 19.9031 12.1084 19.7224 12.1084H18.9108C18.7301 12.1084 18.5831 11.9613 18.5831 11.7806V9.04742C18.5831 8.93849 18.6338 8.83941 18.7222 8.77573C18.7804 8.73374 18.848 8.71214 18.917 8.71214C18.9526 8.71214 18.9887 8.71792 19.0239 8.72966L19.8212 8.99543C19.9581 9.04109 20.0502 9.16877 20.0502 9.31314V11.7806H20.0502Z" fill="#1F2B32"/>
</g>
<defs>
<clipPath id="clip0_52_1729">
<rect width="23.4731" height="23.4734" fill="white" transform="translate(0.328125 0.000976562)"/>
</clipPath>
</defs>
</svg>
