<svg width="40" height="40" viewBox="0 0 40 40" fill="none" xmlns="http://www.w3.org/2000/svg">
<path d="M39.2891 7.76176C38.7709 7.15441 38.0451 6.78344 37.2453 6.71722L9.07691 4.38557C8.27707 4.31935 7.49942 4.56587 6.88669 5.07958C6.27646 5.59128 5.90279 6.30713 5.83388 7.09609L5.26717 12.3669H3.00428C1.34773 12.3669 0 13.7029 0 15.3452V32.8253C0 34.4675 1.34773 35.8036 3.00428 35.8036H31.2708C32.9274 35.8036 34.2752 34.4675 34.2752 32.8253V29.9897L35.2782 30.0727C35.3628 30.0797 35.447 30.0832 35.5304 30.0832C37.0748 30.0832 38.3913 28.9053 38.5221 27.3526L39.9894 9.93309C40.0561 9.14026 39.8074 8.36918 39.2891 7.76176ZM3.00428 13.9159H31.2708C32.0658 13.9159 32.7127 14.557 32.7127 15.3452V16.9379H1.56249V15.3452C1.56249 14.557 2.20929 13.9159 3.00428 13.9159ZM1.56249 18.4869H32.7127V21.7001H1.56249V18.4869ZM31.2708 34.2546H3.00428C2.20929 34.2546 1.56249 33.6134 1.56249 32.8253V23.2491H32.7127V32.8253C32.7127 33.6134 32.0658 34.2546 31.2708 34.2546ZM38.4323 9.80414L36.965 27.2237C36.8988 28.0091 36.2003 28.5949 35.4082 28.5291L34.2752 28.4353V15.3452C34.2752 13.7029 32.9274 12.3669 31.2708 12.3669H6.83856L7.38848 7.25223C7.38911 7.24634 7.38966 7.24053 7.39012 7.23457C7.4563 6.44917 8.15442 5.86335 8.94691 5.92919L37.1154 8.26083C37.4992 8.29259 37.8476 8.47064 38.0962 8.76215C38.3449 9.05367 38.4643 9.42364 38.4323 9.80414Z" fill="#1F2B32"/>
<path d="M29.4431 25.5518H21.9242C21.4927 25.5518 21.143 25.8985 21.143 26.3263V31.1892C21.143 31.6169 21.4927 31.9636 21.9242 31.9636H29.4431C29.8746 31.9636 30.2244 31.6169 30.2244 31.1892V26.3263C30.2244 25.8985 29.8746 25.5518 29.4431 25.5518ZM28.6619 30.4147H22.7055V27.1007H28.6619V30.4147Z" fill="#1F2B32"/>
</svg>
