<svg width="41" height="40" viewBox="0 0 41 40" fill="none" xmlns="http://www.w3.org/2000/svg">
<path fill-rule="evenodd" clip-rule="evenodd" d="M27.7102 19.6206C27.7102 22.0693 29.6952 24.0543 32.1439 24.0543H38.4121C38.8664 24.0543 39.2347 23.686 39.2347 23.2317V16.0097C39.2347 15.5554 38.8664 15.187 38.4121 15.187H32.1439C29.6952 15.187 27.7102 17.172 27.7102 19.6206ZM32.1439 22.4091C30.6038 22.4091 29.3555 21.1607 29.3555 19.6206C29.3555 18.0807 30.6038 16.8323 32.1439 16.8323H37.5894V22.4091H32.1439Z" fill="#1F2B32"/>
<path fill-rule="evenodd" clip-rule="evenodd" d="M2.34399 29.5294C2.34399 31.5152 3.95366 33.125 5.93949 33.125H33.7338C35.7196 33.125 37.3294 31.5152 37.3294 29.5294V23.4205C37.3294 22.9662 36.9611 22.5979 36.5067 22.5979C36.0524 22.5979 35.6841 22.9662 35.6841 23.4205V29.5294C35.6841 30.6066 34.8109 31.4797 33.7338 31.4797H5.93949C4.86239 31.4797 3.98926 30.6066 3.98926 29.5294V9.71179C3.98926 8.63461 4.86239 7.76147 5.93949 7.76147H33.7338C34.8109 7.76147 35.6841 8.63465 35.6841 9.71179V15.8804C35.6841 16.3348 36.0524 16.7031 36.5067 16.7031C36.9611 16.7031 37.3294 16.3348 37.3294 15.8804V9.71179C37.3294 7.72599 35.7196 6.1162 33.7338 6.1162H5.93949C3.95366 6.1162 2.34399 7.72603 2.34399 9.71179V29.5294Z" fill="#1F2B32"/>
<circle cx="8.479" cy="19.6875" r="1.5625" fill="#1F2B32"/>
<circle cx="14.104" cy="19.6875" r="1.5625" fill="#1F2B32"/>
</svg>
