<svg width="26" height="26" viewBox="0 0 26 26" fill="none" xmlns="http://www.w3.org/2000/svg">
<g clip-path="url(#clip0_72_7175)">
<path d="M23.3578 23.1917H2.64217C2.39672 23.1917 2.19772 22.9927 2.19772 22.7473C2.19772 22.5019 2.39672 22.3029 2.64217 22.3029H23.3578C23.6033 22.3029 23.8023 22.5019 23.8023 22.7473C23.8023 22.9927 23.6033 23.1917 23.3578 23.1917Z" fill="#1F2B32"/>
<path d="M25.8091 17.7086L24.918 7.37517C24.8481 6.56461 24.1818 5.94444 23.3682 5.94444H18.7222V4.72222H22.3313C22.5768 4.72222 22.7778 4.52122 22.7778 4.27572V0.444444C22.7778 0.199 22.5768 0 22.3313 0H14.2614C14.0159 0 13.8333 0.199 13.8333 0.444444V4.27572C13.8333 4.52117 14.0159 4.72222 14.2614 4.72222H17.8333V5.94444H12.7209C12.4754 5.94444 12.2764 6.14344 12.2764 6.38889C12.2764 6.63433 12.4754 6.83333 12.7209 6.83333H23.3682C23.7169 6.83333 24.0024 7.10422 24.0324 7.45161L24.9236 17.7806C24.9445 18.0232 25.1627 18.2058 25.4046 18.1885C25.6459 18.1713 25.8297 17.9473 25.8091 17.7086ZM14.7222 0.888889H21.8889V3.83333H14.7222V0.888889Z" fill="#1F2B32"/>
<path d="M25.5556 19.5H0.928888L1.9675 7.45429C2.00478 7.02267 2.37372 6.82312 2.76744 6.83334C3.01289 6.83334 3.21189 6.63434 3.21189 6.3889C3.21189 6.14345 3.01289 5.94445 2.76744 5.94445C1.91322 5.93517 1.15883 6.48373 1.08189 7.37517L0.00166607 19.8964C0.00133274 19.9106 0.000777182 19.9248 -5.96046e-07 19.9391V24.4445C-5.96046e-07 25.3022 0.697833 26 1.55555 26H24.4444C25.3022 26 26 25.3022 26 24.4445V19.9391C26 19.6936 25.801 19.5 25.5556 19.5ZM25.1111 24.4445C25.1111 24.8121 24.8121 25.1111 24.4444 25.1111H1.55555C1.18794 25.1111 0.888888 24.8121 0.888888 24.4445V20.3889H25.1111V24.4445Z" fill="#1F2B32"/>
<path d="M11.0542 11.8857H4.43417C4.18872 11.8857 3.98972 11.6867 3.98972 11.4413V2.93068C3.98972 2.53734 4.49044 2.33751 4.76017 2.62857L5.49422 3.42062L6.29889 2.61629C6.47244 2.44284 6.75378 2.44284 6.92733 2.61629L7.74428 3.4329L8.56122 2.61629C8.73478 2.44284 9.01611 2.44284 9.18967 2.61629L9.99433 3.42062L10.7283 2.62857C10.9973 2.33823 11.4988 2.53662 11.4988 2.93068V11.4413C11.4987 11.6868 11.2997 11.8857 11.0542 11.8857ZM4.87861 10.9968H10.6098V4.06418L10.3324 4.3634C10.1637 4.54551 9.86789 4.55129 9.69228 4.37568L8.87533 3.55907L8.05839 4.37568C7.88483 4.54912 7.6035 4.54912 7.42994 4.37568L6.613 3.55907L5.79606 4.37568C5.62033 4.55129 5.32467 4.54562 5.15589 4.3634L4.87856 4.06412L4.87861 10.9968Z" fill="#1F2B32"/>
<path d="M9.06733 8.08274H6.421C6.17556 8.08274 5.97656 7.88374 5.97656 7.63829C5.97656 7.39285 6.17556 7.19385 6.421 7.19385H9.06733C9.31278 7.19385 9.51178 7.39285 9.51178 7.63829C9.51178 7.88374 9.31283 8.08274 9.06733 8.08274Z" fill="#1F2B32"/>
<path d="M9.06733 6.23764H6.421C6.17556 6.23764 5.97656 6.03864 5.97656 5.7932C5.97656 5.54775 6.17556 5.34875 6.421 5.34875H9.06733C9.31278 5.34875 9.51178 5.54775 9.51178 5.7932C9.51178 6.03864 9.31283 6.23764 9.06733 6.23764Z" fill="#1F2B32"/>
<path d="M9.06733 9.92771H6.421C6.17556 9.92771 5.97656 9.72871 5.97656 9.48326C5.97656 9.23782 6.17556 9.03882 6.421 9.03882H9.06733C9.31278 9.03882 9.51178 9.23782 9.51178 9.48326C9.51178 9.72871 9.31283 9.92771 9.06733 9.92771Z" fill="#1F2B32"/>
<path d="M21.7352 13.0453H14.7764C14.5309 13.0453 14.3319 12.8463 14.3319 12.6009V9.32518C14.3319 9.07974 14.5309 8.88074 14.7764 8.88074H21.7352C21.9807 8.88074 22.1797 9.07974 22.1797 9.32518V12.6009C22.1797 12.8464 21.9807 13.0453 21.7352 13.0453ZM15.2208 12.1565H21.2908V9.76963H15.2208V12.1565Z" fill="#1F2B32"/>
<path d="M15.936 15.2403H14.8169C14.5715 15.2403 14.3725 15.0413 14.3725 14.7959C14.3725 14.5504 14.5715 14.3514 14.8169 14.3514H15.936C16.1814 14.3514 16.3804 14.5504 16.3804 14.7959C16.3804 15.0413 16.1814 15.2403 15.936 15.2403Z" fill="#1F2B32"/>
<path d="M18.8559 15.2403H17.7368C17.4914 15.2403 17.2924 15.0413 17.2924 14.7959C17.2924 14.5504 17.4914 14.3514 17.7368 14.3514H18.8559C19.1013 14.3514 19.3003 14.5504 19.3003 14.7959C19.3003 15.0413 19.1013 15.2403 18.8559 15.2403Z" fill="#1F2B32"/>
<path d="M21.7758 15.2403H20.6567C20.4113 15.2403 20.2123 15.0413 20.2123 14.7959C20.2123 14.5504 20.4113 14.3514 20.6567 14.3514H21.7758C22.0212 14.3514 22.2202 14.5504 22.2202 14.7959C22.2202 15.0413 22.0212 15.2403 21.7758 15.2403Z" fill="#1F2B32"/>
<path d="M15.936 17.5466H14.8169C14.5715 17.5466 14.3725 17.3476 14.3725 17.1022C14.3725 16.8567 14.5715 16.6577 14.8169 16.6577H15.936C16.1814 16.6577 16.3804 16.8567 16.3804 17.1022C16.3804 17.3476 16.1814 17.5466 15.936 17.5466Z" fill="#1F2B32"/>
<path d="M18.8559 17.5466H17.7368C17.4914 17.5466 17.2924 17.3476 17.2924 17.1022C17.2924 16.8567 17.4914 16.6577 17.7368 16.6577H18.8559C19.1013 16.6577 19.3003 16.8567 19.3003 17.1022C19.3003 17.3476 19.1013 17.5466 18.8559 17.5466Z" fill="#1F2B32"/>
<path d="M21.7758 17.5466H20.6567C20.4113 17.5466 20.2123 17.3476 20.2123 17.1022C20.2123 16.8567 20.4113 16.6577 20.6567 16.6577H21.7758C22.0212 16.6577 22.2202 16.8567 22.2202 17.1022C22.2202 17.3476 22.0212 17.5466 21.7758 17.5466Z" fill="#1F2B32"/>
<path d="M11.0542 17.5466H4.43417C4.18872 17.5466 3.98972 17.3476 3.98972 17.1021V14.0181C3.98972 13.7726 4.18872 13.5736 4.43417 13.5736H11.0542C11.2997 13.5736 11.4987 13.7726 11.4987 14.0181V17.1021C11.4987 17.3476 11.2997 17.5466 11.0542 17.5466ZM4.87861 16.6577H10.6098V14.4625H4.87861V16.6577Z" fill="#1F2B32"/>
</g>
<defs>
<clipPath id="clip0_72_7175">
<rect width="26" height="26" fill="white"/>
</clipPath>
</defs>
</svg>
