<svg width="28" height="22" viewBox="0 0 28 22" fill="none" xmlns="http://www.w3.org/2000/svg">
<path d="M27.5024 2.37073C27.1396 1.94559 26.6315 1.68591 26.0717 1.63955L6.35384 0.00739925C5.79395 -0.0389534 5.2496 0.133608 4.82068 0.493207C4.39352 0.851396 4.13195 1.35249 4.08372 1.90477L3.68702 5.59432H2.103C0.94341 5.59432 0 6.52956 0 7.67911V19.9152C0 21.0648 0.94341 22 2.103 22H21.8896C23.0492 22 23.9926 21.0648 23.9926 19.9152V17.9303L24.6947 17.9884C24.754 17.9933 24.8129 17.9957 24.8713 17.9957C25.9523 17.9957 26.8739 17.1712 26.9655 16.0843L27.9926 3.89066C28.0393 3.33568 27.8652 2.79593 27.5024 2.37073ZM2.103 6.6786H21.8896C22.4461 6.6786 22.8989 7.12743 22.8989 7.67911V8.79406H1.09375V7.67911C1.09375 7.12743 1.5465 6.6786 2.103 6.6786ZM1.09375 9.87833H22.8989V12.1276H1.09375V9.87833ZM21.8896 20.9157H2.103C1.5465 20.9157 1.09375 20.4669 1.09375 19.9152V13.2119H22.8989V19.9152C22.8989 20.4669 22.4461 20.9157 21.8896 20.9157ZM26.9026 3.8004L25.8755 15.9941C25.8292 16.5438 25.3402 16.954 24.7857 16.9079L23.9926 16.8422V7.67911C23.9926 6.52956 23.0492 5.59432 21.8896 5.59432H4.78699L5.17194 2.01406C5.17238 2.00994 5.17276 2.00587 5.17309 2.0017C5.21941 1.45192 5.70809 1.04185 6.26284 1.08793L25.9808 2.72008C26.2495 2.74231 26.4933 2.86695 26.6674 3.07101C26.8414 3.27507 26.925 3.53405 26.9026 3.8004Z" fill="#1F2B32"/>
<path d="M20.6102 14.8237H15.3469C15.0449 14.8237 14.8001 15.0665 14.8001 15.3659V18.7699C14.8001 19.0693 15.0449 19.312 15.3469 19.312H20.6102C20.9122 19.312 21.1571 19.0693 21.1571 18.7699V15.3659C21.1571 15.0665 20.9122 14.8237 20.6102 14.8237ZM20.0633 18.2278H15.8938V15.908H20.0633V18.2278Z" fill="#1F2B32"/>
</svg>
