<svg width="30" height="30" viewBox="0 0 30 30" fill="none" xmlns="http://www.w3.org/2000/svg">
<g clip-path="url(#clip0_72_7247)">
<mask id="mask0_72_7247" style="mask-type:luminance" maskUnits="userSpaceOnUse" x="0" y="0" width="30" height="30">
<path d="M0 0H30V30H0V0Z" fill="white"/>
</mask>
<g mask="url(#mask0_72_7247)">
<path fill-rule="evenodd" clip-rule="evenodd" d="M4.39453 21.75C2.86695 21.75 1.62891 20.512 1.62891 18.9844V11.9531C1.62891 10.4255 2.86695 9.1875 4.39453 9.1875H25.6055C27.1331 9.1875 28.3711 10.4255 28.3711 11.9531V18.9844C28.3711 20.512 27.1331 21.75 25.6055 21.75H23.9062C23.492 21.75 23.1562 22.0858 23.1562 22.5C23.1562 22.9142 23.492 23.25 23.9062 23.25H25.6055C27.9615 23.25 29.8711 21.3404 29.8711 18.9844V11.9531C29.8711 9.59711 27.9615 7.6875 25.6055 7.6875H4.39453C2.03852 7.6875 0.128906 9.59711 0.128906 11.9531V18.9844C0.128906 21.3404 2.03852 23.25 4.39453 23.25H6.09375C6.50796 23.25 6.84375 22.9142 6.84375 22.5C6.84375 22.0858 6.50796 21.75 6.09375 21.75H4.39453Z" fill="black"/>
<path fill-rule="evenodd" clip-rule="evenodd" d="M3.9375 17.8125C3.9375 18.2267 4.27329 18.5625 4.6875 18.5625H25.3125C25.7267 18.5625 26.0625 18.2267 26.0625 17.8125C26.0625 17.3983 25.7267 17.0625 25.3125 17.0625H4.6875C4.27329 17.0625 3.9375 17.3983 3.9375 17.8125Z" fill="black"/>
<path fill-rule="evenodd" clip-rule="evenodd" d="M7.85156 28.3711C7.29499 28.3711 6.84375 27.9198 6.84375 27.3633V18.5625H23.1562V27.3633C23.1562 27.9198 22.705 28.3711 22.1484 28.3711H7.85156ZM5.34375 27.3633C5.34375 28.7483 6.46657 29.8711 7.85156 29.8711H22.1484C23.5334 29.8711 24.6562 28.7483 24.6562 27.3633V17.8125C24.6562 17.3983 24.3205 17.0625 23.9062 17.0625H6.09375C5.67954 17.0625 5.34375 17.3983 5.34375 17.8125V27.3633Z" fill="black"/>
<path fill-rule="evenodd" clip-rule="evenodd" d="M11.9062 21.5625C11.9062 21.9767 12.242 22.3125 12.6562 22.3125H17.3438C17.758 22.3125 18.0938 21.9767 18.0938 21.5625C18.0938 21.1483 17.758 20.8125 17.3438 20.8125H12.6562C12.242 20.8125 11.9062 21.1483 11.9062 21.5625Z" fill="black"/>
<path fill-rule="evenodd" clip-rule="evenodd" d="M11.9062 25.3125C11.9062 25.7267 12.242 26.0625 12.6562 26.0625H17.3438C17.758 26.0625 18.0938 25.7267 18.0938 25.3125C18.0938 24.8983 17.758 24.5625 17.3438 24.5625H12.6562C12.242 24.5625 11.9062 24.8983 11.9062 25.3125Z" fill="black"/>
<path fill-rule="evenodd" clip-rule="evenodd" d="M3.9375 12.1875C3.9375 12.6017 4.27329 12.9375 4.6875 12.9375H7.5C7.91421 12.9375 8.25 12.6017 8.25 12.1875C8.25 11.7733 7.91421 11.4375 7.5 11.4375H4.6875C4.27329 11.4375 3.9375 11.7733 3.9375 12.1875Z" fill="black"/>
<path fill-rule="evenodd" clip-rule="evenodd" d="M5.34375 8.4375C5.34375 8.85171 5.67954 9.1875 6.09375 9.1875H23.9062C24.3205 9.1875 24.6562 8.85171 24.6562 8.4375V4.39453C24.6562 2.0387 22.7465 0.128905 20.3906 0.128905H9.60938C7.25354 0.128905 5.34375 2.0387 5.34375 4.39453V8.4375ZM6.84375 7.6875V4.39453C6.84375 2.86712 8.08197 1.62891 9.60938 1.62891H20.3906C21.918 1.62891 23.1562 2.86712 23.1562 4.39453V7.6875H6.84375Z" fill="black"/>
</g>
</g>
<defs>
<clipPath id="clip0_72_7247">
<rect width="30" height="30" fill="white"/>
</clipPath>
</defs>
</svg>
