<svg width="21" height="21" viewBox="0 0 21 21" fill="none" xmlns="http://www.w3.org/2000/svg">
<g clip-path="url(#clip0_958_4372)">
<path d="M14.6203 1.26416C13.6812 1.27876 12.7626 1.5407 11.9572 2.02355C11.1518 2.5064 10.4882 3.19305 10.0334 4.01416C9.57853 3.19305 8.91492 2.5064 8.10953 2.02355C7.30414 1.5407 6.3855 1.27876 5.44638 1.26416C3.94931 1.32915 2.53882 1.98354 1.52308 3.08435C0.507333 4.18517 -0.031104 5.64293 0.0253998 7.13916C0.0253998 12.785 9.16267 19.3058 9.55131 19.5825L10.0334 19.9233L10.5154 19.5825C10.9041 19.3075 20.0413 12.785 20.0413 7.13916C20.0978 5.64293 19.5594 4.18517 18.5436 3.08435C17.5279 1.98354 16.1174 1.32915 14.6203 1.26416ZM10.0334 17.8717C7.32037 15.8467 1.69339 10.8717 1.69339 7.13916C1.63638 6.08476 1.99894 5.0506 2.702 4.26224C3.40506 3.47389 4.39157 2.99529 5.44638 2.93083C6.50119 2.99529 7.4877 3.47389 8.19076 4.26224C8.89382 5.0506 9.25638 6.08476 9.19937 7.13916H10.8674C10.8103 6.08476 11.1729 5.0506 11.876 4.26224C12.579 3.47389 13.5655 2.99529 14.6203 2.93083C15.6752 2.99529 16.6617 3.47389 17.3647 4.26224C18.0678 5.0506 18.4303 6.08476 18.3733 7.13916C18.3733 10.8733 12.7464 15.8467 10.0334 17.8717Z" fill="white"/>
</g>
<defs>
<clipPath id="clip0_958_4372">
<rect width="20.0159" height="20" fill="white" transform="translate(0.0253906 0.5)"/>
</clipPath>
</defs>
</svg>
