<svg width="20" height="20" viewBox="0 0 20 20" fill="none" xmlns="http://www.w3.org/2000/svg">
<g clip-path="url(#clip0_46_4629)">
<path fill-rule="evenodd" clip-rule="evenodd" d="M2.37366 14.755C2.37366 16.3089 3.63334 17.5685 5.18723 17.5685H18.2597C18.5488 17.5685 18.7832 17.3342 18.7832 17.0451C18.7832 16.756 18.5488 16.5216 18.2597 16.5216H5.18723C4.21153 16.5216 3.42057 15.7307 3.42057 14.755V2.04482C3.42057 1.75573 3.18621 1.52137 2.89711 1.52137C2.60802 1.52137 2.37366 1.75573 2.37366 2.04482V14.755Z" fill="#1F2B32"/>
<path fill-rule="evenodd" clip-rule="evenodd" d="M18.7424 3.67044C18.7424 2.49421 17.7816 1.54865 16.6063 1.54865H7.4009C7.11181 1.54865 6.87745 1.783 6.87745 2.0721C6.87745 2.3612 7.11181 2.59556 7.4009 2.59556H16.6063C17.2123 2.59556 17.6955 3.08119 17.6955 3.67044V12.5412C17.6955 12.8303 17.9299 13.0647 18.219 13.0647C18.5081 13.0647 18.7424 12.8303 18.7424 12.5412V3.67044Z" fill="#1F2B32"/>
<path fill-rule="evenodd" clip-rule="evenodd" d="M0.463316 3.06133C0.666348 3.26713 0.997773 3.26938 1.20358 3.06635L2.49318 1.79411L2.49319 1.7941C2.7365 1.55405 3.13396 1.55405 3.37727 1.7941L3.37728 1.79411L4.66688 3.06635C4.87268 3.26938 5.20411 3.26713 5.40714 3.06133C5.61017 2.85553 5.60793 2.5241 5.40212 2.32107L4.11253 1.04884C4.11253 1.04884 4.11252 1.04884 4.11252 1.04883C3.46154 0.406591 2.40891 0.406591 1.75794 1.04883C1.75793 1.04884 1.75793 1.04884 1.75792 1.04884L0.468334 2.32107C0.262531 2.5241 0.260284 2.85553 0.463316 3.06133Z" fill="#1F2B32"/>
<path fill-rule="evenodd" clip-rule="evenodd" d="M16.8379 19.4741C17.041 19.6798 17.3725 19.6818 17.5782 19.4787L18.8864 18.1868C19.538 17.5352 19.538 16.4788 18.8863 15.8272L18.884 15.8248L17.5782 14.5352C17.3725 14.3321 17.041 14.3342 16.8379 14.5399C16.6348 14.7456 16.6368 15.077 16.8425 15.2801L18.1471 16.5684C18.3885 16.8109 18.3885 17.203 18.1471 17.4455L16.8425 18.7338C16.6368 18.9369 16.6348 19.2684 16.8379 19.4741Z" fill="#1F2B32"/>
<mask id="mask0_46_4629" style="mask-type:alpha" maskUnits="userSpaceOnUse" x="4" y="3" width="13" height="13">
<path d="M4.0625 3.75H16.875V15.3125H4.0625V3.75Z" fill="#D9D9D9"/>
</mask>
<g mask="url(#mask0_46_4629)">
<path fill-rule="evenodd" clip-rule="evenodd" d="M17.5453 -7.78208L3.79532 6.28042L3.125 5.625L16.875 -8.4375L17.5453 -7.78208Z" fill="#1F2B32"/>
<path fill-rule="evenodd" clip-rule="evenodd" d="M17.5453 -4.31415L3.79532 9.74834L3.125 9.09292L16.875 -4.96958L17.5453 -4.31415Z" fill="#1F2B32"/>
<path fill-rule="evenodd" clip-rule="evenodd" d="M17.5453 -0.846233L3.79532 13.2163L3.125 12.5608L16.875 -1.50166L17.5453 -0.846233Z" fill="#1F2B32"/>
<path fill-rule="evenodd" clip-rule="evenodd" d="M17.5453 2.62169L3.79532 16.6842L3.125 16.0288L16.875 1.96627L17.5453 2.62169Z" fill="#1F2B32"/>
<path fill-rule="evenodd" clip-rule="evenodd" d="M17.5453 6.08961L3.79532 20.1521L3.125 19.4967L16.875 5.43419L17.5453 6.08961Z" fill="#1F2B32"/>
<path fill-rule="evenodd" clip-rule="evenodd" d="M17.5453 9.55753L3.79532 23.62L3.125 22.9646L16.875 8.90211L17.5453 9.55753Z" fill="#1F2B32"/>
<path fill-rule="evenodd" clip-rule="evenodd" d="M17.5453 13.0255L3.79532 27.088L3.125 26.4325L16.875 12.37L17.5453 13.0255Z" fill="#1F2B32"/>
<path fill-rule="evenodd" clip-rule="evenodd" d="M17.5453 16.4934L3.79532 30.5559L3.125 29.9005L16.875 15.838L17.5453 16.4934Z" fill="#1F2B32"/>
<path fill-rule="evenodd" clip-rule="evenodd" d="M17.5453 19.9613L3.79532 34.0238L3.125 33.3684L16.875 19.3059L17.5453 19.9613Z" fill="#1F2B32"/>
<path fill-rule="evenodd" clip-rule="evenodd" d="M17.5453 23.4292L3.79532 37.4917L3.125 36.8363L16.875 22.7738L17.5453 23.4292Z" fill="#1F2B32"/>
<path fill-rule="evenodd" clip-rule="evenodd" d="M17.5453 26.8971L3.79532 40.9596L3.125 40.3042L16.875 26.2417L17.5453 26.8971Z" fill="#1F2B32"/>
</g>
</g>
<defs>
<clipPath id="clip0_46_4629">
<rect width="20" height="20" fill="white"/>
</clipPath>
</defs>
</svg>
