<svg width="20" height="20" viewBox="0 0 20 20" fill="none" xmlns="http://www.w3.org/2000/svg">
<path d="M9.84375 4.90091C7.96724 4.90091 6.44056 6.43645 6.44056 8.32384C6.44056 10.2112 7.96724 11.7468 9.84375 11.7468C11.7203 11.7468 13.2469 10.2112 13.2469 8.32384C13.2469 6.43645 11.7203 4.90091 9.84375 4.90091ZM9.84375 10.3056C8.75734 10.3056 7.87347 9.41655 7.87347 8.32384C7.87347 7.23113 8.75734 6.34214 9.84375 6.34214C10.9302 6.34214 11.814 7.23113 11.814 8.32384C11.814 9.41655 10.9302 10.3056 9.84375 10.3056Z" fill="#1F2B32"/>
<path d="M9.84375 0.9375C5.79439 0.9375 2.5 4.25103 2.5 8.32384V8.52802C2.5 10.5878 3.67413 12.9882 5.98987 15.6622C7.66861 17.6008 9.32389 18.9525 9.39349 19.0091V19.0091C9.6558 19.2222 10.0317 19.2223 10.294 19.0091V19.0091C10.3636 18.9525 12.0189 17.6008 13.6976 15.6623C16.0133 12.9882 17.1875 10.5879 17.1875 8.52806V8.32388C17.1875 4.25103 13.8931 0.9375 9.84375 0.9375ZM15.7546 8.52806C15.7546 11.2569 13.0142 14.4361 11.1306 16.2988C10.4143 17.0071 9.27317 17.0071 8.55692 16.2988C6.67328 14.436 3.93291 11.2568 3.93291 8.52806V8.32388C3.93291 5.04575 6.58452 2.37876 9.84375 2.37876C13.103 2.37876 15.7546 5.04575 15.7546 8.32388V8.52806Z" fill="#1F2B32"/>
</svg>
