<svg width="113" height="23" viewBox="0 0 113 23" fill="none" xmlns="http://www.w3.org/2000/svg">
<path d="M10.9749 2.21595C11.1838 1.5732 12.0931 1.5732 12.302 2.21595L13.9879 7.40487C14.0813 7.69231 14.3492 7.88693 14.6514 7.88693H20.1074C20.7832 7.88693 21.0642 8.75175 20.5175 9.14899L16.1035 12.3559C15.859 12.5336 15.7567 12.8485 15.8501 13.1359L17.536 18.3248C17.7449 18.9676 17.0092 19.5021 16.4625 19.1048L12.0485 15.8979C11.804 15.7202 11.4729 15.7202 11.2284 15.8979L6.81442 19.1048C6.26766 19.5021 5.53201 18.9676 5.74085 18.3248L7.42683 13.1359C7.52023 12.8485 7.41791 12.5336 7.17339 12.3559L2.75944 9.14899C2.21268 8.75175 2.49368 7.88693 3.16951 7.88693H8.62546C8.9277 7.88693 9.19556 7.69231 9.28896 7.40487L10.9749 2.21595Z" fill="#787878"/>
<path d="M33.2998 2.21595C33.5086 1.5732 34.4179 1.5732 34.6268 2.21595L36.3128 7.40487C36.4062 7.69231 36.674 7.88693 36.9763 7.88693H42.4322C43.108 7.88693 43.389 8.75175 42.8423 9.14899L38.4283 12.3559C38.1838 12.5336 38.0815 12.8485 38.1749 13.1359L39.8609 18.3248C40.0697 18.9676 39.3341 19.5021 38.7873 19.1048L34.3733 15.8979C34.1288 15.7202 33.7977 15.7202 33.5532 15.8979L29.1393 19.1048C28.5925 19.5021 27.8568 18.9676 28.0657 18.3248L29.7517 13.1359C29.8451 12.8485 29.7427 12.5336 29.4982 12.3559L25.0843 9.14899C24.5375 8.75175 24.8185 7.88693 25.4943 7.88693H30.9503C31.2525 7.88693 31.5204 7.69231 31.6138 7.40487L33.2998 2.21595Z" fill="#787878"/>
<path d="M55.6246 2.21595C55.8334 1.5732 56.7428 1.5732 56.9516 2.21595L58.6376 7.40487C58.731 7.69231 58.9989 7.88693 59.3011 7.88693H64.757C65.4329 7.88693 65.7139 8.75175 65.1671 9.14899L60.7532 12.3559C60.5086 12.5336 60.4063 12.8485 60.4997 13.1359L62.1857 18.3248C62.3945 18.9676 61.6589 19.5021 61.1121 19.1048L56.6982 15.8979C56.4537 15.7202 56.1226 15.7202 55.878 15.8979L51.4641 19.1048C50.9173 19.5021 50.1817 18.9676 50.3905 18.3248L52.0765 13.1359C52.1699 12.8485 52.0676 12.5336 51.8231 12.3559L47.4091 9.14899C46.8623 8.75175 47.1433 7.88693 47.8192 7.88693H53.2751C53.5774 7.88693 53.8452 7.69231 53.9386 7.40487L55.6246 2.21595Z" fill="#787878"/>
<path d="M77.9494 2.21595C78.1583 1.5732 79.0676 1.5732 79.2764 2.21595L80.9624 7.40487C81.0558 7.69231 81.3237 7.88693 81.6259 7.88693H87.0819C87.7577 7.88693 88.0387 8.75175 87.4919 9.14899L83.078 12.3559C82.8335 12.5336 82.7312 12.8485 82.8245 13.1359L84.5105 18.3248C84.7194 18.9676 83.9837 19.5021 83.437 19.1048L79.023 15.8979C78.7785 15.7202 78.4474 15.7202 78.2029 15.8979L73.7889 19.1048C73.2422 19.5021 72.5065 18.9676 72.7153 18.3248L74.4013 13.1359C74.4947 12.8485 74.3924 12.5336 74.1479 12.3559L69.7339 9.14899C69.1872 8.75175 69.4682 7.88693 70.144 7.88693H75.5999C75.9022 7.88693 76.1701 7.69231 76.2634 7.40487L77.9494 2.21595Z" fill="#787878"/>
<path d="M100.274 2.21595C100.483 1.5732 101.392 1.5732 101.601 2.21595L103.287 7.40487C103.381 7.69231 103.649 7.88693 103.951 7.88693H109.407C110.083 7.88693 110.364 8.75175 109.817 9.14899L105.403 12.3559C105.158 12.5336 105.056 12.8485 105.149 13.1359L106.835 18.3248C107.044 18.9676 106.309 19.5021 105.762 19.1048L101.348 15.8979C101.103 15.7202 100.772 15.7202 100.528 15.8979L96.1137 19.1048C95.567 19.5021 94.8313 18.9676 95.0402 18.3248L96.7261 13.1359C96.8195 12.8485 96.7172 12.5336 96.4727 12.3559L92.0588 9.14899C91.512 8.75175 91.793 7.88693 92.4688 7.88693H97.9248C98.227 7.88693 98.4949 7.69231 98.5883 7.40487L100.274 2.21595Z" fill="#787878"/>
</svg>
