<svg width="16" height="16" viewBox="0 0 16 16" fill="none" xmlns="http://www.w3.org/2000/svg">
<path d="M12.4736 3.52973C12.4117 3.46724 12.3379 3.41764 12.2567 3.38379C12.1754 3.34995 12.0883 3.33252 12.0003 3.33252C11.9123 3.33252 11.8251 3.34995 11.7439 3.38379C11.6626 3.41764 11.5889 3.46724 11.5269 3.52973L8.47338 6.58326C8.4114 6.64575 8.33767 6.69535 8.25642 6.7292C8.17518 6.76305 8.08803 6.78048 8.00002 6.78048C7.91201 6.78048 7.82486 6.76305 7.74362 6.7292C7.66237 6.69535 7.58863 6.64575 7.52666 6.58326L4.47312 3.52973C4.41114 3.46724 4.3374 3.41764 4.25616 3.38379C4.17491 3.34995 4.08777 3.33252 3.99976 3.33252C3.91174 3.33252 3.8246 3.34995 3.74336 3.38379C3.66211 3.41764 3.58837 3.46724 3.52639 3.52973C3.40222 3.65465 3.33252 3.82363 3.33252 3.99976C3.33252 4.1759 3.40222 4.34488 3.52639 4.46979L6.58659 7.52999C6.96162 7.90455 7.46998 8.11494 8.00002 8.11494C8.53006 8.11494 9.03842 7.90455 9.41344 7.52999L12.4736 4.46979C12.5978 4.34488 12.6675 4.1759 12.6675 3.99976C12.6675 3.82363 12.5978 3.65465 12.4736 3.52973Z" fill="#F57F00"/>
<path d="M12.4736 12.4703C12.4117 12.5328 12.3379 12.5824 12.2567 12.6162C12.1754 12.6501 12.0883 12.6675 12.0003 12.6675C11.9123 12.6675 11.8251 12.6501 11.7439 12.6162C11.6626 12.5824 11.5889 12.5328 11.5269 12.4703L8.47338 9.41676C8.4114 9.35427 8.33767 9.30467 8.25642 9.27082C8.17518 9.23698 8.08803 9.21955 8.00002 9.21955C7.91201 9.21955 7.82486 9.23698 7.74362 9.27082C7.66237 9.30467 7.58863 9.35427 7.52666 9.41676L4.47312 12.4703C4.41114 12.5328 4.3374 12.5824 4.25616 12.6162C4.17491 12.6501 4.08777 12.6675 3.99976 12.6675C3.91174 12.6675 3.8246 12.6501 3.74336 12.6162C3.66211 12.5824 3.58837 12.5328 3.52639 12.4703C3.40222 12.3454 3.33252 12.1764 3.33252 12.0003C3.33252 11.8241 3.40222 11.6551 3.52639 11.5302L6.58659 8.47003C6.96162 8.09547 7.46998 7.88509 8.00002 7.88509C8.53006 7.88509 9.03842 8.09547 9.41344 8.47003L12.4736 11.5302C12.5978 11.6551 12.6675 11.8241 12.6675 12.0003C12.6675 12.1764 12.5978 12.3454 12.4736 12.4703Z" fill="#F57F00"/>
<path d="M3.52973 3.5264C3.46724 3.58838 3.41764 3.66211 3.38379 3.74336C3.34995 3.8246 3.33252 3.91175 3.33252 3.99976C3.33252 4.08778 3.34995 4.17492 3.38379 4.25616C3.41764 4.33741 3.46724 4.41114 3.52973 4.47312L6.58326 7.52666C6.64575 7.58864 6.69535 7.66238 6.7292 7.74362C6.76305 7.82486 6.78048 7.91201 6.78048 8.00002C6.78048 8.08804 6.76305 8.17518 6.7292 8.25642C6.69535 8.33767 6.64575 8.41141 6.58326 8.47339L3.52973 11.5269C3.46724 11.5889 3.41764 11.6626 3.38379 11.7439C3.34995 11.8251 3.33252 11.9122 3.33252 12.0003C3.33252 12.0883 3.34995 12.1754 3.38379 12.2567C3.41764 12.3379 3.46724 12.4117 3.52973 12.4736C3.65465 12.5978 3.82362 12.6675 3.99976 12.6675C4.17589 12.6675 4.34488 12.5978 4.46979 12.4736L7.52999 9.41345C7.90455 9.03842 8.11494 8.53006 8.11494 8.00002C8.11494 7.46999 7.90455 6.96162 7.52999 6.5866L4.46979 3.5264C4.34488 3.40222 4.17589 3.33252 3.99976 3.33252C3.82362 3.33252 3.65465 3.40222 3.52973 3.5264Z" fill="#F57F00"/>
<path d="M12.4704 3.52638C12.5329 3.58836 12.5825 3.6621 12.6163 3.74334C12.6502 3.82459 12.6675 3.91175 12.6675 3.99976C12.6675 4.08778 12.6502 4.1749 12.6163 4.25615C12.5825 4.33739 12.5329 4.41113 12.4704 4.47311L9.41685 7.52664C9.35436 7.58862 9.30476 7.66236 9.27091 7.74361C9.23706 7.82485 9.21964 7.91199 9.21964 8.00001C9.21964 8.08802 9.23706 8.17516 9.27091 8.25641C9.30476 8.33765 9.35436 8.41139 9.41685 8.47337L12.4704 11.5269C12.5329 11.5889 12.5825 11.6626 12.6163 11.7439C12.6502 11.8251 12.6675 11.9122 12.6675 12.0003C12.6675 12.0883 12.6502 12.1754 12.6163 12.2567C12.5825 12.3379 12.5329 12.4117 12.4704 12.4736C12.3455 12.5978 12.1764 12.6675 12.0003 12.6675C11.8241 12.6675 11.6552 12.5978 11.5303 12.4736L8.47012 9.41343C8.09556 9.03841 7.88518 8.53004 7.88518 8.00001C7.88518 7.46997 8.09556 6.96161 8.47012 6.58658L11.5303 3.52638C11.6552 3.40221 11.8241 3.33252 12.0003 3.33252C12.1764 3.33252 12.3455 3.40221 12.4704 3.52638Z" fill="#F57F00"/>
</svg>
