<svg width="15" height="16" viewBox="0 0 15 16" fill="none" xmlns="http://www.w3.org/2000/svg">
<g clip-path="url(#clip0_24_6218)">
<path d="M14.8169 14.3796L11.0862 10.649C12.1029 9.40564 12.6027 7.81908 12.4824 6.21749C12.3621 4.61591 11.6307 3.12185 10.4397 2.04434C9.24871 0.966838 7.68911 0.388327 6.08351 0.428472C4.47792 0.468616 2.94918 1.12435 1.81349 2.26003C0.677813 3.39571 0.0220832 4.92445 -0.0180617 6.53004C-0.0582065 8.13564 0.520305 9.69524 1.59781 10.8863C2.67532 12.0773 4.16938 12.8086 5.77096 12.9289C7.37254 13.0493 8.95911 12.5494 10.2025 11.5328L13.9331 15.2634C14.051 15.3772 14.2089 15.4402 14.3727 15.4388C14.5366 15.4374 14.6934 15.3717 14.8092 15.2558C14.9251 15.1399 14.9909 14.9831 14.9923 14.8193C14.9937 14.6554 14.9307 14.4975 14.8169 14.3796ZM6.24999 11.6965C5.26108 11.6965 4.29438 11.4033 3.47213 10.8539C2.64989 10.3045 2.00903 9.52357 1.63059 8.60994C1.25215 7.69631 1.15313 6.69097 1.34606 5.72107C1.53899 4.75116 2.01519 3.86025 2.71445 3.16098C3.41371 2.46172 4.30463 1.98552 5.27453 1.79259C6.24444 1.59967 7.24977 1.69868 8.1634 2.07712C9.07703 2.45556 9.85793 3.09642 10.4073 3.91867C10.9567 4.74091 11.25 5.70761 11.25 6.69652C11.2485 8.02214 10.7212 9.29305 9.78388 10.2304C8.84652 11.1678 7.57561 11.695 6.24999 11.6965Z" fill="#BCBCBC"/>
</g>
<defs>
<clipPath id="clip0_24_6218">
<rect width="15" height="15" fill="white" transform="translate(0 0.446533)"/>
</clipPath>
</defs>
</svg>
