<svg width="20" height="20" viewBox="0 0 20 20" fill="none" xmlns="http://www.w3.org/2000/svg">
<g clip-path="url(#clip0_954_4805)">
<path d="M19.7559 18.5773L14.7817 13.6032C16.1372 11.9453 16.8037 9.8299 16.6432 7.69445C16.4828 5.55901 15.5077 3.56693 13.9197 2.13025C12.3317 0.693577 10.2522 -0.0777715 8.1114 -0.024245C5.97061 0.0292815 3.93228 0.903588 2.41804 2.41783C0.903801 3.93207 0.0294952 5.97039 -0.0240314 8.11119C-0.0775579 10.252 0.693791 12.3314 2.13047 13.9195C3.56714 15.5075 5.55922 16.4826 7.69467 16.643C9.83011 16.8035 11.9455 16.137 13.6034 14.7815L18.5775 19.7557C18.7347 19.9075 18.9452 19.9914 19.1637 19.9895C19.3822 19.9876 19.5912 19.9 19.7457 19.7455C19.9002 19.591 19.9879 19.382 19.9898 19.1635C19.9917 18.945 19.9077 18.7345 19.7559 18.5773ZM8.33337 14.9998C7.01482 14.9998 5.72589 14.6088 4.62956 13.8763C3.53324 13.1437 2.67875 12.1025 2.17417 10.8844C1.66958 9.6662 1.53756 8.32576 1.7948 7.03255C2.05203 5.73934 2.68697 4.55146 3.61932 3.61911C4.55167 2.68676 5.73956 2.05182 7.03276 1.79458C8.32597 1.53735 9.66641 1.66937 10.8846 2.17395C12.1028 2.67854 13.144 3.53302 13.8765 4.62935C14.609 5.72568 15 7.01461 15 8.33315C14.998 10.1007 14.295 11.7952 13.0452 13.045C11.7954 14.2948 10.1009 14.9978 8.33337 14.9998Z" fill="#BCBCBC"/>
</g>
<defs>
<clipPath id="clip0_954_4805">
<rect width="20" height="20" fill="white"/>
</clipPath>
</defs>
</svg>
