<svg width="10" height="11" viewBox="0 0 10 11" fill="none" xmlns="http://www.w3.org/2000/svg">
<g clip-path="url(#clip0_20_16205)">
<path d="M7.79584 4.45675C7.7571 4.41769 7.71102 4.38669 7.66024 4.36554C7.60947 4.34439 7.55501 4.3335 7.5 4.3335C7.445 4.3335 7.39054 4.34439 7.33976 4.36554C7.28899 4.38669 7.24291 4.41769 7.20417 4.45675L5.29584 6.36508C5.2571 6.40413 5.21102 6.43513 5.16024 6.45628C5.10947 6.47744 5.05501 6.48833 5 6.48833C4.945 6.48833 4.89054 6.47744 4.83976 6.45628C4.78899 6.43513 4.74291 6.40413 4.70417 6.36508L2.79584 4.45675C2.7571 4.41769 2.71102 4.38669 2.66025 4.36554C2.60947 4.34439 2.55501 4.3335 2.5 4.3335C2.445 4.3335 2.39054 4.34439 2.33976 4.36554C2.28899 4.38669 2.24291 4.41769 2.20417 4.45675C2.12657 4.53481 2.08301 4.64042 2.08301 4.7505C2.08301 4.86057 2.12657 4.96618 2.20417 5.04425L4.11667 6.95675C4.35105 7.19083 4.66875 7.32231 5 7.32231C5.33126 7.32231 5.64896 7.19083 5.88334 6.95675L7.79584 5.04425C7.87344 4.96618 7.917 4.86057 7.917 4.7505C7.917 4.64042 7.87344 4.53481 7.79584 4.45675Z" fill="#1F2B32"/>
</g>
<defs>
<clipPath id="clip0_20_16205">
<rect y="0.723389" width="10" height="10" rx="4" fill="white"/>
</clipPath>
</defs>
</svg>
