<svg width="20" height="20" viewBox="0 0 20 20" fill="none" xmlns="http://www.w3.org/2000/svg">
<g clip-path="url(#clip0_18_19205)">
<path d="M15.5917 7.46671C15.5142 7.38861 15.422 7.32661 15.3205 7.2843C15.2189 7.242 15.11 7.22021 15 7.22021C14.89 7.22021 14.7811 7.242 14.6795 7.2843C14.578 7.32661 14.4858 7.38861 14.4083 7.46671L10.5917 11.2834C10.5142 11.3615 10.422 11.4235 10.3205 11.4658C10.2189 11.5081 10.11 11.5299 10 11.5299C9.89 11.5299 9.78108 11.5081 9.67953 11.4658C9.57798 11.4235 9.48581 11.3615 9.40834 11.2834L5.59168 7.46671C5.51421 7.38861 5.42204 7.32661 5.32049 7.2843C5.21894 7.242 5.11002 7.22021 5.00001 7.22021C4.89 7.22021 4.78108 7.242 4.67953 7.2843C4.57798 7.32661 4.48581 7.38861 4.40834 7.46671C4.25313 7.62285 4.16602 7.83406 4.16602 8.05421C4.16602 8.27437 4.25313 8.48558 4.40834 8.64171L8.23334 12.4667C8.70209 12.9349 9.33751 13.1978 10 13.1978C10.6625 13.1978 11.2979 12.9349 11.7667 12.4667L15.5917 8.64171C15.7469 8.48558 15.834 8.27437 15.834 8.05421C15.834 7.83406 15.7469 7.62285 15.5917 7.46671Z" fill="#1F2B32"/>
<path d="M15.5917 7.46671C15.5142 7.38861 15.422 7.32661 15.3205 7.2843C15.2189 7.242 15.11 7.22021 15 7.22021C14.89 7.22021 14.7811 7.242 14.6795 7.2843C14.578 7.32661 14.4858 7.38861 14.4083 7.46671L10.5917 11.2834C10.5142 11.3615 10.422 11.4235 10.3205 11.4658C10.2189 11.5081 10.11 11.5299 10 11.5299C9.89 11.5299 9.78108 11.5081 9.67953 11.4658C9.57798 11.4235 9.48581 11.3615 9.40834 11.2834L5.59168 7.46671C5.51421 7.38861 5.42204 7.32661 5.32049 7.2843C5.21894 7.242 5.11002 7.22021 5.00001 7.22021C4.89 7.22021 4.78108 7.242 4.67953 7.2843C4.57798 7.32661 4.48581 7.38861 4.40834 7.46671C4.25313 7.62285 4.16602 7.83406 4.16602 8.05421C4.16602 8.27437 4.25313 8.48558 4.40834 8.64171L8.23334 12.4667C8.70209 12.9349 9.33751 13.1978 10 13.1978C10.6625 13.1978 11.2979 12.9349 11.7667 12.4667L15.5917 8.64171C15.7469 8.48558 15.834 8.27437 15.834 8.05421C15.834 7.83406 15.7469 7.62285 15.5917 7.46671Z" fill="black" fill-opacity="0.2"/>
</g>
<defs>
<clipPath id="clip0_18_19205">
<rect width="20" height="20" fill="white"/>
</clipPath>
</defs>
</svg>
