<svg width="22" height="23" viewBox="0 0 22 23" fill="none" xmlns="http://www.w3.org/2000/svg">
<path fill-rule="evenodd" clip-rule="evenodd" d="M10.9342 5.03824C10.9342 4.74475 11.1722 4.50684 11.4657 4.50684H13.5189C14.282 4.50684 14.9006 5.12542 14.9006 5.88849V5.99477H17.2321C17.766 5.99477 18.2522 6.30242 18.4807 6.78496L20.1385 10.2847L21.4115 11.9214C21.6002 12.1639 21.7026 12.4624 21.7026 12.7697V15.8789C21.7026 16.642 21.084 17.2606 20.3209 17.2606H18.6204C18.3269 17.2606 18.089 17.0227 18.089 16.7292C18.089 16.4357 18.3269 16.1978 18.6204 16.1978H20.3209C20.497 16.1978 20.6398 16.055 20.6398 15.8789V12.7697C20.6398 12.6988 20.6161 12.6299 20.5726 12.5739L19.4233 11.0963H15.2194C14.4563 11.0963 13.8378 10.4777 13.8378 9.71462V5.88849C13.8378 5.7124 13.695 5.56965 13.5189 5.56965H11.4657C11.1722 5.56965 10.9342 5.33173 10.9342 5.03824ZM18.8435 10.0335L17.5202 7.23994C17.4675 7.12858 17.3553 7.05759 17.2321 7.05759H14.9006V9.71462C14.9006 9.89071 15.0433 10.0335 15.2194 10.0335H18.8435ZM2.35938 16.7292C2.35938 16.4357 2.59729 16.1978 2.89078 16.1978H5.44153C5.73502 16.1978 5.97294 16.4357 5.97294 16.7292C5.97294 17.0227 5.73502 17.2606 5.44153 17.2606H2.89078C2.59729 17.2606 2.35938 17.0227 2.35938 16.7292ZM9.5865 16.7292C9.5865 16.4357 9.82442 16.1978 10.1179 16.1978H13.944C14.2375 16.1978 14.4754 16.4357 14.4754 16.7292C14.4754 17.0227 14.2375 17.2606 13.944 17.2606H10.1179C9.82442 17.2606 9.5865 17.0227 9.5865 16.7292Z" fill="#1F2B32"/>
<path fill-rule="evenodd" clip-rule="evenodd" d="M7.77972 18.2171C8.60149 18.2171 9.26766 17.5509 9.26766 16.7292C9.26766 15.9074 8.60149 15.2412 7.77972 15.2412C6.95795 15.2412 6.29178 15.9074 6.29178 16.7292C6.29178 17.5509 6.95795 18.2171 7.77972 18.2171ZM7.77972 19.2799C9.18846 19.2799 10.3305 18.1379 10.3305 16.7292C10.3305 15.3204 9.18846 14.1784 7.77972 14.1784C6.37098 14.1784 5.22897 15.3204 5.22897 16.7292C5.22897 18.1379 6.37098 19.2799 7.77972 19.2799Z" fill="#1F2B32"/>
<path fill-rule="evenodd" clip-rule="evenodd" d="M16.2822 18.2171C17.104 18.2171 17.7702 17.5509 17.7702 16.7292C17.7702 15.9074 17.104 15.2412 16.2822 15.2412C15.4605 15.2412 14.7943 15.9074 14.7943 16.7292C14.7943 17.5509 15.4605 18.2171 16.2822 18.2171ZM16.2822 19.2799C17.691 19.2799 18.833 18.1379 18.833 16.7292C18.833 15.3204 17.691 14.1784 16.2822 14.1784C14.8735 14.1784 13.7315 15.3204 13.7315 16.7292C13.7315 18.1379 14.8735 19.2799 16.2822 19.2799Z" fill="#1F2B32"/>
<rect x="0.5" y="3.20801" width="8" height="8" rx="1.5" stroke="#1F2B32"/>
</svg>
