<svg width="22" height="22" viewBox="0 0 22 22" fill="none" xmlns="http://www.w3.org/2000/svg">
<g clip-path="url(#clip0_72_7107)">
<path d="M19.9375 0.171875H10.3125C8.76445 0.171875 7.54597 0.737938 7.17503 1.54688H4.8125C3.56775 1.54688 2.52609 2.4342 2.28649 3.60938H0.6875C0.402832 3.60938 0.171875 3.84033 0.171875 4.125C0.171875 4.40967 0.402832 4.64062 0.6875 4.64062H2.28649C2.52609 5.8158 3.56775 6.70312 4.8125 6.70312H7.17503C7.54597 7.51206 8.76445 8.07812 10.3125 8.07812C10.4689 8.07812 10.9449 8.07812 11.1873 9.06238L12.5637 14.5677C12.5858 14.653 12.6013 14.7839 12.4804 14.9404C12.3186 15.1505 11.9923 15.2969 11.6875 15.2969H10.3125C9.26984 15.2969 8.42188 16.1448 8.42188 17.1875V21.3125C8.42188 21.5972 8.65283 21.8281 8.9375 21.8281H19.9375C20.2222 21.8281 20.4531 21.5972 20.4531 21.3125V17.1875C20.4531 16.1448 19.6052 15.2969 18.5625 15.2969C18.0885 15.2969 17.7031 14.9115 17.7031 14.4375V8.9375C17.7031 8.4635 18.0885 8.07812 18.5625 8.07812H19.9375C20.9802 8.07812 21.8281 7.23016 21.8281 6.1875V2.0625C21.8281 1.01984 20.9802 0.171875 19.9375 0.171875ZM3.26562 4.125C3.26562 3.27234 3.95984 2.57812 4.8125 2.57812H7.04688V5.67188H4.8125C3.95984 5.67188 3.26562 4.97766 3.26562 4.125ZM8.07812 6.1875V2.0625C8.07812 1.76625 8.74683 1.34068 9.79688 1.23099V7.01901C8.74683 6.90932 8.07812 6.48375 8.07812 6.1875ZM9.45312 20.7969V19.0781H19.4219V20.7969H9.45312ZM19.9375 7.04688H18.5625C17.5198 7.04688 16.6719 7.89484 16.6719 8.9375V14.4375C16.6719 15.4802 17.5198 16.3281 18.5625 16.3281C19.0365 16.3281 19.4219 16.7135 19.4219 17.1875V18.0469H9.45312V17.1875C9.45312 16.7135 9.8385 16.3281 10.3125 16.3281H11.6875C12.3099 16.3281 12.941 16.0307 13.2968 15.5708C13.5828 15.2002 13.6775 14.7517 13.5627 14.3126L12.1884 8.81464C11.9674 7.91741 11.4792 7.3438 10.8281 7.14204V1.20312H19.9375C20.4115 1.20312 20.7969 1.5885 20.7969 2.0625V2.75H19.25C18.9653 2.75 18.7344 2.98096 18.7344 3.26562C18.7344 3.55029 18.9653 3.78125 19.25 3.78125H20.7969V4.46875H19.25C18.9653 4.46875 18.7344 4.69971 18.7344 4.98438C18.7344 5.26904 18.9653 5.5 19.25 5.5H20.7969V6.1875C20.7969 6.6615 20.4115 7.04688 19.9375 7.04688Z" fill="black"/>
<path d="M13.0625 6.70312C13.3473 6.70312 13.5781 6.47227 13.5781 6.1875C13.5781 5.90273 13.3473 5.67188 13.0625 5.67188C12.7777 5.67188 12.5469 5.90273 12.5469 6.1875C12.5469 6.47227 12.7777 6.70312 13.0625 6.70312Z" fill="black"/>
</g>
<defs>
<clipPath id="clip0_72_7107">
<rect width="22" height="22" fill="white"/>
</clipPath>
</defs>
</svg>
