<svg width="22" height="23" viewBox="0 0 22 23" fill="none" xmlns="http://www.w3.org/2000/svg">
<g clip-path="url(#clip0_2485_20533)">
<path fill-rule="evenodd" clip-rule="evenodd" d="M20.9999 5.70523C20.9999 5.70258 20.9996 5.69993 20.9995 5.69723C20.9993 5.68668 20.9987 5.67627 20.9975 5.66596C20.9971 5.66217 20.9964 5.65839 20.9959 5.65461C20.9946 5.6451 20.9929 5.63573 20.9909 5.62655C20.9901 5.62291 20.9892 5.61931 20.9883 5.61567C20.9858 5.60569 20.9828 5.5959 20.9795 5.58624C20.9789 5.5844 20.9785 5.58251 20.9778 5.58071L20.0804 3.11676C19.99 2.86848 19.7709 2.70801 19.5223 2.70801H17.8884C17.7102 2.70801 17.5659 2.86285 17.5659 3.05388C17.5659 3.24492 17.7102 3.39976 17.8884 3.39976H19.4911L20.2052 5.36067H13.4534L13.0303 3.39976H15.5239C15.702 3.39976 15.8464 3.24492 15.8464 3.05388C15.8464 2.86285 15.702 2.70801 15.5239 2.70801H2.47764C2.22905 2.70801 2.01 2.86848 1.91953 3.11685L1.02214 5.58071C1.02148 5.58255 1.02113 5.58445 1.02047 5.58624C1.01711 5.59585 1.0142 5.60564 1.01164 5.61567C1.01072 5.61931 1.00984 5.62291 1.00904 5.62655C1.00701 5.63578 1.00538 5.64514 1.00406 5.65461C1.00353 5.65839 1.00287 5.66217 1.00243 5.66596C1.00132 5.67627 1.00071 5.68668 1.00044 5.69723C1.0004 5.69988 1.00009 5.70253 1.00004 5.70523C1.00004 5.70565 1 5.70608 1 5.7065V21.5662C1.00002 22.1923 1.47232 22.7023 2.05489 22.708H19.9354C20.5224 22.708 21 22.1957 21 21.5661V5.70655L21 5.70635C20.9999 5.70597 20.9999 5.70563 20.9999 5.70523ZM8.48058 11.3098V6.05243H1.64496L1.645 21.5661C1.645 21.8143 1.8333 22.0163 2.0647 22.0163H19.9415C20.17 22.0127 20.355 21.8121 20.355 21.5662V6.05243H13.5194V11.3098C13.5194 11.5154 13.4065 11.7027 13.2317 11.7871C13.0569 11.8714 12.8513 11.8379 12.7079 11.7015L11 10.0787L9.29204 11.7016C9.20118 11.7879 9.08531 11.8331 8.96815 11.8331C8.90045 11.8331 8.8323 11.818 8.7683 11.7871C8.59349 11.7027 8.48058 11.5154 8.48058 11.3098ZM12.3683 3.39976H9.63168L9.20863 5.36067H12.7913L12.3683 3.39976ZM1.79471 5.36067H8.54665L8.9697 3.39976H2.50887L1.79471 5.36067ZM11.3236 9.46194L12.8746 10.9356V6.05243H9.12558V10.9356L10.6765 9.46194C10.7687 9.37433 10.8844 9.33052 11.0001 9.33052C11.1157 9.33052 11.2313 9.37433 11.3236 9.46194Z" fill="#1F2B32"/>
<path d="M19.9353 22.0163C19.9374 22.0163 19.9394 22.0163 19.9415 22.0163M1.00004 21.5661L1 21.5662M2.0647 22.708C2.06143 22.708 2.05816 22.708 2.05489 22.708M19.9415 22.0163C20.17 22.0127 20.355 21.8121 20.355 21.5662V6.05243H13.5194V11.3098C13.5194 11.5154 13.4065 11.7027 13.2317 11.7871C13.0569 11.8714 12.8513 11.8379 12.7079 11.7015L11 10.0787L9.29204 11.7016C9.20118 11.7879 9.08531 11.8331 8.96815 11.8331C8.90045 11.8331 8.8323 11.818 8.7683 11.7871C8.59349 11.7027 8.48058 11.5154 8.48058 11.3098V6.05243H1.64496L1.645 21.5661C1.645 21.8143 1.8333 22.0163 2.0647 22.0163H19.9415ZM2.05489 22.708H19.9353C20.5224 22.708 21 22.1957 21 21.5661V5.70655L21 5.70635C20.9999 5.70597 20.9999 5.70563 20.9999 5.70523C20.9999 5.70258 20.9996 5.69993 20.9995 5.69723C20.9993 5.68668 20.9987 5.67627 20.9975 5.66596C20.9971 5.66217 20.9964 5.65839 20.9959 5.65461C20.9946 5.6451 20.9929 5.63573 20.9909 5.62655C20.9901 5.62291 20.9892 5.61931 20.9883 5.61567C20.9858 5.60569 20.9828 5.5959 20.9795 5.58624C20.9789 5.5844 20.9785 5.58251 20.9778 5.58071L20.0804 3.11676C19.99 2.86848 19.7709 2.70801 19.5223 2.70801H17.8884C17.7102 2.70801 17.5659 2.86285 17.5659 3.05388C17.5659 3.24492 17.7102 3.39976 17.8884 3.39976H19.4911L20.2052 5.36067H13.4534L13.0303 3.39976H15.5239C15.702 3.39976 15.8464 3.24492 15.8464 3.05388C15.8464 2.86285 15.702 2.70801 15.5239 2.70801H2.47764C2.22905 2.70801 2.01 2.86848 1.91953 3.11685L1.02214 5.58071C1.02148 5.58255 1.02113 5.58445 1.02047 5.58624C1.01711 5.59585 1.0142 5.60564 1.01164 5.61567C1.01072 5.61931 1.00984 5.62291 1.00904 5.62655C1.00701 5.63578 1.00538 5.64514 1.00406 5.65461C1.00353 5.65839 1.00287 5.66217 1.00243 5.66596C1.00132 5.67627 1.00071 5.68668 1.00044 5.69723C1.0004 5.69988 1.00009 5.70253 1.00004 5.70523C1.00004 5.70565 1 5.70608 1 5.7065V21.5662M2.05489 22.708C1.47232 22.7023 1.00002 22.1923 1 21.5662M9.63168 3.39976H12.3683L12.7913 5.36067H9.20863L9.63168 3.39976ZM8.54665 5.36067H1.79471L2.50887 3.39976H8.9697L8.54665 5.36067ZM12.8746 10.9356L11.3236 9.46194C11.2313 9.37433 11.1157 9.33052 11.0001 9.33052C10.8844 9.33052 10.7687 9.37433 10.6765 9.46194L9.12558 10.9356V6.05243H12.8746V10.9356Z" stroke="#1F2B32" stroke-width="0.5"/>
</g>
<defs>
<clipPath id="clip0_2485_20533">
<rect width="22" height="22" fill="white" transform="translate(0 0.708008)"/>
</clipPath>
</defs>
</svg>
