<svg width="22" height="23" viewBox="0 0 22 23" fill="none" xmlns="http://www.w3.org/2000/svg">
<g clip-path="url(#clip0_2485_20515)">
<path d="M20.2291 0.710449H1.76658C0.792364 0.710449 0 1.50281 0 2.47703V20.9439C0 21.9138 0.792364 22.7061 1.76658 22.7061H20.2334C21.2076 22.7061 22 21.9138 22 20.9395V2.47703C21.9957 1.50281 21.2033 0.710449 20.2291 0.710449ZM10.3873 21.4851H1.76658C1.46782 21.4851 1.22535 21.2426 1.22535 20.9439V2.47703C1.22535 2.17827 1.46782 1.9358 1.76658 1.9358H10.3873V21.4851ZM20.2334 21.4808H11.6083V1.93147H20.2291C20.5278 1.93147 20.7703 2.17394 20.7703 2.4727V20.9395H20.7746C20.7746 21.2383 20.5322 21.4808 20.2334 21.4808Z" fill="#1F2B32"/>
<path d="M8.17044 12.1802C7.9323 11.9421 7.54694 11.9421 7.30447 12.1802L6.41685 13.0679V8.87223C6.41685 8.5345 6.14407 8.26172 5.80634 8.26172C5.46861 8.26172 5.19583 8.5345 5.19583 8.87223V13.0679L4.30821 12.1846C4.07007 11.9464 3.68471 11.9464 3.44224 12.1846C3.20409 12.4227 3.20409 12.8081 3.44224 13.0505L5.37335 14.9773C5.49459 15.0986 5.65046 15.1549 5.80634 15.1549C5.96221 15.1549 6.11809 15.0942 6.23932 14.9773L8.17044 13.0462C8.40858 12.8081 8.40858 12.4227 8.17044 12.1802Z" fill="#1F2B32"/>
<path d="M18.5534 10.3704L16.6223 8.43924C16.5011 8.31801 16.3452 8.26172 16.1893 8.26172C16.0335 8.26172 15.8776 8.32234 15.7563 8.43924L13.8252 10.3704C13.5871 10.6085 13.5871 10.9939 13.8252 11.2363C14.0634 11.4745 14.4487 11.4745 14.6912 11.2363L15.5788 10.3487V14.5443C15.5788 14.8821 15.8516 15.1549 16.1893 15.1549C16.5271 15.1549 16.7998 14.8821 16.7998 14.5443V10.3487L17.6875 11.2363C17.9256 11.4745 18.311 11.4745 18.5534 11.2363C18.7916 10.9982 18.7916 10.6128 18.5534 10.3704Z" fill="#1F2B32"/>
</g>
<defs>
<clipPath id="clip0_2485_20515">
<rect width="22" height="22" fill="white" transform="translate(0 0.708008)"/>
</clipPath>
</defs>
</svg>
