<svg width="26" height="24" viewBox="0 0 26 24" fill="none" xmlns="http://www.w3.org/2000/svg">
<path d="M6.89301 21.4285V18.1071C6.89301 17.5548 7.34072 17.1071 7.89301 17.1071H11.393C11.9453 17.1071 12.393 16.6594 12.393 16.1071V12.2142C12.393 11.662 12.8407 11.2142 13.393 11.2142H17.2859C17.8381 11.2142 18.2859 10.7665 18.2859 10.2142V6.32138C18.2859 5.7691 18.7336 5.32138 19.2859 5.32138H23.5716C24.1239 5.32138 24.5716 5.7691 24.5716 6.32138V22C24.5716 22.5522 24.1239 23 23.5716 23H8.46443" stroke="#1F2B32" stroke-width="1.2" stroke-linecap="round"/>
<path d="M1 9.25L9.25 1M9.25 1V6.89286M9.25 1H3.35714" stroke="#1F2B32" stroke-width="1.2" stroke-linecap="round"/>
</svg>
