<svg width="81" height="20" viewBox="0 0 81 20" fill="none" xmlns="http://www.w3.org/2000/svg">
<path d="M80.9006 1.15197V19.3863H76.6491L68.5894 9.67003V19.3863H63.5293V1.15197H67.7808L75.8405 10.8683V1.15197H80.9006Z" fill="url(#paint0_linear_70_6537)"/>
<path d="M50.678 19.7511C48.7479 19.7511 47.009 19.343 45.4614 18.5268C43.9312 17.7106 42.7227 16.5818 41.8359 15.1404C40.9664 13.699 40.5317 12.0753 40.5317 10.2692C40.5317 8.46315 40.9664 6.83943 41.8359 5.39804C42.7227 3.95666 43.9312 2.82787 45.4614 2.01166C47.009 1.19546 48.7479 0.787354 50.678 0.787354C52.6082 0.787354 54.3384 1.19546 55.8686 2.01166C57.4162 2.82787 58.6247 3.95666 59.4941 5.39804C60.3809 6.83943 60.8244 8.46315 60.8244 10.2692C60.8244 12.0753 60.3809 13.699 59.4941 15.1404C58.6247 16.5818 57.4162 17.7106 55.8686 18.5268C54.3384 19.343 52.6082 19.7511 50.678 19.7511ZM50.678 15.479C51.5996 15.479 52.4343 15.262 53.182 14.8278C53.9297 14.3937 54.521 13.7859 54.9557 13.0044C55.3904 12.2055 55.6077 11.2938 55.6077 10.2692C55.6077 9.24463 55.3904 8.34159 54.9557 7.56012C54.521 6.76128 53.9297 6.14479 53.182 5.71063C52.4343 5.27648 51.5996 5.05941 50.678 5.05941C49.7564 5.05941 48.9218 5.27648 48.1741 5.71063C47.4264 6.14479 46.8351 6.76128 46.4004 7.56012C45.9657 8.34159 45.7483 9.24463 45.7483 10.2692C45.7483 11.2938 45.9657 12.2055 46.4004 13.0044C46.8351 13.7859 47.4264 14.3937 48.1741 14.8278C48.9218 15.262 49.7564 15.479 50.678 15.479Z" fill="url(#paint1_linear_70_6537)"/>
<path d="M28.6195 19.7511C26.6894 19.7511 24.9505 19.343 23.4029 18.5268C21.8727 17.7106 20.6642 16.5818 19.7774 15.1404C18.9079 13.699 18.4732 12.0753 18.4732 10.2692C18.4732 8.46315 18.9079 6.83943 19.7774 5.39804C20.6642 3.95666 21.8727 2.82787 23.4029 2.01166C24.9505 1.19546 26.6894 0.787354 28.6195 0.787354C30.5497 0.787354 32.2798 1.19546 33.81 2.01166C35.3576 2.82787 36.5662 3.95666 37.4356 5.39804C38.3224 6.83943 38.7658 8.46315 38.7658 10.2692C38.7658 12.0753 38.3224 13.699 37.4356 15.1404C36.5662 16.5818 35.3576 17.7106 33.81 18.5268C32.2798 19.343 30.5497 19.7511 28.6195 19.7511ZM28.6195 15.479C29.5411 15.479 30.3758 15.262 31.1235 14.8278C31.8712 14.3937 32.4624 13.7859 32.8971 13.0044C33.3319 12.2055 33.5492 11.2938 33.5492 10.2692C33.5492 9.24463 33.3319 8.34159 32.8971 7.56012C32.4624 6.76128 31.8712 6.14479 31.1235 5.71063C30.3758 5.27648 29.5411 5.05941 28.6195 5.05941C27.6979 5.05941 26.8633 5.27648 26.1155 5.71063C25.3678 6.14479 24.7766 6.76128 24.3419 7.56012C23.9072 8.34159 23.6898 9.24463 23.6898 10.2692C23.6898 11.2938 23.9072 12.2055 24.3419 13.0044C24.7766 13.7859 25.3678 14.3937 26.1155 14.8278C26.8633 15.262 27.6979 15.479 28.6195 15.479Z" fill="url(#paint2_linear_70_6537)"/>
<path d="M17.3035 15.2966V19.3863H0.949432V16.1563L10.1568 5.24168H1.18418V1.15197H16.9123V4.38206L7.70495 15.2966H17.3035Z" fill="url(#paint3_linear_70_6537)"/>
<defs>
<linearGradient id="paint0_linear_70_6537" x1="0.0366947" y1="10.7031" x2="82.6331" y2="10.7031" gradientUnits="userSpaceOnUse">
<stop offset="0.199731" stop-color="#3D3F55"/>
<stop offset="1" stop-color="#6339F5"/>
</linearGradient>
<linearGradient id="paint1_linear_70_6537" x1="0.0366947" y1="10.7031" x2="82.6331" y2="10.7031" gradientUnits="userSpaceOnUse">
<stop offset="0.199731" stop-color="#3D3F55"/>
<stop offset="1" stop-color="#6339F5"/>
</linearGradient>
<linearGradient id="paint2_linear_70_6537" x1="0.0366947" y1="10.7031" x2="82.6331" y2="10.7031" gradientUnits="userSpaceOnUse">
<stop offset="0.199731" stop-color="#3D3F55"/>
<stop offset="1" stop-color="#6339F5"/>
</linearGradient>
<linearGradient id="paint3_linear_70_6537" x1="0.0366947" y1="10.7031" x2="82.6331" y2="10.7031" gradientUnits="userSpaceOnUse">
<stop offset="0.199731" stop-color="#3D3F55"/>
<stop offset="1" stop-color="#6339F5"/>
</linearGradient>
</defs>
</svg>
