<svg width="85" height="25" viewBox="0 0 85 25" fill="none" xmlns="http://www.w3.org/2000/svg">
<path d="M4.58168 12.2415C2.02868 11.5316 0.113922 9.47295 0.113922 6.49149C0.113922 2.80015 3.16335 0.670532 6.42552 0.670532H21.9563V5.14273H12.8789V8.62111H19.8997V12.9513H12.8789V19.1272H8.0566V5.00076H6.3546C5.57452 5.00076 4.6526 5.49767 4.6526 6.49149C4.6526 7.27235 5.14902 7.76926 5.78727 8.05321L4.58168 12.2415ZM24.2256 19.1272V0.670532H29.1898V19.1272H24.2256ZM37.7708 5.21372C41.4584 5.21372 44.0823 6.9884 44.0823 10.6797V19.1272H39.8983V17.7075C39.1182 19.1272 37.3453 19.5531 35.6433 19.5531C32.6647 19.5531 30.9627 17.4235 30.9627 15.01C30.9627 12.9513 32.5938 10.4668 36.6361 10.4668H39.5437V10.2538C39.5437 8.69209 38.9763 8.12419 37.6998 8.12419C36.5652 8.12419 35.856 8.69209 35.7851 9.7569H31.5301C31.7428 7.13037 33.8703 5.21372 37.7708 5.21372ZM39.6146 13.9452V13.1643H37.558C36.3524 13.1643 35.4305 13.8032 35.4305 14.726C35.4305 15.7198 36.1397 16.2167 37.3452 16.2167C38.7636 16.2167 39.6146 15.2229 39.6146 13.9452ZM58.5494 7.62728C59.4713 5.92359 60.8187 5.2847 62.5916 5.2847C65.9956 5.2847 67.4849 7.41432 67.4849 10.8217V19.1272H62.8753V11.7445C62.8753 10.1828 62.5916 9.25999 61.2442 9.25999C59.755 9.25999 59.3295 10.3958 59.3295 11.8865V19.1272H54.7199V11.7445C54.7199 10.1828 54.3653 9.25999 52.9469 9.25999C51.4577 9.25999 50.9613 10.5378 50.9613 12.0995V19.1982H46.2099V5.63964H50.6776V7.62728C51.5995 5.71063 53.2306 5.21372 54.7199 5.21372C56.4928 5.21372 57.7693 5.92359 58.5494 7.62728ZM74.1511 7.48531C75.073 5.78162 76.775 5.21372 78.4061 5.21372C81.9519 5.21372 84.0794 8.19518 84.0794 12.3834C84.0794 16.6427 81.881 19.5531 78.4061 19.5531C76.775 19.5531 75.1439 19.0562 74.2929 17.7075V24.0963H69.6124V5.63964H74.1511V7.48531ZM76.7041 15.8618C78.6898 15.8618 79.4698 14.2291 79.4698 12.3834C79.4698 10.5378 78.7607 8.97604 76.7041 8.97604C74.7893 8.97604 73.9383 10.5378 73.9383 12.3834C74.0092 14.2291 74.7893 15.8618 76.7041 15.8618Z" fill="#2E6AE4"/>
</svg>
