<svg width="55" height="24" viewBox="0 0 55 24" fill="none" xmlns="http://www.w3.org/2000/svg">
<path d="M47.0079 13.3901C47.1312 12.8558 47.2773 12.0594 47.9704 12.0062C48.5055 12.0084 49.041 12.0075 49.5765 12.0062C49.9145 11.9908 50.0805 12.3777 49.981 12.6572C49.0583 16.0375 48.1392 19.4187 47.2143 22.7987C47.1392 23.2972 46.8323 23.8648 46.2384 23.8569C45.7771 23.8566 45.3171 23.8541 44.8564 23.8569C44.5251 23.8868 44.214 23.5766 44.326 23.2459C45.2102 19.958 46.1164 16.6761 47.0079 13.3901ZM51.4063 12.7929C51.4946 12.4126 51.7807 12.0421 52.2002 11.999C52.7402 12.0157 53.2811 12.01 53.8218 11.9978C54.0089 12.0103 54.1588 12.1379 54.2307 12.3017V12.6512C53.2494 16.1421 52.3219 19.6491 51.3569 23.1441C51.2493 23.5046 50.9367 23.829 50.5363 23.8519C50.0066 23.8557 49.4757 23.8714 48.9472 23.8425C48.6352 23.8041 48.4509 23.4424 48.58 23.1639C49.52 19.7063 50.4667 16.2505 51.4063 12.7929ZM29.8794 13.6736C29.7186 13.2282 30.0984 12.7722 30.5706 12.8244C31.2666 12.824 31.9629 12.825 32.6592 12.8237C32.9225 12.8247 33.056 13.1057 33.0438 13.3332C33.0361 13.3838 33.0393 13.4357 33.0602 13.4831C33.064 13.5083 33.0714 13.5586 33.0753 13.5837C33.0685 13.6246 33.0724 13.667 33.0929 13.7041C33.1144 13.7559 33.1058 13.8138 33.1058 13.8685C33.1103 13.9128 33.1193 14.002 33.1237 14.0464C33.1353 14.0907 33.1404 14.1356 33.1395 14.1815C33.1324 14.2221 33.1363 14.2645 33.1575 14.3013C33.161 14.3261 33.168 14.3761 33.1716 14.4009C33.1648 14.4417 33.1687 14.4842 33.1892 14.5213C33.2101 14.5728 33.205 14.6297 33.2037 14.6841C33.196 14.7249 33.2011 14.7671 33.2197 14.8045C33.3658 15.5723 33.4907 16.3514 33.7205 17.0992C34.5382 16.1317 35.2766 15.0857 35.9735 14.0269C36.3026 13.5589 36.5568 12.8266 37.2483 12.8234C37.7835 12.8259 38.3186 12.8247 38.8541 12.8231C39.1809 12.7989 39.4281 13.1779 39.2365 13.452C37.8763 15.71 36.1347 17.7215 34.3388 19.6554C34.0534 20.7328 33.7507 21.8058 33.4611 22.882C33.3896 23.3666 33.0425 23.8585 32.4984 23.8569C31.9732 23.8557 31.448 23.8563 30.9231 23.8566C30.7186 23.8453 30.4833 23.6935 30.474 23.4804C30.4733 23.3955 30.4737 23.311 30.4753 23.2267C30.7725 22.0195 31.1513 20.8252 31.4335 19.6167C30.7963 17.922 30.3157 16.1688 29.994 14.3908C29.9989 14.3497 29.995 14.3075 29.977 14.2701C29.9388 14.1136 29.9109 13.9533 29.8974 13.7937C29.9032 13.7525 29.8993 13.7104 29.8794 13.6736ZM41.6233 15.6301C41.7549 15.6197 41.8901 15.6163 42.0236 15.6295C42.1219 15.6405 42.2256 15.6527 42.3264 15.6531C42.3752 15.6556 42.4249 15.6531 42.4747 15.6499C42.5007 15.6543 42.5517 15.6628 42.578 15.6669C42.6153 15.687 42.658 15.6908 42.7007 15.6848C43.2304 15.7348 43.7559 15.9334 44.1729 16.2609C44.5659 16.5928 44.7617 17.1036 44.7928 17.6014C44.7919 17.8004 44.7902 17.9996 44.7935 18.1989C44.7912 18.2514 44.797 18.3061 44.778 18.3564C44.7575 18.3934 44.7533 18.4356 44.7601 18.4767C44.7042 18.9699 44.4744 19.4467 44.1113 19.7949C43.6638 20.1856 43.0599 20.3478 42.4763 20.3987C42.4333 20.3924 42.3906 20.3968 42.3533 20.416C42.3109 20.427 42.2679 20.4317 42.2243 20.4307C42.1321 20.4329 42.0458 20.4351 41.9575 20.4483C41.8615 20.4581 41.7723 20.4628 41.6785 20.4628C40.7501 20.4637 39.8217 20.4562 38.8936 20.4656C38.8907 20.4791 38.8849 20.5059 38.882 20.5194C38.8692 20.5844 38.8567 20.6495 38.8377 20.7133C38.8194 20.7507 38.8137 20.7922 38.8204 20.8337C38.7909 21.1649 38.8641 21.5581 39.1755 21.7495C39.4156 21.9296 39.7267 21.9551 40.013 22.0186C40.0586 22.0227 40.1495 22.0308 40.195 22.0352C40.3893 22.0334 40.5848 22.0352 40.7803 22.0343C40.8772 22.0324 40.9816 22.0374 41.0785 22.0139C41.1405 22.0007 41.2044 21.9972 41.2679 21.9988C41.3289 22.0026 41.3902 22.0035 41.4525 22.0022C41.4959 22.0073 41.5418 22.0051 41.5819 21.9843C41.6249 21.9699 41.6695 21.9651 41.7161 21.9705C41.7572 21.9771 41.8005 21.973 41.8384 21.9532C41.8811 21.9384 41.926 21.9337 41.9726 21.9391C42.0137 21.9457 42.0564 21.9406 42.0952 21.923C42.2236 21.9086 42.3549 21.8724 42.4862 21.8762C42.5273 21.8825 42.5707 21.8787 42.6085 21.8589C42.6239 21.8555 42.6541 21.8489 42.6695 21.8457C42.7556 21.8445 42.8429 21.8438 42.9312 21.8438C43.2092 21.857 43.3459 22.2043 43.2766 22.4382C43.2143 22.783 43.2089 23.1673 42.9604 23.4458C42.5829 23.7416 42.0647 23.7501 41.6082 23.8249C41.5658 23.8179 41.5228 23.822 41.4856 23.8425C41.4602 23.8459 41.4095 23.8528 41.3838 23.8563C41.3414 23.8497 41.2984 23.8535 41.2615 23.8736C41.2169 23.8868 41.1716 23.8909 41.1257 23.8862C41.0801 23.8906 40.9889 23.8994 40.944 23.9038C40.8978 23.9138 40.8512 23.9185 40.8044 23.9173C40.7588 23.9217 40.6679 23.9305 40.6227 23.9352C40.5578 23.9496 40.4917 23.9515 40.4262 23.9509C40.3132 23.9478 40.2044 23.9452 40.0952 23.9691C40.0121 23.9782 39.9302 23.9826 39.8487 23.9826C39.623 23.9808 39.3986 23.9814 39.1742 23.9826C39.117 23.9786 39.0031 23.9704 38.9459 23.9663C38.9003 23.9619 38.8092 23.9534 38.7636 23.9493C38.7167 23.954 38.6714 23.95 38.6278 23.9368C38.5899 23.9166 38.5466 23.9129 38.5055 23.9192C37.8149 23.8748 37.1222 23.6262 36.6124 23.1589C36.2929 22.827 36.1026 22.3841 36.0579 21.9325C36.0602 21.8947 36.0605 21.857 36.0589 21.8196C36.0589 21.6059 36.0605 21.3928 36.0589 21.1797C36.0608 21.131 36.0596 21.0826 36.0573 21.0345C36.0615 21.009 36.0701 20.9584 36.0743 20.9333C36.0945 20.8962 36.0987 20.8541 36.0926 20.8132C36.2759 19.5422 36.788 18.2878 37.6644 17.3179C38.4897 16.4042 39.6808 15.8234 40.9132 15.6848C40.9543 15.6917 40.9979 15.6873 41.0355 15.6672C41.0615 15.6628 41.1129 15.6543 41.1389 15.6499C41.1986 15.6534 41.2586 15.6562 41.3193 15.6531C41.4214 15.6527 41.519 15.6408 41.6223 15.6304L41.6233 15.6301ZM40.9405 17.3808C40.1479 17.454 39.5732 18.158 39.3575 18.8674C39.3527 18.8806 39.3424 18.9067 39.3379 18.9196C40.0015 18.9193 40.6666 18.9328 41.3299 18.9124C41.3565 18.9428 41.4487 18.9425 41.4471 18.8922C41.789 18.8611 42.135 18.6191 42.1607 18.2627C42.2191 18.1571 42.2195 18.0518 42.1613 17.9465C42.1247 17.6024 41.7533 17.3833 41.422 17.3805C41.354 17.3261 41.0069 17.3264 40.9405 17.3808Z" fill="#FF3B3B"/>
<path d="M2.02706 0.99786C2.83019 0.558069 3.77198 0.548849 4.66537 0.558991C6.96215 0.585729 9.25706 0.699134 11.5482 0.845731C13.8571 1.01169 16.1706 1.17949 18.4563 1.5529C19.5935 1.76219 20.7307 1.96595 21.8651 2.18354C22.7753 2.38269 23.7524 2.6095 24.4318 3.28809C25.1121 3.97774 25.2945 4.98087 25.3615 5.90655C25.4731 7.66387 25.3736 9.42673 25.247 11.1813C25.0869 13.2134 24.8515 15.2408 24.4848 17.2471C24.3685 17.8445 24.2419 18.4401 24.0567 19.021C24.4439 20.155 24.8105 21.3029 25.0004 22.4886C25.0506 22.8952 25.1204 23.3258 24.9855 23.7232C24.9259 23.9195 24.7063 24.0339 24.5109 23.9601C24 23.8135 23.5542 23.5083 23.1261 23.2068C22.0773 22.4388 21.1392 21.5371 20.2365 20.6087C18.0431 21.1102 15.8468 21.6053 13.6431 22.0599C12.2741 22.3365 10.8996 22.6214 9.50088 22.6961C8.56561 22.7412 7.59218 22.5707 6.80301 22.047C6.05386 21.5602 5.50479 20.8253 5.10835 20.0398C4.38247 18.6061 3.82595 17.0968 3.27689 15.5903C2.30346 12.8298 1.42309 10.0343 0.730707 7.19089C0.437561 5.89918 0.0988148 4.55399 0.396614 3.23185C0.58553 2.30248 1.16345 1.43488 2.02706 0.99786ZM6.65132 4.94215C8.0761 7.6482 9.52694 10.3432 10.9368 13.0557C10.9731 14.6517 10.9415 16.2513 10.9527 17.8491C12.4556 17.8491 13.9595 17.8491 15.4624 17.8491C15.4624 16.3232 15.4652 14.7983 15.4624 13.2724C15.4364 13.0234 15.6011 12.8206 15.7053 12.6104C17.0594 10.0546 18.4125 7.49884 19.7656 4.94215C18.4563 4.94031 17.1469 4.94215 15.8375 4.94215C14.9608 6.78337 14.0879 8.62459 13.2094 10.4649C12.3318 8.62459 11.457 6.78429 10.5823 4.94399C9.27195 4.94123 7.96257 4.94399 6.65225 4.94399L6.65132 4.94215Z" fill="#FF3B3B"/>
</svg>
