<svg width="73" height="24" viewBox="0 0 73 24" fill="none" xmlns="http://www.w3.org/2000/svg">
<g clip-path="url(#clip0_70_6484)">
<path d="M69.5904 9.18397H72.9216C72.5002 5.9528 70.1323 4.25439 66.8412 4.25439C63.5101 4.25439 61.2826 6.01497 61.2826 9.03899C61.2826 12.4772 64.1522 13.2435 65.6773 13.5543C67.6439 13.9478 69.5703 13.9893 69.5703 15.7291C69.5703 16.9097 68.6071 17.4896 67.2426 17.4896C65.5569 17.4896 64.4333 16.6197 64.1522 15.0457H60.8612C61.0619 18.4425 63.45 20.2651 66.9617 20.2651C70.2125 20.2651 72.8814 18.7325 72.8814 15.4184C72.8814 11.8558 69.8112 11.2138 67.664 10.8824C66.199 10.6546 64.5937 10.4474 64.5937 8.85255C64.5937 7.73409 65.4164 7.05061 66.8011 7.05061C68.4065 7.05061 69.3696 7.98272 69.5904 9.18397Z" fill="#403F41"/>
<path d="M59.0372 5.01758H55.8866V20.034H59.0372V5.01758Z" fill="#403F41"/>
<path d="M46.3739 14.5486H50.4877C49.8455 16.1642 48.4007 16.9304 46.7351 16.9304C43.8054 16.9304 42.4408 14.59 42.4408 12.2702C42.4408 9.92965 43.7251 7.54777 46.7151 7.54777C48.5412 7.54777 49.9057 8.41769 50.4275 9.97111L53.8188 9.97112C53.2369 6.47078 50.267 4.46167 46.7553 4.46167C42.4207 4.46167 39.1698 7.50632 39.1698 12.3116C39.1698 17.179 42.7016 20.0581 46.7351 20.0581C50.7084 20.0581 53.8188 17.3862 53.8188 13.2023V11.9802H46.3739V14.5486Z" fill="#403F41"/>
<path d="M31.9663 4.46155C28.3542 4.46155 25.6852 6.80199 25.7053 10.6959H28.9562C28.916 8.99753 29.9595 7.44411 31.8057 7.44411C33.4111 7.44411 34.3542 8.60402 34.3542 9.92954C34.3542 11.2552 33.4111 12.0008 31.6652 12.8087C29.2772 13.9064 27.5716 14.6106 25.8257 15.232V19.7887H37.9864V16.7232H29.638C29.638 16.7232 29.6658 16.7143 29.6794 16.71C31.0994 16.2659 32.1662 15.7834 33.4312 15.2113C36.1402 13.9686 37.6854 12.4151 37.6854 9.76391C37.6854 6.512 35.3576 4.46155 31.9663 4.46155Z" fill="#403F41"/>
<path d="M17.1585 14.5057C13.0648 14.5264 12.4026 17.074 12.1819 19.2281L12.0816 20.1809H11.2587L11.1584 19.2281C10.9377 17.074 10.2554 14.5264 6.30217 14.5057C5.63997 13.0972 5.35903 11.958 5.35903 10.6739C5.35903 7.46349 7.90757 4.4601 11.6801 4.4601C15.4528 4.4601 17.9612 7.44266 17.9612 10.6947C17.9612 11.958 17.8408 13.0972 17.1585 14.5057ZM11.6401 0.566162C5.41928 0.566162 0.322174 5.82717 0.322174 12.2686C0.322174 18.731 5.41928 23.9919 11.6401 23.9919C17.921 23.9919 22.998 18.731 22.998 12.2686C22.998 5.82718 17.921 0.566162 11.6401 0.566162Z" fill="#29B24A"/>
</g>
<defs>
<clipPath id="clip0_70_6484">
<rect width="72.603" height="23.4258" fill="white" transform="translate(0.328033 0.55603)"/>
</clipPath>
</defs>
</svg>
