<svg width="133" height="25" viewBox="0 0 133 25" fill="none" xmlns="http://www.w3.org/2000/svg">
<g clip-path="url(#clip0_70_6432)">
<path d="M62.2975 21.1471H64.9019L68.5324 8.03286V21.1471H71.4526V3.81482H67.4275L63.797 16.5456L60.1665 3.81482H56.0625V21.1471H58.5881V8.03286L62.2975 21.1471ZM83.6857 12.5577C83.6857 9.49 82.1073 8.33962 78.8714 8.33962C76.8194 8.33962 75.2409 8.95316 74.2938 9.49V11.9441C75.0831 11.3306 76.8983 10.7171 78.4768 10.7171C79.9763 10.7171 80.6077 11.2539 80.6077 12.5577V13.2479H80.1342C75.4777 13.2479 73.3468 14.7817 73.3468 17.3125C73.3468 19.8434 74.9252 21.3005 77.2929 21.3005C79.1082 21.3005 79.8974 20.7637 80.4499 20.1501H80.6077C80.6077 20.4569 80.7656 20.917 80.8445 21.1471H83.8436C83.7647 20.1501 83.6857 19.0764 83.6857 18.0795V12.5577ZM80.6077 18.1562C80.2131 18.693 79.5028 19.1531 78.3979 19.1531C77.1351 19.1531 76.5037 18.3862 76.5037 17.3125C76.5037 15.8554 77.5297 15.3186 80.2131 15.3186H80.6866V18.1562H80.6077ZM88.9736 8.5697H86.1324V24.7516H89.2104V19.69C89.9996 20.8404 91.1046 21.3772 92.4463 21.3772C95.4454 21.3772 97.4974 19.0764 97.4974 14.8584C97.4974 10.6404 95.5243 8.33962 92.6041 8.33962C91.1835 8.33962 89.9996 8.95316 89.1315 10.1802L88.9736 8.5697ZM91.5781 19.0764C89.9996 19.0764 89.1315 17.7727 89.1315 14.9351C89.1315 12.0208 89.9996 10.7171 91.7359 10.7171C93.3933 10.7171 94.2615 12.0208 94.2615 14.8584C94.2615 17.7727 93.3933 19.0764 91.5781 19.0764ZM107.047 21.1471H110.52L105.626 14.3983L109.967 8.5697H106.889L102.548 14.3983V8.5697H99.4704V21.1471H102.548V15.0118L107.047 21.1471ZM120.78 20.3035V17.8494C119.833 18.4629 118.254 18.9998 116.755 18.9998C114.545 18.9998 113.677 18.0028 113.519 15.8554H120.859V14.2449C120.859 9.87346 118.886 8.26293 115.808 8.26293C112.098 8.26293 110.283 11.0238 110.283 14.8584C110.283 19.2298 112.493 21.3772 116.36 21.3772C118.491 21.3772 119.912 20.917 120.78 20.3035ZM115.808 10.7171C117.307 10.7171 117.781 11.9441 117.781 13.478V13.708H113.519C113.598 11.7141 114.387 10.7171 115.808 10.7171ZM131.829 10.9471V8.5697H121.569V10.9471H125.2V21.1471H128.278V10.9471H131.829Z" fill="black"/>
<path d="M37.8317 24.215C44.3824 24.215 49.6702 19.0767 49.6702 12.7113C49.6702 6.34586 44.3824 1.20752 37.8317 1.20752C31.281 1.20752 25.9932 6.34586 25.9932 12.7113C25.9142 19.0767 31.281 24.215 37.8317 24.215Z" fill="#FED42B"/>
<path d="M12.4987 24.2156C19.0369 24.2156 24.3372 19.0652 24.3372 12.7119C24.3372 6.35853 19.0369 1.20813 12.4987 1.20813C5.96045 1.20813 0.660156 6.35853 0.660156 12.7119C0.660156 19.0652 5.96045 24.2156 12.4987 24.2156Z" fill="#FC3F1D"/>
<path d="M14.2351 7.64956H13.0513C10.9993 7.64956 9.97326 8.64655 9.97326 10.1804C9.97326 11.8676 10.6836 12.7112 12.1831 13.7082L13.367 14.5518L9.97326 19.6901H7.21094L10.4468 15.012C8.55264 13.7082 7.52663 12.4811 7.52663 10.3338C7.52663 7.64956 9.4208 5.80896 13.0513 5.80896H16.6818V19.6134H14.3141V7.64956H14.2351Z" fill="white"/>
<mask id="mask0_70_6432" style="mask-type:luminance" maskUnits="userSpaceOnUse" x="25" y="1" width="25" height="24">
<path d="M37.8337 24.2151C44.3843 24.2151 49.6722 19.0768 49.6722 12.7114C49.6722 6.34598 44.3843 1.20764 37.8337 1.20764C31.283 1.20764 25.9951 6.34598 25.9951 12.7114C25.9162 19.0768 31.283 24.2151 37.8337 24.2151Z" fill="white"/>
</mask>
<g mask="url(#mask0_70_6432)">
<path d="M31.9922 7.49628L21.5743 20.7639L24.3367 23.8316L32.0712 13.8617L31.2819 19.3068L35.6227 20.7639L40.9106 12.5579C40.6738 14.0918 40.2792 17.6196 43.7519 18.6933C49.1976 20.3038 53.933 10.794 56.1428 5.96245L52.9859 4.35193C50.5393 9.33688 46.7509 14.8587 45.2514 14.4752C43.7519 14.0918 45.0936 9.41357 45.9617 6.4226V6.34591L41.1474 4.73539L35.386 13.8617L36.1752 8.87673L31.9922 7.49628Z" fill="black"/>
</g>
</g>
<defs>
<clipPath id="clip0_70_6432">
<rect width="131.802" height="24.5413" fill="white" transform="translate(0.658203 0.44104)"/>
</clipPath>
</defs>
</svg>
