<svg width="133" height="25" viewBox="0 0 133 25" fill="none" xmlns="http://www.w3.org/2000/svg">
<g clip-path="url(#clip0_70_6451)">
<path d="M12.3328 24.2148C18.8711 24.2148 24.1714 19.0644 24.1714 12.711C24.1714 6.35768 18.8711 1.20728 12.3328 1.20728C5.79458 1.20728 0.494293 6.35768 0.494293 12.711C0.494293 19.0644 5.79458 24.2148 12.3328 24.2148Z" fill="#FC3F1D"/>
<path d="M67.6249 20.4205H63.5959L57.5296 11.9392V20.4205H53.9814V3.68673H57.5296V11.7904L63.5273 3.68673H67.3044L61.2038 11.7217L67.6249 20.4205ZM73.5263 7.36084C75.2432 7.36084 76.5595 7.73473 77.4751 8.48253C78.3908 9.23032 78.8486 10.3673 78.8486 11.8934V20.4205H76.4107L75.7354 18.6808H75.6438C75.2775 19.1386 74.9036 19.5125 74.5221 19.8025C74.1406 20.0924 73.7018 20.3061 73.2058 20.4434C72.7099 20.5808 72.107 20.6494 71.3974 20.6494C70.642 20.6494 69.9629 20.5045 69.36 20.2145C68.7649 19.9245 68.2956 19.482 67.9522 18.8868C67.6088 18.284 67.4371 17.5209 67.4371 16.5976C67.4371 15.2394 67.9141 14.2398 68.8679 13.5988C69.8217 12.9502 71.2524 12.5916 73.1601 12.5229L75.3806 12.4542V11.8934C75.3806 11.2219 75.2051 10.7297 74.854 10.4169C74.503 10.104 74.0147 9.9476 73.389 9.9476C72.7709 9.9476 72.1643 10.0353 71.5691 10.2108C70.9739 10.3864 70.3787 10.6076 69.7835 10.8747L68.6275 8.51687C69.3066 8.15823 70.0659 7.8759 70.9052 7.66987C71.7522 7.46385 72.6259 7.36084 73.5263 7.36084ZM75.3806 14.4916L74.0299 14.5374C72.9006 14.5679 72.1147 14.7701 71.6721 15.144C71.2372 15.5179 71.0197 16.0101 71.0197 16.6205C71.0197 17.1547 71.1761 17.5362 71.489 17.7651C71.8018 17.9864 72.2101 18.097 72.7137 18.097C73.4615 18.097 74.091 17.8757 74.6022 17.4332C75.1211 16.9906 75.3806 16.3611 75.3806 15.5446V14.4916ZM88.4013 7.38373C89.8435 7.38373 91.0072 7.94457 91.8923 9.06627C92.7851 10.188 93.2315 11.8323 93.2315 13.9994C93.2315 15.4492 93.0216 16.6701 92.602 17.6621C92.1823 18.6464 91.6024 19.3904 90.8622 19.894C90.122 20.3976 89.2712 20.6494 88.3098 20.6494C87.6917 20.6494 87.1614 20.5731 86.7188 20.4205C86.2762 20.2603 85.8985 20.0581 85.5857 19.8139C85.2728 19.5621 85.0019 19.295 84.773 19.0127H84.5899C84.6509 19.3179 84.6967 19.6308 84.7272 19.9513C84.7577 20.2717 84.773 20.5846 84.773 20.8898V26.0519H81.282V7.62409H84.1206L84.6128 9.28374H84.773C85.0019 8.94036 85.2804 8.62369 85.6086 8.33373C85.9367 8.04377 86.3296 7.81486 86.7875 7.64698C87.2529 7.47148 87.7909 7.38373 88.4013 7.38373ZM87.2796 10.1765C86.6692 10.1765 86.1847 10.3024 85.826 10.5542C85.4674 10.806 85.2041 11.1837 85.0363 11.6874C84.876 12.191 84.7883 12.8281 84.773 13.5988V13.9765C84.773 14.8006 84.8493 15.4988 85.0019 16.0711C85.1622 16.6434 85.4254 17.0783 85.7917 17.3759C86.1656 17.6735 86.6768 17.8223 87.3254 17.8223C87.8596 17.8223 88.2983 17.6735 88.6417 17.3759C88.9851 17.0783 89.2407 16.6434 89.4086 16.0711C89.5841 15.4912 89.6718 14.7854 89.6718 13.9536C89.6718 12.7022 89.4772 11.7599 89.0881 11.1265C88.6989 10.4932 88.0961 10.1765 87.2796 10.1765ZM105.531 10.2452H101.342V20.4205H97.851V10.2452H93.6504V7.62409H105.531V10.2452ZM106.751 20.4205V7.62409H110.242V12.5687H111.925C113.23 12.5687 114.306 12.706 115.153 12.9807C116.007 13.2554 116.64 13.6751 117.053 14.2398C117.465 14.7968 117.671 15.4988 117.671 16.3458C117.671 17.1699 117.48 17.8872 117.098 18.4976C116.717 19.1081 116.114 19.5812 115.29 19.9169C114.466 20.2527 113.386 20.4205 112.051 20.4205H106.751ZM110.242 18.0055H111.856C112.535 18.0055 113.092 17.8834 113.527 17.6392C113.962 17.3874 114.18 16.9715 114.18 16.3916C114.18 15.8956 113.981 15.537 113.584 15.3157C113.188 15.0944 112.596 14.9838 111.81 14.9838H110.242V18.0055ZM119.525 20.4205V7.62409H123.016V20.4205H119.525Z" fill="black"/>
<path d="M14.0673 7.64944H12.8835C10.8315 7.64944 9.80545 8.64643 9.80545 10.1803C9.80545 11.8675 10.5158 12.7111 12.0153 13.7081L13.1992 14.5517L9.80545 19.69H7.04312L10.279 15.0118C8.38482 13.7081 7.35882 12.481 7.35882 10.3336C7.35882 7.64944 9.25298 5.80884 12.8835 5.80884H16.5139V19.6133H14.1462V7.64944H14.0673Z" fill="white"/>
<g clip-path="url(#clip1_70_6451)">
<path d="M37.3556 0.860107C32.2662 0.860107 28.1406 4.98029 28.1406 10.0631C28.1406 12.6036 29.1713 14.9039 30.8383 16.5692C32.5058 18.2354 36.4341 20.6465 36.6645 23.1774C36.699 23.5568 36.9741 23.8676 37.3556 23.8676C37.7371 23.8676 38.0122 23.5568 38.0467 23.1774C38.2771 20.6465 42.2055 18.2354 43.8729 16.5692C45.5399 14.9039 46.5706 12.6036 46.5706 10.0631C46.5706 4.98029 42.4451 0.860107 37.3556 0.860107Z" fill="#FF4433"/>
<path d="M37.3543 13.2836C39.1356 13.2836 40.5795 11.8415 40.5795 10.0626C40.5795 8.28366 39.1356 6.84155 37.3543 6.84155C35.5731 6.84155 34.1291 8.28366 34.1291 10.0626C34.1291 11.8415 35.5731 13.2836 37.3543 13.2836Z" fill="white"/>
</g>
</g>
<defs>
<clipPath id="clip0_70_6451">
<rect width="131.802" height="24.5413" fill="white" transform="translate(0.494293 0.44043)"/>
</clipPath>
<clipPath id="clip1_70_6451">
<rect width="20.1054" height="23.4258" fill="white" transform="translate(27.3009 0.440186)"/>
</clipPath>
</defs>
</svg>
