<svg width="17" height="17" viewBox="0 0 17 17" fill="none" xmlns="http://www.w3.org/2000/svg">
<path d="M6.5 8.89307C8.706 8.89307 10.5 7.09907 10.5 4.89307C10.5 2.68707 8.706 0.893066 6.5 0.893066C4.294 0.893066 2.5 2.68707 2.5 4.89307C2.5 7.09907 4.294 8.89307 6.5 8.89307ZM6.5 2.2264C7.97067 2.2264 9.16667 3.4224 9.16667 4.89307C9.16667 6.36373 7.97067 7.55973 6.5 7.55973C5.02933 7.55973 3.83333 6.36373 3.83333 4.89307C3.83333 3.4224 5.02933 2.2264 6.5 2.2264ZM15.9147 8.8124C15.1587 8.0564 13.8413 8.0564 13.086 8.8124L7.83333 14.0644V16.8931H10.662L15.914 11.6411C16.292 11.2631 16.5 10.7611 16.5 10.2264C16.5 9.69173 16.292 9.18973 15.9147 8.8124ZM14.9713 10.6977L10.11 15.5597H9.16667V14.6164L14.0287 9.75507C14.28 9.50307 14.7193 9.50307 14.9713 9.75507C15.0973 9.8804 15.1667 10.0477 15.1667 10.2264C15.1667 10.4051 15.0973 10.5717 14.9713 10.6977ZM8.45267 11.5597H3.83333C2.73067 11.5597 1.83333 12.4571 1.83333 13.5597V16.8931H0.5V13.5597C0.5 11.7217 1.99533 10.2264 3.83333 10.2264H9.16667C9.35933 10.2264 9.54533 10.2517 9.72933 10.2831L8.45267 11.5597Z" fill="black"/>
</svg>
