<svg width="41" height="41" viewBox="0 0 41 41" fill="none" xmlns="http://www.w3.org/2000/svg">
<g clip-path="url(#clip0_76_310)">
<path d="M33.1255 33.2016C32.802 33.2016 32.5396 33.4639 32.5396 33.7875V39.2964C32.5396 39.4748 32.3945 39.62 32.2161 39.62H29.0663V28.0811C29.0663 27.7575 28.804 27.4952 28.4804 27.4952C28.1568 27.4952 27.8945 27.7575 27.8945 28.0811V39.62H21.5519L23.3912 37.5966C23.5921 37.3755 23.6869 37.0606 23.6446 36.7539C23.6438 36.7479 23.6429 36.742 23.6419 36.7361L21.8901 26.3871L22.362 25.6766C22.623 25.8619 22.824 26.0404 23.2009 26.0404C23.5844 26.0404 23.9429 25.8257 24.1193 25.4725V25.4724L25.967 21.7693L30.176 23.3993C30.3283 23.4646 32.5395 24.4604 32.5395 27.0898V31.0531C32.5394 31.3766 32.8017 31.639 33.1254 31.639C33.449 31.639 33.7113 31.3767 33.7113 31.0531V27.0898C33.7113 23.6254 30.745 22.3661 30.6187 22.3142C30.6151 22.3126 30.6113 22.3111 30.6076 22.3097L23.6023 19.5968V17.9538C24.7149 17.0885 25.4864 15.8057 25.6801 14.3423C26.2348 14.3032 26.7496 14.0961 27.17 13.7346C27.719 13.2625 28.034 12.5754 28.034 11.8497C28.034 11.2475 27.8167 10.6725 27.4295 10.2245V8.05395C27.4295 4.04973 24.1718 0.791992 20.1676 0.791992C16.1634 0.791992 12.9057 4.04973 12.9057 8.05395V10.2814C12.5144 10.7249 12.3016 11.2708 12.3016 11.8496C12.3016 12.5755 12.6164 13.2625 13.1655 13.7347C13.5856 14.0961 14.1001 14.303 14.6547 14.3421C14.8499 15.833 15.6439 17.1636 16.8513 18.0405V19.5968L9.85359 22.3096C9.84992 22.3111 9.84625 22.3125 9.84258 22.314C9.71625 22.366 6.75 23.6253 6.75 27.0896V39.2963C6.75 40.1209 7.42086 40.7918 8.24547 40.7918H13.828C14.1516 40.7918 14.414 40.5294 14.414 40.2058C14.414 39.8822 14.1516 39.6199 13.828 39.6199H12.5673V28.0811C12.5673 27.7575 12.305 27.4952 11.9814 27.4952C11.6578 27.4952 11.3955 27.7575 11.3955 28.0811V39.62H8.24555C8.06719 39.62 7.92203 39.4749 7.92203 39.2965V27.0897C7.92203 24.4515 10.148 23.458 10.2848 23.3996L14.4905 21.7691L16.3384 25.4724C16.5152 25.8265 16.8741 26.0404 17.2568 26.0404C17.6319 26.0404 17.8309 25.8646 18.0957 25.6766L18.5677 26.3871L16.816 36.7361C16.815 36.742 16.8141 36.7479 16.8133 36.7538C16.7709 37.0604 16.8657 37.3754 17.0667 37.5967L18.906 39.6201H16.5627C16.2391 39.6201 15.9767 39.8825 15.9767 40.2061C15.9767 40.5296 16.2391 40.792 16.5627 40.792H32.2162C33.0408 40.792 33.7116 40.1211 33.7116 39.2965V33.7876C33.7115 33.4639 33.4491 33.2016 33.1255 33.2016ZM24.8694 21.3443L23.1468 24.7966C23.104 24.7662 22.1911 24.1176 21.0752 23.3252C21.5594 22.7275 20.9929 23.4267 23.2029 20.6989L24.8694 21.3443ZM21.4059 24.9977L20.9592 25.6701H19.498L19.0513 24.9977L20.2287 24.1615L21.4059 24.9977ZM18.0231 19.7858V18.6893C18.735 18.9762 19.4958 19.1093 20.2387 19.1093C21.007 19.1093 21.7603 18.9455 22.4303 18.6525V19.7906L20.2287 22.5082L18.0231 19.7858ZM26.862 11.8497C26.862 12.2336 26.6957 12.5968 26.4059 12.8461C26.2142 13.0109 25.9827 13.1163 25.7292 13.1575V10.5421C26.4027 10.6515 26.862 11.2101 26.862 11.8497ZM14.6062 13.1575C13.9252 13.047 13.4734 12.4839 13.4734 11.8496C13.4734 11.2232 13.9927 10.7134 14.6062 10.5716V13.1575ZM14.6377 9.37762C14.4511 9.39902 14.2372 9.44957 14.0777 9.50379V8.05395C14.0777 4.6959 16.8096 1.96395 20.1677 1.96395C23.5257 1.96395 26.2576 4.6959 26.2576 8.05395V9.46355C26.0873 9.41176 25.9106 9.37754 25.7293 9.36145C25.7293 8.79605 25.7342 8.90512 23.8846 6.9166C23.5445 6.55113 22.9818 6.47457 22.5536 6.75434C20.5122 8.08785 18.022 8.75777 15.7243 8.59277C15.2203 8.55504 14.7612 8.88699 14.6377 9.37762ZM15.7782 13.6189V9.77066C18.3075 9.91879 20.9593 9.16738 23.1016 7.79543C23.9498 8.70621 24.4092 9.18395 24.5573 9.36566C24.5573 9.82535 24.5573 13.0926 24.5573 13.6188C24.5573 15.9975 22.6178 17.9372 20.2388 17.9372C17.5674 17.9373 15.7782 15.865 15.7782 13.6189ZM17.3106 24.7966L15.588 21.3443L17.2516 20.7L19.3798 23.3269C18.2975 24.0954 17.4088 24.7268 17.3106 24.7966ZM17.9829 36.8625L19.6789 26.8419H20.7782L22.4742 36.8625L20.2286 39.333L17.9829 36.8625Z" fill="black"/>
</g>
<defs>
<clipPath id="clip0_76_310">
<rect width="40" height="40" fill="white" transform="translate(0.5 0.791992)"/>
</clipPath>
</defs>
</svg>
