<svg width="41" height="41" viewBox="0 0 41 41" fill="none" xmlns="http://www.w3.org/2000/svg">
<g clip-path="url(#clip0_76_142)">
<path fill-rule="evenodd" clip-rule="evenodd" d="M30.176 23.3993C30.3283 23.4646 32.5395 24.4604 32.5395 27.0898V31.0531C32.5394 31.3766 32.8017 31.639 33.1254 31.639C33.449 31.639 33.7113 31.3767 33.7113 31.0531V27.0898C33.7113 23.6254 30.745 22.3661 30.6187 22.3142C30.6151 22.3126 30.6113 22.3111 30.6076 22.3097L23.6023 19.5968V17.9538C24.7149 17.0885 25.4864 15.8057 25.6801 14.3423C26.2348 14.3032 26.7496 14.0961 27.17 13.7346C27.719 13.2625 28.034 12.5754 28.034 11.8497C28.034 11.2475 27.8167 10.6725 27.4295 10.2245V8.05395C27.4295 4.04973 24.1718 0.791992 20.1676 0.791992C16.1634 0.791992 12.9057 4.04973 12.9057 8.05395V10.2814C12.5144 10.7249 12.3016 11.2708 12.3016 11.8496C12.3016 12.5755 12.6164 13.2625 13.1655 13.7347C13.5856 14.0961 14.1001 14.303 14.6547 14.3421C14.8499 15.833 15.6439 17.1636 16.8513 18.0405V19.5968L9.85359 22.3096C9.84992 22.3111 9.84625 22.3125 9.84258 22.314C9.71625 22.366 6.75 23.6253 6.75 27.0896V39.2963C6.75 40.1209 7.42086 40.7918 8.24547 40.7918H13.828C14.1516 40.7918 14.414 40.5294 14.414 40.2058C14.414 39.8822 14.1516 39.6199 13.828 39.6199H12.5673V28.0811C12.5673 27.7575 12.305 27.4952 11.9814 27.4952C11.6578 27.4952 11.3955 27.7575 11.3955 28.0811V39.62H8.24555C8.06719 39.62 7.92203 39.4749 7.92203 39.2965V27.0897C7.92203 24.4515 10.148 23.458 10.2848 23.3996L17.2516 20.7L18.0231 19.7858V18.6893C18.735 18.9762 19.4958 19.1093 20.2387 19.1093C21.007 19.1093 21.7603 18.9455 22.4303 18.6525V19.7906L23.2029 20.6989L30.176 23.3993ZM26.4059 12.8461C26.6957 12.5968 26.862 12.2336 26.862 11.8497C26.862 11.2101 26.4027 10.6515 25.7292 10.5421V13.1575C25.9827 13.1163 26.2142 13.0109 26.4059 12.8461ZM13.4734 11.8496C13.4734 12.4839 13.9252 13.047 14.6062 13.1575V10.5716C13.9927 10.7134 13.4734 11.2232 13.4734 11.8496ZM14.0777 9.50379C14.2372 9.44957 14.4511 9.39902 14.6377 9.37762C14.7612 8.88699 15.2203 8.55504 15.7243 8.59277C18.022 8.75777 20.5122 8.08785 22.5536 6.75434C22.9818 6.47457 23.5445 6.55113 23.8846 6.9166C24.1716 7.2251 24.4139 7.48311 24.6185 7.70099C25.4504 8.58683 25.6593 8.80923 25.7117 9.06384C25.7293 9.14919 25.7293 9.23816 25.7293 9.35696C25.7293 9.35845 25.7293 9.35995 25.7293 9.36145C25.9106 9.37754 26.0873 9.41176 26.2576 9.46355V8.05395C26.2576 4.6959 23.5257 1.96395 20.1677 1.96395C16.8096 1.96395 14.0777 4.6959 14.0777 8.05395V9.50379ZM15.7782 13.6189C15.7782 15.865 17.5674 17.9373 20.2388 17.9372C22.6178 17.9372 24.5573 15.9975 24.5573 13.6188V9.36566C24.4593 9.24537 24.2248 8.99534 23.8314 8.57583C23.6306 8.36164 23.3883 8.10327 23.1016 7.79543C20.9593 9.16738 18.3075 9.91879 15.7782 9.77066V13.6189Z" fill="black"/>
<path d="M33.1255 33.2016C32.802 33.2016 32.5396 33.4639 32.5396 33.7875V39.2964C32.5396 39.4748 32.3945 39.62 32.2161 39.62H29.0663V28.0811C29.0663 27.7575 28.804 27.4952 28.4804 27.4952C28.1568 27.4952 27.8945 27.7575 27.8945 28.0811V39.62L16.5627 39.6201C16.2391 39.6201 15.9767 39.8825 15.9767 40.2061C15.9767 40.5296 16.2391 40.792 16.5627 40.792H32.2162C33.0408 40.792 33.7116 40.1211 33.7116 39.2965V33.7876C33.7115 33.4639 33.4491 33.2016 33.1255 33.2016Z" fill="black"/>
<path fill-rule="evenodd" clip-rule="evenodd" d="M28.4914 21.6559C28.7047 21.9273 28.6576 22.3202 28.3861 22.5334C26.0766 24.3481 22.9701 25.3216 19.9616 25.3622C16.9566 25.4029 13.9609 24.5118 11.9331 22.4839C11.689 22.2399 11.689 21.8441 11.9331 21.6C12.1771 21.356 12.5729 21.356 12.8169 21.6C14.5391 23.3222 17.1684 24.1499 19.9447 24.1124C22.7174 24.0749 25.5484 23.1734 27.6139 21.5505C27.8853 21.3373 28.2782 21.3844 28.4914 21.6559Z" fill="black"/>
</g>
<defs>
<clipPath id="clip0_76_142">
<rect width="40" height="40" fill="white" transform="translate(0.5 0.791992)"/>
</clipPath>
</defs>
</svg>
