<svg width="37" height="37" viewBox="0 0 37 37" fill="none" xmlns="http://www.w3.org/2000/svg">
<g clip-path="url(#clip0_41_13535)">
<path d="M17.4221 33.8775C13.3644 33.8775 9.43645 33.7132 5.74642 33.3891C4.67768 33.2956 3.74488 32.7154 3.18728 31.7974C2.62816 30.8771 2.54332 29.7785 2.95437 28.7833C4.96472 23.9182 7.4581 19.0915 10.3652 14.4372C10.5212 14.1868 10.6775 13.9396 10.8331 13.6953C10.9939 13.4428 11.3289 13.3684 11.5814 13.5293C11.8339 13.6901 11.9082 14.0251 11.7474 14.2776C11.5937 14.519 11.4393 14.7631 11.2849 15.0109C8.40919 19.6148 5.94356 24.3876 3.95611 29.1973C3.67825 29.8699 3.73563 30.6125 4.11358 31.2347C4.49008 31.8545 5.11966 32.2461 5.84094 32.3093C9.49968 32.6307 13.3958 32.7936 17.4212 32.7936C21.9113 32.7936 26.5366 32.5872 31.1693 32.18C31.8936 32.1164 32.5254 31.7229 32.9028 31.1004C33.2803 30.4777 33.3369 29.7353 33.0583 29.0636C31.0736 24.2832 28.617 19.5401 25.7565 14.9662C24.0527 12.2419 22.226 9.60894 20.3268 7.14035C19.8949 6.57848 19.242 6.25632 18.5351 6.25625C18.535 6.25625 18.535 6.25625 18.5348 6.25625C17.8277 6.25625 17.1744 6.57841 16.7424 7.14027C15.4383 8.8357 14.1539 10.6291 12.9248 12.4707C12.7586 12.7197 12.422 12.7869 12.1731 12.6207C11.9242 12.4545 11.857 12.118 12.0232 11.869C13.2657 10.0073 14.5643 8.19398 15.8832 6.47948C16.5219 5.64857 17.4886 5.17212 18.5349 5.17212H18.5353C19.5815 5.17219 20.5476 5.64878 21.1861 6.47948C23.1064 8.97553 24.9533 11.6376 26.6756 14.3914C29.5676 19.0158 32.0519 23.8125 34.0595 28.648C34.472 29.6425 34.3882 30.7411 33.8297 31.6624C33.2713 32.5835 32.3362 33.1657 31.2643 33.2598C26.6002 33.6697 21.943 33.8775 17.4221 33.8775Z" fill="black"/>
<path d="M34.2979 21.63C34.2854 21.63 34.2728 21.6296 34.2602 21.6287L32.7679 21.5261C31.7732 21.4576 30.9941 20.623 30.9941 19.6261V19.4237C30.9941 18.4267 31.7732 17.5922 32.7679 17.5237L34.9656 17.3727C35.4907 17.3373 36.0118 17.5224 36.3959 17.8814C36.7799 18.2402 37.0001 18.7472 37.0001 19.2727V19.7771C37.0001 20.0855 36.9251 20.3911 36.783 20.6607C36.6434 20.9255 36.3156 21.0272 36.0508 20.8875C35.7859 20.748 35.6845 20.4202 35.8239 20.1553C35.8851 20.0394 35.9161 19.912 35.9161 19.7772V19.2728C35.9161 19.0431 35.8237 18.8303 35.6558 18.6735C35.4878 18.5164 35.2688 18.4387 35.0394 18.4542L32.8422 18.6052C32.4137 18.6347 32.0781 18.9943 32.0781 19.4238V19.6261C32.0781 20.0557 32.4137 20.4153 32.8423 20.4448L34.3345 20.5474C34.6331 20.5679 34.8586 20.8267 34.8381 21.1253C34.8184 21.4111 34.5803 21.63 34.2979 21.63Z" fill="black"/>
<path d="M31.0249 14.3167C30.3632 14.3167 29.7208 13.9719 29.3709 13.3657L29.2693 13.1899C28.7708 12.3265 29.0283 11.2143 29.8556 10.6579L31.6834 9.42855C32.1196 9.13508 32.6635 9.03484 33.1755 9.1535C33.6876 9.27209 34.1322 9.60119 34.395 10.0565L34.6473 10.4934C34.9101 10.9487 34.9729 11.4981 34.8195 12.0009C34.6662 12.5037 34.3075 12.9246 33.8353 13.1557L31.8568 14.1239C31.5901 14.2545 31.3057 14.3166 31.0249 14.3167ZM32.7435 10.1879C32.5827 10.1879 32.4258 10.2356 32.2884 10.328L30.4606 11.5573C30.1043 11.7969 29.9934 12.276 30.2081 12.6478L30.3097 12.8237C30.5244 13.1956 30.9946 13.339 31.3804 13.1504L33.3588 12.1822C33.5652 12.0812 33.7158 11.9046 33.7828 11.6848C33.8498 11.4651 33.8235 11.2345 33.7086 11.0355L33.4563 10.5986C33.3414 10.3997 33.1549 10.2615 32.931 10.2097C32.8686 10.1951 32.8057 10.1879 32.7435 10.1879Z" fill="black"/>
<path d="M25.7822 9.00888C25.4587 9.00888 25.1321 8.92686 24.8347 8.75523L24.6589 8.65369C23.7955 8.15521 23.4624 7.0632 23.9007 6.16768L24.8689 4.1892C25.1 3.71701 25.5208 3.35829 26.0237 3.20494C26.5265 3.05152 27.076 3.11432 27.5312 3.37722L27.9681 3.6295C28.4234 3.89233 28.7525 4.33683 28.8711 4.84898C28.9897 5.36106 28.8894 5.905 28.596 6.34119L27.3667 8.16894C27.0019 8.71136 26.3981 9.00888 25.7822 9.00888ZM25.3768 7.8165C25.7487 8.03113 26.2277 7.92027 26.4674 7.56393L27.6967 5.73619C27.8249 5.54555 27.8669 5.31733 27.8151 5.09346C27.7633 4.86958 27.6252 4.68306 27.4262 4.56816L26.9893 4.31588C26.7903 4.20098 26.5597 4.1746 26.34 4.24166C26.1202 4.30872 25.9436 4.45925 25.8426 4.66564L24.8744 6.64413C24.6857 7.02981 24.8291 7.50019 25.201 7.71489L25.3768 7.8165Z" fill="black"/>
<path d="M1.90543 21.681C1.42529 21.681 0.957303 21.4981 0.604574 21.1687C0.220338 20.8099 0 20.3026 0 19.777V19.2725C0 18.7468 0.220338 18.2396 0.604574 17.8808C0.988811 17.522 1.51013 17.3368 2.03442 17.3728L4.23195 17.5236C5.22661 17.5918 6.00578 18.4263 6.00578 19.4232V19.6263C6.00578 20.6233 5.22661 21.4577 4.23195 21.5259L2.03442 21.6767C1.99142 21.6796 1.94835 21.681 1.90543 21.681ZM1.90225 18.4523C1.69434 18.4523 1.49807 18.5295 1.34436 18.673C1.17648 18.8298 1.08398 19.0427 1.08398 19.2724V19.7769C1.08398 20.0066 1.17648 20.2195 1.34443 20.3763C1.51237 20.5331 1.73076 20.6107 1.96028 20.5951L4.1578 20.4443C4.58619 20.4149 4.92179 20.0556 4.92179 19.6262V19.4231C4.92179 18.9937 4.58619 18.6342 4.1578 18.6049L1.96028 18.4542C1.94084 18.4529 1.92147 18.4523 1.90225 18.4523Z" fill="black"/>
<path d="M5.97484 14.3164C5.69401 14.3164 5.40972 14.2543 5.14292 14.1236L3.16443 13.1555C2.69224 12.9244 2.33352 12.5035 2.18017 12.0007C2.02675 11.4979 2.08962 10.9484 2.35245 10.4932L2.60473 10.0562C2.86756 9.60096 3.31207 9.27187 3.82421 9.15328C4.33629 9.03455 4.88016 9.13492 5.31643 9.42832L7.14417 10.6576C7.97147 11.2141 8.22902 12.3262 7.73046 13.1897L7.62893 13.3655C7.27894 13.9717 6.63643 14.3164 5.97484 14.3164ZM4.25622 10.1877C4.194 10.1877 4.1312 10.1948 4.06869 10.2093C3.84481 10.2611 3.65829 10.3992 3.54339 10.5982L3.29111 11.0351C3.17621 11.2341 3.1499 11.4647 3.21689 11.6845C3.28396 11.9042 3.43449 12.0808 3.64088 12.1818L5.61936 13.15C6.00505 13.3388 6.47535 13.1953 6.69005 12.8234L6.79158 12.6476C7.00629 12.2757 6.89543 11.7967 6.53902 11.557L4.71127 10.3277C4.57397 10.2353 4.41701 10.1877 4.25622 10.1877Z" fill="black"/>
<path d="M11.2176 9.00876C10.6016 9.00876 9.99788 8.71131 9.63294 8.16881L8.40363 6.34107C8.11023 5.90488 8.01 5.36101 8.12859 4.84893C8.24718 4.33678 8.57627 3.89228 9.03155 3.62945L9.46846 3.37717C9.92367 3.11434 10.4732 3.05154 10.976 3.20489C11.4788 3.35824 11.8997 3.71696 12.1308 4.18915L13.099 6.16763C13.5372 7.06315 13.2042 8.15508 12.3407 8.65364L12.1649 8.75518C11.8678 8.92674 11.5409 9.00876 11.2176 9.00876ZM10.4187 4.20533C10.2771 4.20533 10.1374 4.24262 10.0105 4.31583L9.57354 4.56811C9.37459 4.68301 9.23642 4.86953 9.18461 5.09341C9.13279 5.31721 9.17485 5.54543 9.30305 5.73606L10.5324 7.56381C10.772 7.92008 11.251 8.031 11.6229 7.81637L11.7987 7.71484C12.1706 7.50014 12.3141 7.02984 12.1254 6.64408L11.1572 4.66559C11.0562 4.45928 10.8796 4.30867 10.6598 4.24161C10.5802 4.2174 10.4991 4.20533 10.4187 4.20533Z" fill="black"/>
<path d="M18.5076 22.9801C18.219 22.9801 17.9303 22.9657 17.6436 22.9369C16.6991 22.8418 15.9604 22.0489 15.9252 21.0924C15.8428 18.8459 15.8428 16.5678 15.9252 14.3214C15.9604 13.3648 16.6991 12.5719 17.6436 12.4768C18.2169 12.4192 18.7984 12.4192 19.3716 12.4768C20.3162 12.5719 21.0549 13.3648 21.0901 14.3213C21.1725 16.5677 21.1725 18.8459 21.0901 21.0924C21.0549 22.0489 20.3162 22.8418 19.3716 22.9369C19.0849 22.9657 18.7963 22.9801 18.5076 22.9801ZM17.7521 13.5554C17.3435 13.5965 17.0238 13.9429 17.0085 14.3611C16.9271 16.5812 16.9271 18.8325 17.0085 21.0527C17.0238 21.4709 17.3435 21.8172 17.7521 21.8584C18.2535 21.9088 18.7618 21.9088 19.263 21.8584C19.6716 21.8172 19.9914 21.4709 20.0067 21.0527C20.0882 18.8326 20.0882 16.5812 20.0067 14.3612C19.9914 13.943 19.6716 13.5966 19.263 13.5555C18.7617 13.5049 18.2534 13.5049 17.7521 13.5554Z" fill="black"/>
<path d="M18.5077 30.1151C18.2416 30.1151 17.9754 30.1088 17.7112 30.096C16.7163 30.0484 15.9321 29.2622 15.8872 28.2673C15.8554 27.564 15.8554 26.8508 15.8872 26.1475C15.9321 25.1526 16.7163 24.3664 17.7112 24.3188C18.2398 24.2935 18.7757 24.2935 19.3042 24.3188C20.2992 24.3664 21.0834 25.1526 21.1283 26.1475C21.16 26.8508 21.16 27.564 21.1283 28.2673C21.0834 29.2622 20.2992 30.0484 19.3042 30.096C19.0399 30.1087 18.7738 30.1151 18.5077 30.1151ZM17.763 25.4015C17.3375 25.4218 16.9892 25.771 16.97 26.1964C16.9397 26.8672 16.9397 27.5475 16.97 28.2184C16.9892 28.6437 17.3375 28.9929 17.763 29.0133C18.2571 29.0369 18.7582 29.0369 19.2524 29.0133C19.6779 28.9929 20.0262 28.6437 20.0454 28.2184C20.0757 27.5475 20.0757 26.8672 20.0454 26.1964C20.0262 25.771 19.6779 25.4218 19.2524 25.4015C18.7582 25.3778 18.257 25.3778 17.763 25.4015Z" fill="black"/>
</g>
<defs>
<clipPath id="clip0_41_13535">
<rect width="37" height="37" fill="white"/>
</clipPath>
</defs>
</svg>
