<svg xmlns="http://www.w3.org/2000/svg" width="38" height="31" viewBox="0 0 38 31" fill="none">
    <path d="M17.9221 30.8775C13.8644 30.8775 9.93645 30.7131 6.24642 30.389C5.17769 30.2955 4.24488 29.7153 3.68728 28.7974C3.12816 27.877 3.04332 26.7784 3.45437 25.7833C5.46472 20.9181 7.9581 16.0914 10.8652 11.4371C11.0212 11.1868 11.1775 10.9395 11.3331 10.6952C11.4939 10.4427 11.8289 10.3683 12.0814 10.5292C12.3339 10.69 12.4082 11.025 12.2474 11.2775C12.0937 11.5189 11.9393 11.7631 11.7849 12.0109C8.90919 16.6148 6.44356 21.3876 4.45611 26.1972C4.17825 26.8698 4.23563 27.6124 4.61358 28.2347C4.99008 28.8544 5.61966 29.2461 6.34094 29.3092C9.99968 29.6306 13.8958 29.7936 17.9212 29.7936C22.4113 29.7936 27.0366 29.5871 31.6693 29.18C32.3936 29.1164 33.0254 28.7229 33.4028 28.1004C33.7803 27.4777 33.8369 26.7353 33.5583 26.0635C31.5736 21.2831 29.117 16.54 26.2565 11.9661C24.5527 9.24187 22.726 6.60887 20.8268 4.14028C20.3949 3.57841 19.742 3.25625 19.0351 3.25618C19.0353 3.25618 19.0351 3.25618 19.0351 3.25618C18.328 3.25618 17.6744 3.57834 17.2424 4.1402C15.9383 5.83563 14.6539 7.62905 13.4248 9.47066C13.2586 9.71962 12.922 9.78683 12.6731 9.62061C12.4242 9.45448 12.357 9.11793 12.5232 8.86898C13.7657 7.0072 15.0643 5.19391 16.3832 3.47941C17.0219 2.6485 17.9886 2.17205 19.0349 2.17205C20.0811 2.17212 21.0476 2.64871 21.6861 3.47941C23.6064 5.97546 25.4533 8.63751 27.1756 11.3913C30.0676 16.0158 32.5519 20.8124 34.5595 25.648C34.972 26.6424 34.8883 27.741 34.3297 28.6623C33.7713 29.5834 32.8362 30.1656 31.7643 30.2598C27.1002 30.6696 22.443 30.8775 17.9221 30.8775Z" fill="#1F2B32"/>
    <path d="M34.7979 18.6299C34.7854 18.6299 34.7728 18.6295 34.7602 18.6286L33.2679 18.526C32.2732 18.4575 31.4941 17.6229 31.4941 16.626V16.4236C31.4941 15.4266 32.2732 14.5921 33.2679 14.5236L35.4656 14.3726C35.9907 14.3372 36.5118 14.5223 36.8959 14.8813C37.2799 15.2401 37.5001 15.7471 37.5001 16.2726V16.777C37.5001 17.0854 37.4251 17.391 37.283 17.6606C37.1434 17.9254 36.8156 18.0271 36.5508 17.8874C36.2859 17.7479 36.1845 17.4201 36.3239 17.1552C36.3851 17.0393 36.4161 16.9119 36.4161 16.7771V16.2727C36.4161 16.043 36.3237 15.8302 36.1558 15.6734C35.9878 15.5163 35.7688 15.4386 35.5394 15.4541L33.3422 15.6051C32.9137 15.6346 32.5781 15.9942 32.5781 16.4237V16.626C32.5781 17.0556 32.9137 17.4152 33.3423 17.4447L34.8345 17.5473C35.1332 17.5678 35.3586 17.8266 35.3381 18.1252C35.3184 18.411 35.0803 18.6299 34.7979 18.6299Z" fill="#1F2B32"/>
    <path d="M31.5249 11.3165C30.8632 11.3165 30.2208 10.9718 29.8709 10.3656L29.7693 10.1898C29.2708 9.32642 29.5283 8.21418 30.3556 7.65773L32.1834 6.42842C32.6196 6.13495 33.1635 6.03472 33.6755 6.15338C34.1876 6.27197 34.6322 6.60107 34.895 7.05634L35.1473 7.49326C35.4101 7.94853 35.4729 8.49797 35.3195 9.00079C35.1662 9.50361 34.8075 9.92449 34.3353 10.1556L32.3568 11.1238C32.0901 11.2544 31.8057 11.3165 31.5249 11.3165ZM33.2435 7.18779C33.0827 7.18779 32.9258 7.23548 32.7884 7.32784L30.9606 8.55715C30.6043 8.79678 30.4934 9.27583 30.7081 9.64771L30.8097 9.82361C31.0244 10.1955 31.4946 10.3389 31.8804 10.1502L33.8588 9.18203C34.0652 9.08108 34.2158 8.90446 34.2828 8.6847C34.3498 8.46494 34.3235 8.23434 34.2086 8.03539L33.9563 7.59848C33.8414 7.39953 33.6549 7.26136 33.431 7.20954C33.3686 7.19494 33.3057 7.18779 33.2435 7.18779Z" fill="#1F2B32"/>
    <path d="M26.2822 6.00885C25.9587 6.00885 25.632 5.92683 25.3347 5.7552L25.1589 5.65366C24.2955 5.15517 23.9624 4.06317 24.4007 3.16765L25.3689 1.18917C25.6 0.716982 26.0208 0.358255 26.5237 0.204908C27.0265 0.0514878 27.576 0.114287 28.0312 0.377189L28.4681 0.629468C28.9234 0.892298 29.2525 1.3368 29.3711 1.84895C29.4897 2.36102 29.3894 2.90497 29.096 3.34116L27.8667 5.16891C27.5019 5.71133 26.8981 6.00885 26.2822 6.00885ZM25.8768 4.81647C26.2487 5.03109 26.7277 4.92024 26.9674 4.5639L28.1967 2.73616C28.3249 2.54552 28.3669 2.3173 28.3151 2.09343C28.2633 1.86955 28.1252 1.68303 27.9262 1.56813L27.4893 1.31585C27.2903 1.20094 27.0597 1.17457 26.84 1.24163C26.6202 1.30869 26.4436 1.45922 26.3426 1.66561L25.3744 3.6441C25.1857 4.02978 25.3291 4.50016 25.701 4.71486L25.8768 4.81647Z" fill="#1F2B32"/>
    <path d="M2.40543 18.6811C1.92529 18.6811 1.4573 18.4982 1.10457 18.1688C0.720338 17.81 0.5 17.3027 0.5 16.7771V16.2726C0.5 15.7469 0.720338 15.2397 1.10457 14.8809C1.48881 14.5221 2.01013 14.3369 2.53442 14.3729L4.73195 14.5237C5.72661 14.5919 6.50578 15.4264 6.50578 16.4233V16.6264C6.50578 17.6234 5.72661 18.4578 4.73195 18.526L2.53442 18.6768C2.49142 18.6797 2.44835 18.6811 2.40543 18.6811ZM2.40225 15.4524C2.19434 15.4524 1.99807 15.5296 1.84436 15.6731C1.67648 15.8299 1.58398 16.0428 1.58398 16.2725V16.777C1.58398 17.0067 1.67648 17.2196 1.84443 17.3764C2.01238 17.5332 2.23076 17.6108 2.46028 17.5952L4.6578 17.4445C5.08619 17.415 5.42179 17.0557 5.42179 16.6263V16.4232C5.42179 15.9938 5.08619 15.6343 4.6578 15.605L2.46028 15.4543C2.44084 15.453 2.42147 15.4524 2.40225 15.4524Z" fill="#1F2B32"/>
    <path d="M6.47485 11.3165C6.19403 11.3165 5.90973 11.2544 5.64293 11.1237L3.66444 10.1556C3.19226 9.92449 2.83353 9.50361 2.68018 9.00079C2.52676 8.49797 2.58963 7.94846 2.85246 7.49326L3.10474 7.05634C3.36757 6.60107 3.81208 6.27197 4.32422 6.15338C4.8363 6.03465 5.38017 6.13502 5.81644 6.42842L7.64418 7.65773C8.47148 8.21418 8.72903 9.32635 8.23047 10.1898L8.12894 10.3656C7.77896 10.9718 7.13644 11.3165 6.47485 11.3165ZM4.75623 7.18779C4.69401 7.18779 4.63121 7.19494 4.5687 7.2094C4.34482 7.26121 4.1583 7.39931 4.0434 7.59833L3.79112 8.03525C3.67622 8.2342 3.64991 8.4648 3.7169 8.68456C3.78397 8.90431 3.9345 9.08093 4.14089 9.18189L6.11938 10.1501C6.50506 10.3389 6.97536 10.1954 7.19006 9.82353L7.2916 9.64771C7.5063 9.27583 7.39544 8.79678 7.03903 8.55715L5.21129 7.32784C5.07398 7.23541 4.91702 7.18779 4.75623 7.18779Z" fill="#1F2B32"/>
    <path d="M11.7176 6.00885C11.1016 6.00885 10.4979 5.7114 10.1329 5.16891L8.90363 3.34116C8.61023 2.90497 8.51 2.3611 8.62858 1.84902C8.74717 1.33688 9.07627 0.892371 9.53154 0.629541L9.96846 0.377261C10.4237 0.114431 10.9732 0.0516323 11.476 0.20498C11.9788 0.358328 12.3997 0.717054 12.6308 1.18924L13.599 3.16773C14.0372 4.06324 13.7042 5.15518 12.8407 5.65374L12.6649 5.75527C12.3678 5.92683 12.0409 6.00885 11.7176 6.00885ZM10.9187 1.20543C10.7771 1.20543 10.6373 1.24271 10.5105 1.31592L10.0735 1.5682C9.87459 1.6831 9.73641 1.86962 9.6846 2.0935C9.63279 2.3173 9.67484 2.54552 9.80304 2.73616L11.0324 4.5639C11.272 4.92017 11.751 5.0311 12.1229 4.81647L12.2987 4.71493C12.6706 4.50023 12.8141 4.02993 12.6254 3.64417L11.6572 1.66569C11.5562 1.45937 11.3796 1.30877 11.1598 1.2417C11.0802 1.21749 10.9991 1.20543 10.9187 1.20543Z" fill="#1F2B32"/>
    <path d="M19.0076 19.9801C18.7189 19.9801 18.4302 19.9657 18.1436 19.9368C17.199 19.8418 16.4603 19.0488 16.4252 18.0923C16.3428 15.8459 16.3428 13.5678 16.4252 11.3213C16.4603 10.3648 17.199 9.57183 18.1436 9.4768C18.7169 9.41914 19.2984 9.41914 19.8716 9.4768C20.8162 9.57183 21.5549 10.3648 21.5901 11.3212C21.6724 13.5677 21.6724 15.8459 21.5901 18.0923C21.5549 19.0488 20.8162 19.8418 19.8716 19.9368C19.5849 19.9657 19.2963 19.9801 19.0076 19.9801ZM18.2521 10.5554C17.8435 10.5965 17.5238 10.9429 17.5085 11.3611C17.427 13.5811 17.427 15.8325 17.5085 18.0526C17.5238 18.4708 17.8435 18.8172 18.2521 18.8583C18.7535 18.9088 19.2618 18.9088 19.763 18.8583C20.1716 18.8172 20.4914 18.4708 20.5067 18.0526C20.5882 15.8326 20.5882 13.5812 20.5067 11.3611C20.4914 10.9429 20.1716 10.5966 19.763 10.5554C19.2617 10.5049 18.7533 10.5049 18.2521 10.5554Z" fill="#1F2B32"/>
    <path d="M19.0077 27.115C18.7416 27.115 18.4754 27.1087 18.2112 27.096C17.2163 27.0484 16.4321 26.2622 16.3872 25.2673C16.3554 24.564 16.3554 23.8508 16.3872 23.1475C16.4321 22.1526 17.2163 21.3664 18.2112 21.3188C18.7398 21.2935 19.2757 21.2935 19.8042 21.3188C20.7992 21.3664 21.5834 22.1526 21.6283 23.1475C21.66 23.8508 21.66 24.564 21.6283 25.2673C21.5834 26.2622 20.7992 27.0484 19.8042 27.096C19.5399 27.1087 19.2738 27.115 19.0077 27.115ZM18.263 22.4014C17.8375 22.4218 17.4892 22.771 17.47 23.1964C17.4397 23.8672 17.4397 24.5475 17.47 25.2184C17.4892 25.6437 17.8375 25.9929 18.263 26.0133C18.7571 26.0369 19.2582 26.0369 19.7524 26.0133C20.1779 25.9929 20.5262 25.6437 20.5454 25.2184C20.5757 24.5475 20.5757 23.8672 20.5454 23.1964C20.5262 22.7709 20.1779 22.4217 19.7524 22.4014C19.2582 22.3778 18.757 22.3778 18.263 22.4014Z" fill="#1F2B32"/>
</svg>
